<svg xmlns="http://www.w3.org/2000/svg" viewBox="0 0 122.97 105.51"><defs><style>.cls-1{fill:#e91a83;}</style></defs><g id="OBJECTS"><path class="cls-1" d="M81.48,11.07l.61-.47a2.49,2.49,0,0,1,1.19.62c-.18.6-1.08,1-.33,1.71.41.07.51-.4.84-.37.23-.37-.17-.67-.15-1.14a6.36,6.36,0,0,1,1.72.89c0,.44-.71.48-.44,1.07a1,1,0,0,0,.62.26c.42-.19.11-.67.39-1,.81.53,1.78.85,2.32,1.77.17.28.28.28.9.43,0,.11-.05.22-.07.33a1.61,1.61,0,0,0,0,.22c.16.42.54-.19.68.16s.68-.13.91.32c.13.26.47.42.72.62a46.35,46.35,0,0,1,8.38,9c.42.59,1.21,1.07.9,2,.73.63.18,1.45.35,2.27a1.38,1.38,0,0,0,.47-1.66c.18.27.37.54.54.82a46.78,46.78,0,0,1,5.68,14.92c.1.54.35,1.11-.13,1.69-.18.21,0,.68,0,1a1.54,1.54,0,0,1,.67,1c-.07.13-.18.11-.3.1a.26.26,0,0,0-.32.17s-.07.12,0,.16c.4.63.25,1.44.68,2,.27.38-.27.74-.06,1a1,1,0,0,1,.32.84c0,.48.18,1-.36,1.42-.35.27,0,.86-.3,1.23a.77.77,0,0,0,.59.54,5.86,5.86,0,0,1-.05,1.83c-.12.58-.38,1.15-1,1.23s-.92.53-1.54.72c.44.33.86.14,1.22.27,0,.41.22.44.58.37-.11.29-.47.08-.58.32l-.11.89c-.24.33-.6.18-.94.36-.27.75-1,1-1.78,1.16.73,0,.82.83,1.38,1-.11.43-.44-.17-.57.12-.2-.2-.17-.49-.28-.77-.73.12-1.46.61-2.14.05-.73.29-.5.91-.53,1.4,0,.2.18.43,0,.66-.48-.35-.89-.37-1.25.23a1,1,0,0,0,1.12-.08c1,.46,1,.46,1.12,1.36l.33.1a4.66,4.66,0,0,1-2.75.65,4.6,4.6,0,0,0-1,.94c-.09.35.36.44.3.76a1.49,1.49,0,0,1-1.76.22c0,.49-.43.62-.74.77-.2.43.29.94-.29,1.21.79.81.79.81.23,1.74,1,.14,1.16.79.94,1.62.62.13.75,1,1.56.62-.16.42-.37.21-.5.34a.8.8,0,0,0,0,.66V76c-.4.41-.56,0-.64-.25a2.38,2.38,0,0,0-1-1.29c0-.49.59-.89,0-1.34a3.48,3.48,0,0,1-1.13.79c-.59,0-.43-.44-.49-.73a.8.8,0,0,0-.59,0h0l.2-.29c.06-.27-.32-.22-.31-.46a3.79,3.79,0,0,1,1.22-2.2c-.17-1.21.81-2,.94-2.91.37-.42.77-.19,1-.46,0-.4-.36-.31-.64-.48a45.54,45.54,0,0,0,2.35-10c.3-.49.79-.09.93-.69,0-.28-.5,0-.59-.27a24.91,24.91,0,0,1-.09-6.62l-.37-.62c-.06-.4.34-.62.2-.93s-.23-.21-.37-.13a1.59,1.59,0,0,1,.3-1.24.9.9,0,0,1-.71-.87,15.23,15.23,0,0,0-.49-2.1c-.18-.7-.4-1.38-.61-2.09.06-.42.52-.58.69-1-.17-.59-.49-1.29.36-1.74-.25-.27-.15-.54,0-.8a1.94,1.94,0,0,0-1.07-.5c0-1,.87-1.11,1.46-1.52.18.34,0,.8.5.9a.52.52,0,0,0,.38-.39,1.44,1.44,0,0,0-.37-.75c-.39-.14-.85,0-1.16-.21-.82.22-1.16,1.18-2.12,1,0,.47.84.73.27,1.24-.31.1-.45-.11-.56-.33-.68-1.35-1.34-2.72-2-4-.24-.45-.62-.81-.9-1.23A39,39,0,0,0,79.46,18.33a38,38,0,0,0-12.94-4,37.31,37.31,0,0,0-9.79,0,38.17,38.17,0,0,0-12.64,3.82c-.24-.1-.12-.53-.47-.54a6.3,6.3,0,0,1-2,1.9,40.13,40.13,0,0,0-8.64,7c-.51.55-1,1.12-1.47,1.72s-.75.92-1.38.85c-.23.34.05.49.11.69a49.44,49.44,0,0,0-3.65,6.06,40.41,40.41,0,0,0-3.83,13.51,38.61,38.61,0,0,0,0,7.13,34.5,34.5,0,0,0,1.22,7,45,45,0,0,0,2.56,6.54c1,2.14,2.43,4,3.7,6.16a3.56,3.56,0,0,0-1.94,1.16l.3,1.18a1.42,1.42,0,0,0,1-1.4c.33-.26.78-.18,1-.56a1.21,1.21,0,0,1,.47,1.32c-.1.42-.36,1.08.29,1.43.79-.06.54-.6.49-1.12A7,7,0,0,1,33,79.24c.16.6-.52.62-.41,1l-.64.18c-.09-.33-.12-.69-.42-.82s-.42.31-.68.19,0-.49-.26-.62a.56.56,0,0,0-.37.51c.06.25.38.52.2,1.1,0,.26-.63.07-.93.54.72-.1.88.42,1.11.68a.71.71,0,0,0,.76-.17c-.18.52-.79.83-.7,1.5s-.91.9-.09,1.72a12,12,0,0,0,2-2,1.23,1.23,0,0,0,.89.38c.18-.42.48-.79-.23-1a.84.84,0,0,1,0-.17c0-.42.29-.44.6-.42,0,.22,0,.49.23.66a1.12,1.12,0,0,0,.32,0,.26.26,0,0,0,.25-.25c0-.36-.46-.33-.65-.55-.06-.75-.64-.23-.91-.44-.25.32-.15.64-.21.93-.62,0,0-.52-.29-.66s-.52.15-.75-.09c.6-.09,1-.33,1-1,.42-.2.89.58,1.27-.09,1,.47,1.12,1.57,1.64,2.43l.51-.37c.55,0,.65.45.71,1a2.52,2.52,0,0,1,1.32.49,38.67,38.67,0,0,0,17,7.32,1.59,1.59,0,0,1,1,.35c-.19.13-.48,0-.69.25,0,.41.58.4.59.77a.75.75,0,0,0,.71-1c.86-.38,1.31.32,2,.45.21-.21.45-.48.85-.32s.38.69.26,1.05a.53.53,0,0,0,.56.06,1.05,1.05,0,0,0-.11-1c.9-.14,1.67-.28,2.33.41.42-.35.81-.73,1.36-.46.22.11.34,0,.53,0a3.12,3.12,0,0,1,2.85.16c.08.32-.07.42-.37.44s-.55-.3-.91-.37a2.16,2.16,0,0,1-.6,1.33c.72.34,1.08,1,1.85,1.22a1.87,1.87,0,0,1,0,1.1c-.42.07-.54-.43-.91-.32-.24.81-.23.82.57.87.67.64.09,1.92,1.23,2.29.42-.42,0-.53-.15-.71,0-.32.47-.29.55-.72-.38-.65-.23-1.55-.63-2.34a.73.73,0,0,1,0-.56,7,7,0,0,0,.49-2.94c.5-.12.19.66.49.54.58-.13.33-.48.34-.67a3.86,3.86,0,0,1,2.52-.29c.18.15.13.61.55.61.37-.36-.13-.73,0-1.11a11.5,11.5,0,0,1,1.73-.64c.33.15.16.61.53.63.43-.19-.08-.5.27-.89l2.31-.95c.42.26.53.91,1.13.87.22-.25.16-.41,0-.52s-.24-.3-.29-.49a16.22,16.22,0,0,1,4-2.16,3.61,3.61,0,0,1,1.19-1c.54-.34,1.05-.73,1.55-1.07.48-.08.76.24,1.07.46l.66-.35c-.43-.17-.56-.52-.86-.9.85.09,1,.73,1.3,1.24h0c-.64.08-1,.59-1.45.83,0,.57.44.29.64.41.24.4-.05.93.41,1.31.23.19.13.59-.11.86a2,2,0,0,0-.51,1.06c-.4,0-.55-.24-.71-.51a1.53,1.53,0,0,0-.27-2,7,7,0,0,1,0,1.13,2.6,2.6,0,0,1-.31,1.13c-.5.7-.14,1.36-.07,2h0c-.13,0-.28.1-.26.2.13.64-.23,1.32.1,1.93.58.19.84-1,1.51-.19-.8,1.27-2.29,1.55-3.46,2.35-.87-.59-1.89-.71-2.71-1.32l-.15.2.78,1.88a25.4,25.4,0,0,1-6.87,2.51c-.28-.16,0-.36-.08-.6-.88,0-1.07,1.34-2,1.12-.58,0-.2-.61-.61-.66-.43.1-.54.4-.47.88a3.35,3.35,0,0,1-2.47-.11c-.34,0-.4.35-.62.61-.88-.29-1.71.29-2.61.27s-1.84,0-2.76,0-1.84,0-2.75,0-1.52-.5-2.36-.25c0-.8.36-1,1.24-.83-.89-.74-.28-1.69-.79-2.39a1.09,1.09,0,0,0,.55-1.08c-.31.06-.57-.12-.77.12l.07.82L56,96.58c-.35-.3,0-.57-.12-.85l-.46-.1c-.11-.08-.14.09-.07,0s.07,0,.1,0c.47,0,1,0,1-.67-1-.25-1.26-.18-2.12.68,0,.22.19.33.32.49.1.34-.44,0-.34.28-.12.37.26.37.35.58,0,.47-.69.38-.79.83.08.26.37.23.55.36.24-.21.3-.58.71-.73.27.52.08,1.52,1.15,1.36a.62.62,0,0,1,0,.74,3.28,3.28,0,0,0-2.13-.2c-.1-.4.18-.89-.41-1.09-.51,0-.3.64-.67.82a5.65,5.65,0,0,1-1.53-.29l.35-.95c-.66-.73-1.56-.2-2.43-.66.23.84,1,.41,1.25,1-.9-.41-1.82,0-2.69-.3s-1.73-.6-2.61-.86c-.4-.12-.38-.62-.95-.74,0,0-.06.34-.45.14a1.55,1.55,0,0,0-1.81-.81c-.22,0-.52-.16-.77-.27a48,48,0,0,1-6.83-4c-.36-.25-.66-.51-.5-.88-.35-.35-.44,0-.61,0A.72.72,0,0,1,33,90,3.2,3.2,0,0,0,33.45,88a.61.61,0,0,0-.41-.69l-1.77.82c.46.29.91.13,1.33.18-.16.86-.46,1.08-1,.65a12,12,0,0,1-2.51-2.37c-.11-.16-.18-.41-.33-.47-1.33-.55-1.87-1.91-2.9-2.74l-.09-1.19c-.33-.27-.41.2-.73.06a2.8,2.8,0,0,1-1-2c-.18-.25-.36.08-.57,0a3.71,3.71,0,0,1-.86-1.09,46.88,46.88,0,0,1-4.77-9c-.28-.69-.27-1.49-.6-2.11a21.69,21.69,0,0,1-1.74-5.75,31,31,0,0,1-.81-5.91,1.56,1.56,0,0,0-.25-1v-5a2,2,0,0,0,.24-1c.18-1.57.35-3.15.55-4.72a2.64,2.64,0,0,1,1.56-2.45c-.16-.43-.75-.34-.83-.79s.48-.31.43-.66a6.71,6.71,0,0,1,.61-3,2.86,2.86,0,0,1,2-2.33,1,1,0,0,0-.07-.66,1.81,1.81,0,0,1,0-1.89c.18-.3.33-.63.5-.95h0c.25.53.74.22,1.12.31-.09.43.28.57.5.81a1.22,1.22,0,0,0-.59,1.07c.11.07.2.15.3.2s.24,0,.3.23a6.54,6.54,0,0,0-.36,2.15c.55-.15,1.15-.15,1.32-.85l-.58-.26c.33-.62.06-1.25,0-1.88a2,2,0,0,1,1.34-.94,1.89,1.89,0,0,0-1-.18c-.26,0-.31-.21-.34-.42.13-.27.67-.2.58-.72a2.07,2.07,0,0,0-1,.4c-.14-.17,0-.46-.1-.55-.66-.62-.27-1.25-.06-1.87a5.44,5.44,0,0,1,.52-.94,50.21,50.21,0,0,1,3.8-5.38c.08.24,0,.58.31.69a.47.47,0,0,0,.44-.1c-.15-.28,0-.57,0-.87l-.34-.09a29.31,29.31,0,0,1,3.71-3.92c.42.15.81.38,1-.22,0-.23-.39-.05-.43-.32A15.53,15.53,0,0,1,32,16.36c.15.37.57.47.73.67.3.59,0,1-.06,1.56.55.13.66.72,1.06,1,.32-.14.56-.31.61-.62a2.27,2.27,0,0,0-.91-.81c.65.06.57-.31.47-.61s-.46-.74-.42-1.21H34a1.82,1.82,0,0,0,.6,1.13.93.93,0,0,0,.73-.67,4.7,4.7,0,0,0-1-1,1.22,1.22,0,0,1-.81.13L33,15.57a1,1,0,0,1,1.34-.5h0c0,.37.4.3.71.55-.08-.69.8-.58.79-1.19A1,1,0,0,0,37,13.7l-.61-.32c0,.4-.46.37-.58.68a1.55,1.55,0,0,0-.05.23l-.23-.54c.49-.62,1.28-.57,1.91-.87.36-.94,1.3-1.07,2-1.52l.39.34c.14-.5.82-.27.93-.67.17-.62.7-.7,1.14-.91A8.51,8.51,0,0,1,44,9.27a14.79,14.79,0,0,0,2.12-.89,47.92,47.92,0,0,1,7-1.83c2-.32,4-.88,6.08-.38.2-.14.16-.3.13-.45h4.8c.35.29,1,.17,1.06.82.52-.2.83-.47,1.37-.43a35.6,35.6,0,0,1,5.51.9c.22.26-.14.48.14.61s.35-.41.67-.39A16.11,16.11,0,0,1,75.72,8a1.61,1.61,0,0,1,0,1.2c.24.21.51.24.68-.06.4-.7,1-.57,1.57-.39a6.89,6.89,0,0,1,1.74.75.49.49,0,0,0-.42.14c0,.25.25.37.39.55-.36.05-.64-.37-1.09-.1-.19.15-.06.58-.51.78-.19,0-.5.06-.8.12a.24.24,0,0,0-.17.28c.1.38.48.17.68.32l.37,1.23c.13-.87.77-.17,1.08-.73,0-.56.42-1.11.57-1.75.2-.14.41-.27.44-.54a1.47,1.47,0,0,1,1,.34c0,.3-.36.29-.48.47.15.28.47.12.63.3-.76.41-1,.82-.87,1.42,0,.18.09.47.41.53l.56-.29C80.92,12,81.22,11.56,81.48,11.07ZM47.9,95.42c.11-.23.37-.47-.14-.71-.13.35-.69.38-.68.86.29.32.47.09.67,0,.25.49.87.44,1.18.84.3-.14.64-.18.76-.56l-.56-.58C48.62,95.06,48.28,95.36,47.9,95.42ZM27.11,80c0,.19,0,.4.12.55,1,0,.8-1,1.35-1.3-.38-.47-1-.23-1.15-.85-.56.35-.43.77-.32,1.18-.48.23-.6-.43-1-.41l-.31.29c0,.43.35.68.43,1-.48.18-.95.27-1.18.74.35.23.35.23,1.41,0a1.66,1.66,0,0,0,.33-1C26.77,80,26.93,80,27.11,80Zm1.67-59.68a1.58,1.58,0,0,0-1,.5c.34,1-.55,1.95,0,3,.75-.44.26-1.23.63-1.68a3.24,3.24,0,0,0,.46-1.68c.3-.07.64.08.89-.21a1.51,1.51,0,0,0-.09-1.09C29.35,19.58,29.33,20.17,28.78,20.29Zm47.9,73.82.41.77a1.4,1.4,0,0,0-.41,1.71h.83a3,3,0,0,0,.74-1.31c-.32-.06-.36-.32-.38-.62s.07-.55-.16-.8c-.36.36-.81-.42-1.16.1-.35.17-.32-.46-.77-.26a1.71,1.71,0,0,0,0,1.71C76.15,94.88,76.74,94.74,76.68,94.11ZM25.21,27.76c.26.72-.35,1.24-.73,1.85a1,1,0,0,0,.83.12c.22-.13.07-.32.17-.45a1.74,1.74,0,0,0,1.43-.88l-.34-.29c.23-.11.56.06.72-.28a3.83,3.83,0,0,0,.05-1.18c0-.34.63-.67.21-1.15C26.33,25.76,25.87,26.8,25.21,27.76ZM71.76,95.22c.23.37.57.26.63.41.25.8-.7,1.47,0,2.19.31-.23.07-.64.41-.93.69.24.78-.58,1.25-.86.22-.08.45.29.67-.07l-.21-1.21c-.58,0-.55.52-.77.85.18-.65-.19-1.1-.43-1.66C72.67,94.31,72.5,95,71.76,95.22ZM33.86,87c.35-1.14-1-1.35-1.17-2.2a5.85,5.85,0,0,0-1.57.82c-.09,0-.06.14.05.2.28.27.55-.17.85-.07.3.36.63.7.35,1.34l1-.4C33.45,86.89,33.41,87.17,33.86,87Zm68.58-50.84a1.84,1.84,0,0,1-1.23,1.37c-.44.14-.45.37-.32.71.42,0,.83.25,1.28.07a5.8,5.8,0,0,0,.76-2.07C102.78,36.12,102.62,36.16,102.44,36.19ZM19.68,37.5c-.22-.26.19-.43.06-.68-.64-.71-.64-.71-.88-.57s.29.37.16.64-.52-.12-.5.4c.57.22.8,1,1.55,1.09.19-.38.67-.45.82-.85-.12-.22-.36-.25-.57-.34C20.12,37.29,20.09,37.66,19.68,37.5Zm2.46,2.27c.8.12.05,1.2.91,1.43.14-1,.66-1.86.18-2.83a.65.65,0,0,0-.58.08C23.09,39.07,22.26,39.22,22.14,39.77Zm-5,4.86c-.7.49-.36,1.26-.46,1.88,0,.24.39.34.75.25.17-.33.52-.6.62-1C17.65,45.45,17.53,45,17.18,44.63ZM35.61,23.41c-.16-.95.43-1.79.14-2.84-.72.75-.61,1.78-1.19,2.41C34.76,23.45,35,23.59,35.61,23.41Zm58.16,2.67c.47-.44.5-1.09.78-1.6-.42-.6-.75-.12-1.19,0,.15.38-.3.62-.19,1A1.28,1.28,0,0,0,93.77,26.08Zm9.11,18.8c.37-.58.74-1.11.05-1.7a2.89,2.89,0,0,0-1.09.58C102.33,44,102.13,44.73,102.88,44.88ZM80.77,89.48c-.75-.35-.51-1-.4-1.44-.19-.21-.35-.32-.56-.19-.34.38.07.84-.14,1.24s0,.79.42,1c.1,0,.19.15.34,0ZM63.64,95.75c-.3-.22-.45-.62-.88-.72l-.75.56a3,3,0,0,0,1.35,1Zm34.51-64.3c.71-.25.78-.79.8-1.42-.5-.16-.93-.24-1.24.32C97.65,30.76,98.23,30.94,98.15,31.45ZM62.42,93.2c0,.41.26.31.42.42-.14.19-.51,0-.54.36.39.19.84.22,1-.2s.64-.91.16-1.49A2.64,2.64,0,0,0,62.42,93.2Zm20.2-.91c-.21-.3-.11-.67-.4-.89-.37-.05-.74-.15-1.06.14C81.63,92.78,81.67,92.81,82.62,92.29ZM20.22,41.94c.75.06,1-.48,1.39-.83a1.11,1.11,0,0,0-.56-.57A1.14,1.14,0,0,0,20.22,41.94Zm86.28.53c-.34-.63.17-1.2-.3-1.76a1.14,1.14,0,0,0-1,1C105.76,41.58,105.81,42.27,106.5,42.47ZM24.44,76.86c.36-.59,1-.68,1.28-1.17-.79-.56-.87-.53-1.65.52Zm2.41-42.57-1.11-.17c.49.47-.18.9,0,1.31.29-.13.38.27.63.21A2.37,2.37,0,0,0,26.85,34.29Zm79.39,21.77A2.59,2.59,0,0,0,106,53.7c-.37.08-.43.3-.38.47A5.62,5.62,0,0,0,106.24,56.06ZM26.42,31.8c.31.95.31.95,1.06,1.19-.36-.6.15-1.42-.71-1.8ZM78.91,93.55c.33-.57.08-1-.31-1.49-.93.3-.08,1-.52,1.41A1,1,0,0,0,78.91,93.55ZM31.77,23.61c.46-.14.5-.19,1.08-1.27a.81.81,0,0,0-.8,0A1.19,1.19,0,0,0,31.77,23.61ZM61.58,98.55c-.47-.19-.13-.71-.46-.91-.26,0-.4.07-.59.39.58.32,0,1,.33,1.48C61.31,99.35,61.34,99,61.58,98.55Zm9.1-5.28c.23-.24.34-.53.73-.6-.31-.45-.2-1-.38-1.47a1.07,1.07,0,0,0-.67.62l.35.25C70.67,92.43,70.43,92.78,70.68,93.27ZM74,13.75c-.34-.32-.37-.82-.56-1.3-.36.43-.52,1.17-.3,1.44S73.68,14.2,74,13.75Zm4.51,2.05c.08-1-.07-1.43-.51-1.44a1,1,0,0,0-.37.88ZM24.27,32.37a1,1,0,0,0,1.26-.81,1.7,1.7,0,0,0-1-.34A2.12,2.12,0,0,1,24.27,32.37Zm78.44,28.52a.58.58,0,0,0-.08-.71c-.37.25-.83,0-1.32.08l.58.85Zm-25,29.51a2,2,0,0,1,0-.39.59.59,0,0,0,0-.45c-.84-.06-.84-.06-.89.83A1,1,0,0,0,77.73,90.4Zm25.84-38.33a.72.72,0,0,0,.25.55c.2.2-.21.44.06.6a.47.47,0,0,0,.57-.1,2.21,2.21,0,0,1,.18-1A1.54,1.54,0,0,0,103.57,52.07Zm-6.89-18.3c.32-.67.91-.73,1.31-1.05a.53.53,0,0,0-.39-.56C97.25,32.6,96.34,32.65,96.68,33.77Zm5.13-1.29a2.8,2.8,0,0,0,.68-1c-.3-.38-.61-.19-.91-.18A1.21,1.21,0,0,0,101.81,32.48ZM48.14,10.57a.71.71,0,0,0,0,.91c.29-.62.7.31,1.07-.16C49.2,10.62,48.57,10.74,48.14,10.57Zm-19.2,73.9c-.29.5.39.62.26,1-.11.17-.43.18-.16.59.57.07.61-.42.72-.83A2,2,0,0,0,28.94,84.47ZM20.23,44.2a3,3,0,0,0,.33-.28.59.59,0,0,0,.06-.2c-.71-.69-.71-.69-1.42-.14C19.68,43.59,19.87,43.94,20.23,44.2Zm0,25.37c.58-.52.65-.75.28-1a1,1,0,0,0-.78.41A.54.54,0,0,0,20.22,69.57Zm6.77,3c0,.22-.47-.05-.47.33.2.26.35.61.8.52,0-.51.35-1,0-1.43C26.73,72,27.19,72.35,27,72.54ZM64,97.36c.65.2.75-.18.83-.67l-.84-.18A1,1,0,0,0,64,97.36Zm-.75.6c-.19.5.1.77.38,1.19.2-.34.53-.39.49-.74A.93.93,0,0,0,63.2,98ZM83.1,15.12c-.55-.13-.94-.09-1,.53a.37.37,0,0,0,.42.33A1,1,0,0,0,83.1,15.12Zm21.47,33.43c-.36.8.18,1.17.81,1.79C105.47,49.4,104.61,49.16,104.57,48.55Zm-2.34-15.88c-.63-.31-.74.17-.88.5s.07.49.41.58A3,3,0,0,0,102.23,32.67ZM20.42,40.38c-.39-.68-.75-.24-1.16,0a1.25,1.25,0,0,0,.6.58A1.1,1.1,0,0,0,20.42,40.38ZM80.75,92.73c-.16-.76-.38-1.09-1-1C79.78,92.26,80.08,92.49,80.75,92.73ZM94.11,23.89a1,1,0,0,0-.6-.63c-.43.28-.52.57,0,.92ZM21.54,58.52c-.37.37.09.6.26,1.21,0-.6.49-.57.5-.93A.6.6,0,0,0,21.54,58.52Zm-.82-19.06-.74-1a.9.9,0,0,0,.36,1.3ZM67.49,12.55c-.34.49-.42.81,0,1.13C67.86,13.32,67.84,13,67.49,12.55ZM58.67,95.08a.72.72,0,0,0,.08.88c.22,0,.45.09.6-.27A2.37,2.37,0,0,0,58.67,95.08ZM77.55,91.5c.35.49.68.33,1,.26,0-.3,0-.49-.18-.61S77.87,91.33,77.55,91.5ZM79,89.8c-.89.13-1,.28-.62.86C78.53,90.34,79,90.33,79,89.8ZM29.16,81.53a1.4,1.4,0,0,0-.54-1.39A1.33,1.33,0,0,0,29.16,81.53ZM104,58.67c-.18-.23-.12-.52-.42-.58a.9.9,0,0,0-.51.57.56.56,0,0,0,.34.33Zm-.65,2.77a.76.76,0,0,0,.26.63c.32-.11.7-.14.83-.63Zm-76.73,17c.43-.47.43-.47-.11-.94C26,77.92,26.42,78.17,26.6,78.47ZM21.08,76c.7-.17.59-.63.49-1.16C21,75.12,21.13,75.59,21.08,76ZM73.76,9.35c.65.34,1,0,1.6-.18A1.64,1.64,0,0,0,73.76,9.35ZM28.23,29.91c.25-.09.42-.23.39-.52a.66.66,0,0,0-.41-.39c-.06,0-.14,0-.26.08A2.33,2.33,0,0,0,28.23,29.91Zm-4.7,6.48c.1.41-.4.55-.12.94.27,0,.53-.07.65-.37S23.93,36.6,23.53,36.39ZM52,96l-.25-1.28C51.33,95.2,51.21,95.6,52,96ZM78.68,94a1.12,1.12,0,0,0-.07,1.2C79,94.43,79,94.43,78.68,94Zm-4.34.14v-1a.44.44,0,0,0-.57.09C74,93.44,73.76,93.91,74.34,94.1ZM25.36,70c-.59.5-.28.8.1,1.24A1.58,1.58,0,0,0,25.36,70Zm16.82,25a.84.84,0,0,0,1.14,0C42.88,95,42.7,94.49,42.18,95.05ZM83.55,14.17c0-.39.56-.71-.14-1C83.3,13.48,82.86,13.73,83.55,14.17ZM48.85,15c.44-.39.44-.39,0-.84A.72.72,0,0,0,48.85,15Zm-10.8.15c0,.52,0,.52.36.77C38.57,15.53,38.47,15.27,38.05,15.15Zm47.22,2.22c.32.42.32.42.68,0C85.73,17.12,85.51,17.16,85.27,17.37ZM97.4,27.11c.39.29.64.35.83-.06C98,26.73,97.73,26.75,97.4,27.11ZM17.48,42.85c.05-.51.05-.51-.35-.79C17,42.45,17.05,42.72,17.48,42.85Zm-1.21,7.68a.38.38,0,0,0,0-.59.34.34,0,0,0-.56.08A.72.72,0,0,0,16.27,50.53Zm88.54,1c0-.32.5-.33.53-.71C104.55,51,104.55,51,104.81,51.54ZM17.82,68a1.26,1.26,0,0,0,.89-.22.58.58,0,0,0-.62-.33A.48.48,0,0,0,17.82,68Z"/><path class="cls-1" d="M70.69,20.9a1.15,1.15,0,0,1,.65-.24c1.66,0,3.32,0,5,0-.73,1.22-.71,1.34.29,1.64.4-.16.17-.7.49-.86.09-.09.13-.06.19,0a2.06,2.06,0,0,1,.17,1.17q0,4.74,0,9.48a4.68,4.68,0,0,1,0,.84,1.16,1.16,0,0,1-1.14,1,12.4,12.4,0,0,1-3.7-.08c-.39-.1-.66.15-1,.15-1.1,0-2.2-.09-3.3-.13-.3,0-.31-.51-.67-.35a.37.37,0,0,0-.18.41c.51,1.34.08,2.72.21,4.07a3.87,3.87,0,0,0,.12,1.31c.38.31.84.2,1.26.2,2.28,0,4.56,0,6.84,0,1.44,0,1.78.35,1.67,1.81-.15,2.11-.35,4.22-.55,6.33a6.09,6.09,0,0,1-.22.89c-.4.12-.72-.1-1.16-.08.18.61.86.54,1.16,1.29-.07,1-.14,2.27-.28,3.58-.09.87-.44,1.18-1.31,1.25a8.88,8.88,0,0,1-3.33-.09s-.07-.07-.1-.06c-1.43.45-2.93,0-4.41.33-.31.53-.06,1.12-.24,1.72a2.23,2.23,0,0,0-1.74,1.31.75.75,0,0,0,.32.59c.3-.19.09-.65.41-.84l1-.3a2.53,2.53,0,0,1,.07.36q0,1.5,0,3c0,1.2.23,2.45-.64,3.44.18.26.35.18.5.18.49.49-.11.67-.29.93,0,.3.28.29.38.47s-.27.38-.28.42a26.53,26.53,0,0,1,.34,6c-.24-.13-.16-.36-.35-.38h-.2c-.35.58,0,.86.52,1,.06.35-.33.59-.17.93l-.43.44c-.52.23-.58-.59-1.17-.45.14.42-.54,1,.35,1.28l-.38.42a1.25,1.25,0,0,0,.48.86c.32-.06.68.2,1,.06,0-.09.12-.15.13-.22s-.11-.28-.25-.37c0-.27.21-.38.42-.51q0,3.1,0,6.2c0,.39.08.81-.33,1.07l-.07-.83c-.4-.1-.72-.33-1.08-.29-.55.7.48.71.44,1.2a.27.27,0,0,0,.46.13.39.39,0,0,1,.11-.06,1,1,0,0,1,.49.86A9.85,9.85,0,0,1,67,85.55c-.21.09-.26-.35-.43-.18-.44.16-.17.66-.66.87H61.58l-.12-1.74c-.21-.35-.68-.25-.84-.6a.8.8,0,0,0,0-1.08c.32-.3.23-.63.09-1a3.74,3.74,0,0,1-.45-.12c-.18-.06-.33-.22-.62-.11l-.47.41a.38.38,0,0,0-.5-.23,1.37,1.37,0,0,0-.91,1.3c0,.57.07,1.15.11,1.76a3.13,3.13,0,0,1,.85,1.29c.28,0,.47.07.63-.19-.08-.48-.54-.79-.67-1.25-.36-.59.55-1,.25-1.56.35-.51,1-.52,1.51-1l0,.61a.82.82,0,0,0,0,1.34.77.77,0,0,0-.13.88,3,3,0,0,1,.2,1.32H57.43c-.28-.12-.1-.51-.19-.53a.91.91,0,0,0-.88.15c-1.1.78-2.3.46-3.45.32A1.14,1.14,0,0,1,52,85,3.49,3.49,0,0,1,52,83.63c.39,0,.37.65.84.54.45-.92.31-1.13-.89-1.26a4.43,4.43,0,0,1,0-1.31A1.85,1.85,0,0,1,53.12,81c-.4-.35-.74-.22-1.1-.23V74.73c0-.16.5,0,.59-.33s-.49-.34-.63-.85c.13-1.48-.06-3.14,0-4.82s0-3.43,0-5c.12-.39.49-.25.59-.5s-.39-.37-.58-.63V61.18c.37,0,.62.48,1.06.12a1.47,1.47,0,0,0-1-1c-.15-1.07.15-2.07,0-3.12A16.91,16.91,0,0,1,51.79,54c-.51,0-.45.51-.94.64a8,8,0,0,1-2.55,0c-.5-.14-.4-.71-.5-1.11-.71.15-.74,1.06-1.59,1-.57-.23-.58-.85-.58-1.45,0-1.72,0-3.44,0-5.16,0-2.2,0-4.39,0-6.59,0-1.47.3-1.74,1.78-1.75h3.11a2.53,2.53,0,0,0,1.14-.11c.34-.38.23-.8.24-1.18,0-1.56-.07-3.13.06-4.68.35-4.15,1.84-7.75,5.32-10.3a13.65,13.65,0,0,1,6-2.39,28.07,28.07,0,0,1,5-.25c.35,0,.76-.09.89.42a1.05,1.05,0,0,1,1.32-.32c-.35,0-.73,0-.85.44l.6.52c-.21.05-.47,0-.63.21s-.15.58.14.82c.6,0,.61-.45.63-.88C71,21.64,71,21.53,70.69,20.9ZM53.88,74.05c-.24-.34-.51-.63-1-.33.1.49.49.45.83.48a1,1,0,0,0,.72.33.44.44,0,0,0,0-.63C54.19,73.79,54,73.94,53.88,74.05Zm1.55-26.18c-.3.06-.6.13-.61.54.21.24.41.47.73.12.49-.06.57-.39.57-.78C55.82,47.64,55.6,47.64,55.43,47.87ZM53.87,65.15c-.22-.16,0-.46-.19-.63a.46.46,0,0,0-.54.1c.17.28,0,.68.34.93l-.13.37a1.85,1.85,0,0,0,1.38-.1C54.13,65.72,54.41,65.1,53.87,65.15ZM65.41,33.49c-.16-.67-.74-.5-1.23-.69-.08.65-.33,1.23.29,1.85.2-.48.16-1.07.79-1,.06.29-.3.49-.15.84.68.53.82,1.6,1.69,2,.49-.26.61-.66.77-1.2a1.4,1.4,0,0,1-1.32-.15C66.45,34.62,66.28,34.31,65.41,33.49Zm-.56,47.83c.44-.19.32-.5.12-.76a.69.69,0,0,0-1-.16c-.26.17-.43.44-.79.42-.11,0-.15,0-.14-.09.21-.14.53-.19.49-.55-.17-.19-.49-.05-.69-.4a1,1,0,0,0-.54-1c-.56.51-.12,1.3-.57,1.85l.4.38c-.21.36-.6-.06-.85.2.14.37.07.74.6,1,1,.5,1,.66.59,1.8a1.75,1.75,0,0,0,0,.34c1.24,0,.38.77.42,1.24l.83.11c.53-.52.34-1.28.69-1.83a.55.55,0,0,0,.82-.52c0-.44.32-.65.46-1-.63,0-.55-.7-.89-1ZM60.11,45.44c0-.92,1.1-.35,1.17-1.18-.37-.16-.4-.65-.64-.85s-.52,0-.65.13a.78.78,0,0,0-.21.4A1.83,1.83,0,0,0,60.11,45.44Zm5.67,22.7a1.89,1.89,0,0,1-.37,1.36c.25.49.72.24.84.35.29.28-.15.65.43.66.33-.68,0-1.39,0-2.12Zm-4.69-4.6a5.72,5.72,0,0,0-1.89-2.38c.3,0,.48-.13.38-.35-.21-.47-.6-.35-1-.22-.11.66.36.94.76,1.33s.88.72.82,1.39Zm-6.86-4.13c-.85,0-.74.81-1.38,1.08.64.23.85.68,1.18,1C54.9,60.82,54.07,60.15,54.23,59.41Zm3,25.58a4.65,4.65,0,0,1-.35-1.28,1.05,1.05,0,0,0-.4-.73.36.36,0,0,0-.45.14l.38,1L56,85.14C56.41,85.13,56.78,85.64,57.21,85ZM47.34,51.27c-.46-.39,0-.9-.34-1.37-.6.65-.31-.71-.85-.37-.39.73.54,1.26.17,2ZM57.69,35.06c-.22-.12-.28-.34-.46-.22s-.22.4-.55.21-.62,0-.71.35.17.49.45.58A2.49,2.49,0,0,0,57.69,35.06ZM66,37.82c-.46-.62-.83-1.33-1.79-1.08a.63.63,0,0,0,.51.53c.32.1.06.54.42.65A1.63,1.63,0,0,0,66,37.82Zm0,34.76c.17-.56-.1-1.12.44-1.37.1.09.17.28.36.12a.47.47,0,0,0-.11-.56c-.48-.2-.82.24-1.37.26C65.78,71.48,65.23,72.14,66,72.58Zm-3-1.43c.24,0,.18.46.48.17a.92.92,0,0,0-.69-1.24,1.13,1.13,0,0,0-.22,1.34C62.84,71.56,62.91,71.4,62.93,71.15ZM55.3,74.63c-.57.56-1,.83-1.22,1.31a.59.59,0,0,0,.83.31C55.29,75.86,55.19,75.37,55.3,74.63ZM73.93,23.3c-.47-.63-.94-.17-1.42-.14a7.51,7.51,0,0,1,1,1.11A2,2,0,0,0,73.93,23.3Zm-18,33.52a.49.49,0,0,0-.09.69c1,.07,1.4,0,1.58-.22C56.92,56.94,56.35,57,55.89,56.82ZM57.34,68c.21.71.49,1.15,1.27,1-.79-.3.09-1.33-.73-1.62C57.65,67.55,57.85,68,57.34,68Zm-3.89,2.32c0,.31,0,.65-.35.89.4.1.71.33,1.12.28a1,1,0,0,0,0-.84A1.06,1.06,0,0,0,53.45,70.29ZM58.09,58.6a1,1,0,0,0,.31-1.46.66.66,0,0,0-.72.35C57.91,57.77,57.73,58.19,58.09,58.6Zm5.27-8.76c.07-1.06.07-1.06-1-1.41.3.42.18.81.34,1.14l.23.12A4,4,0,0,0,63.36,49.84Zm-2.7-9.3c-.82.45-.84.48-.53,1.21a1.91,1.91,0,0,1,.88-.43C61.11,41,61,40.78,60.66,40.54ZM49,46a.68.68,0,0,0-.16.88c.27.54,1,.06,1.28.71.14-1-.54-.85-.87-1C49,46.4,49.37,46.16,49,46Zm16.7,34.35c.95-.18.95-.18.67-1.05C66,79.58,65.33,79.53,65.65,80.37ZM61.22,69.56a1.4,1.4,0,0,1,0-1.15c-.47-.17-.72,0-.89.29C60.48,69.07,60.51,69.55,61.22,69.56Zm-1.45,9a1.56,1.56,0,0,0-.65-.94,1.64,1.64,0,0,0-.08.82.53.53,0,0,0,.17.43C59.43,79,59.59,78.87,59.77,78.58Zm4.46-30.86c-.45,0-.59-.31-.92-.26s-.51.31-.54.69C63.26,48.37,63.67,48.21,64.23,47.72Zm-5.77-18.9A2.72,2.72,0,0,0,57.6,28l-.37.71C57.57,28.89,57.88,29.23,58.46,28.82Zm2.6,10.38c-.39-.57-.39-.57-.94-.5.13.19-.17.44.17.66a2.35,2.35,0,0,0,.38,0A2.68,2.68,0,0,0,61.06,39.2Zm.84,34.72c.84.57.94.57,1.68,0A3.28,3.28,0,0,0,61.9,73.92Zm-2-40A.78.78,0,0,0,60.16,35c.06,0,.15,0,.27,0l.07-.71C60.14,34.4,60.2,33.87,59.85,33.9ZM63,56.63c-.47-.86-1-.3-1.5-.48C61.87,56.85,62.35,56.61,63,56.63Zm1.35,21.05c-.36.47-.63.77-.36,1.18a.45.45,0,0,0,.58,0ZM62.9,67.44c-.33,0-.71-.29-1,.24.28.34.63.27.89.38A.66.66,0,0,0,62.9,67.44Zm-4.64-1c.4-1.18.4-1.18-.56-1.13Zm11-34.54c-.28-.45-.65-.26-.92-.39s-.34,0-.32.31C68.38,31.8,68.7,32.34,69.23,31.91ZM65.71,40l-.6.86a.81.81,0,0,0,.64.27A1.23,1.23,0,0,0,65.71,40Zm-8.82,9.27c-.25-.4.33-.88-.1-1.28C56.44,48.48,56.12,48.92,56.89,49.29ZM55.11,53c.26,0,.5.11.62-.22-.07-.36-.43-.42-.65-.67A.84.84,0,0,0,55.11,53Zm4.35,26.17a1.08,1.08,0,0,0-.84.37s0,.14,0,.23h.9A.61.61,0,0,0,59.46,79.16ZM53.87,57.64a1.77,1.77,0,0,0,0,1.28C54.47,58.48,54.42,58.07,53.87,57.64ZM64.21,75.32a.51.51,0,0,0-.55.61.49.49,0,0,0,.7,0C64.4,75.72,64.46,75.5,64.21,75.32Zm-7.87-.65c.16-.43.5-.61.52-1C56.06,73.73,56,73.91,56.34,74.67Zm7.51-46.29c-.13-.23-.27-.41-.58-.32-.2.27-.22.55.06,1C63.4,28.67,63.72,28.63,63.85,28.38ZM69.6,33c-.36.19-.93-.21-1.27.61C68.88,33.31,69.36,33.54,69.6,33Zm-10,9.68c0-.32.34-.61.06-.93C59.23,42.08,59.23,42.08,59.64,42.67Zm2,17.2c.84-.53.84-.53.65-1.27Zm.56,6.75a1.88,1.88,0,0,0,.9-.29.49.49,0,0,0-.55-.38A.62.62,0,0,0,62.22,66.62ZM54.06,80.29c-.25-.43-.51-.57-.93-.32.13.27.25.54.68.6ZM67.42,25.75c-.24.11-.68,0-.64.5C67.23,26.46,67.41,26.24,67.42,25.75ZM64.93,31.6c.25-.28.47-.47.38-.77A.25.25,0,0,0,65,30.7C64.72,30.93,64.77,31.22,64.93,31.6Zm-8.4,49.09c.56.34.56.34,1-.07A1.12,1.12,0,0,0,56.53,80.69Zm9.72-2.34c-.26.39-.38.64.13.84C66.58,78.91,66.65,78.69,66.25,78.35Zm-7.94-5.94a1.31,1.31,0,0,0,0-1.13C57.85,71.68,57.84,72,58.31,72.41Z"/><path class="cls-1" d="M89.57,80.13v.41c.51.13,1.13.14,1.27.77.38.1.53-.23.75-.28.41.13.48.55.75.71.65-.2.2-.66.26-1a1.13,1.13,0,0,1,.9.57c.73-.67,1,.12,1.53.52-.12-.51.47-.75.29-1.22h0c.62.21,1-.24,1.54-.5l.17.61c-.06.34-.42.28-.55.6a2,2,0,0,1,0,2.06l.43.36a16,16,0,0,1-2.51,2.64l0,0c.15-1-.87-1-1.38-1.42.2-.33.39,0,.62-.12,0-.66.74-1.35,0-2-.34,0-.46.3-.6.62-1-.66-2.07.26-3.19-.09.06-.54-.32-.88-.55-1.27-.94-.12-.32.71-.65.94h0a1.18,1.18,0,0,0-.42-.76,1.49,1.49,0,0,1-1.4.35c0-.4.38-.54.64-.78.38-.07.64.5,1.13.17.33-.31-.09-.67-.11-.92.2-.65.83-.57,1.13-.93Zm5.77,3.72c-.4-.36.11-1.22-.86-1.34a1.45,1.45,0,0,0,0,1.53C94.74,84.32,95,84.25,95.34,83.85Z"/><path class="cls-1" d="M99.4,76v-.17l.77-.29c.29.24,0,.43,0,.6.23.67.91.62,1.35.91a3.24,3.24,0,0,1-.7,1.47c-.28.16-.73-.27-.87.3,0-.33,0-.68-.38-.81-.16,0-.36.16-.33.24.29.76-.29,1.55.14,2.33a3.23,3.23,0,0,1-2,1.88c.75-.77.62-1.66.92-2.38-.46-.49-.77-1.08-1.48-1.16h0c.51-.41-.1-.65-.16-1,.15-.34,1-.6.05-1-.35-.17-.16-.93-.78-1-.33-.34-.57-.87-1.53-.38.9,0,.4,1,1.14,1-.11.7-.93,1.07-.77,1.8-.27.15-.26,0-.34-.1a1.2,1.2,0,0,0-.29-.09,11.27,11.27,0,0,0-.54-2.68,2.9,2.9,0,0,0-.21,2.07l-.89-1.13,2.41-3.56c.26.09.39.43.71.26h0c-.15.27-.51.4-.5.76a.54.54,0,0,0,.39.44c.6.08.86.49,1.13,1a3.65,3.65,0,0,1,.66,2c0,.3.25.48.62.44l.31-.58c.4-.16.9.1,1.16-.4.23.24-.23.76.49.72a1.88,1.88,0,0,0,.06-1.22C99.84,76,99.6,76,99.4,76Z"/><path class="cls-1" d="M103.24,70.62l.41.09c.18-.3.46-.56.33-1-.22-.18-.63-.07-.74-.48.74-.69,1.79-.76,2.66-1.25-.24.83-1.35.44-1.62,1.22-.24.35-.07.72.06,1.06-.07.3-.4.43-.39.68,0,.43.45.48.59.78a6.89,6.89,0,0,1-1.47,2.59c-.23.19-.29-.25-.5-.12-.15.28-.13.33.31.79l-.5.71c-.46-.1-.14-.58-.42-.8l-.78.21a.45.45,0,0,1-.24-.51c.13-.33.71-.1.84-.73a.72.72,0,0,1-.33-.2,1.34,1.34,0,0,0,.29-1.89c.55.2,1,.36,1-.39A.8.8,0,0,1,103.24,70.62Z"/><path class="cls-1" d="M86.93,84.43c.49-.2.93-.64,1.43-.19.33-.14.23-.67.69-.54.24.19-.15.46.11.66a1.84,1.84,0,0,1,.84,0l.2-.44c.54.21.53,1,1.36,1-.39.28-.76,0-1,.36a3.83,3.83,0,0,0,.8,1.12c.08.35,0,.72.18,1.07-.38.36-.71.58-1.07.06-.08-.26.2-.34.22-.57a2.64,2.64,0,0,1-1.21-1.54c-.43-.08-.83-.21-1.1.06s-.57,0-.85,0-.16.45-.57.42c.48-.51.08-1-.06-1.42Z"/><path class="cls-1" d="M89.57,80.12a.68.68,0,0,1,.58-.28c.33,0,.69.26,1.06-.08-.31-.27-.74-.47-.67-1.1L92,77.17c.42.61.32,1.53,1.4,1.65-.74.46-1.71.39-1.75,1.42a4.32,4.32,0,0,1-2-.11Z"/><path class="cls-1" d="M98.32,70.73c.84-.17.65-1.47,1.66-1.31.33.3,0,.55,0,.83-.48-.16-.69.34-1.26.34.37.49.69.82.65,1.33.71-.41.71-.41,1.3.83-1.35.36-1.79.12-2-1.13C98.71,71.31,98.5,71.14,98.32,70.73Z"/><path class="cls-1" d="M94.37,80.12c-.58-.11-.34-.69-.59-1a3.79,3.79,0,0,0,.94.52A3.44,3.44,0,0,1,96,78.54c.34,0,.45.4.76.37h0c-.07.9-.83,1-1.44,1.2h0c0-.16.07-.31-.16-.46-.17.29-.69,0-.79.46Z"/><path class="cls-1" d="M86.69,90.92c-.32,0-.43.32-.72.38l-1.44-.62h0c.47-.21.29-.83.72-1.09l.39.2c.2.33.57.18.84.3s.22.54.21.84Z"/><path class="cls-1" d="M94.37,86.36a11.84,11.84,0,0,1-1.46,1.46c-.41-.29-.11-.66-.26-.93s-.52,0-.53-.36c.48-.35.9.25,1.36.08.24-.08.19-.32.28-.49l.63.26Z"/><path class="cls-1" d="M89.82,89.68l-1.12.12c-.23-.81.19-1.53.58-2.45,0,.88-.22,1.7.53,2.21Z"/><path class="cls-1" d="M106.69,62.85c-.33-.07-.23-.5-.52-.59.27-.26.41-.77,1-.45A1.82,1.82,0,0,1,106.69,62.85Z"/><path class="cls-1" d="M86.69,90.92c.4.22.41,1,1.17.73a1.62,1.62,0,0,1-1,.61c-.36-.41-.15-.9-.22-1.34Z"/><path class="cls-1" d="M88.85,87.08c-.43.26-.75.13-1.14.22l.35-.58C88.31,86.79,88.62,86.73,88.85,87.08Z"/><path class="cls-1" d="M56.27,97.47c.15-.37.34-.56.7-.43.13.09.16.24.1.31C56.89,97.6,56.68,97.82,56.27,97.47Z"/><path class="cls-1" d="M101.27,69.46c-.2-.21-.69-.15-.55-.65a.38.38,0,0,1,.6,0A.84.84,0,0,1,101.27,69.46Z"/><path class="cls-1" d="M95.33,80.12v.47h0c-.69.19-.91.08-.95-.48h0c.31.39.63.07,1,0Z"/><path class="cls-1" d="M88.61,83c-.27.3-.53.62-1,.13l1-.14Z"/><path class="cls-1" d="M92.5,85.24c0,.38-.12.69-.69.34Z"/><path class="cls-1" d="M66.56,74.11l.43-.44c.29.24.21.52.09.8C66.8,74.49,66.68,74.3,66.56,74.11Z"/><path class="cls-1" d="M89.82,89.68v-.12h.59C90.21,90,90.21,90,89.82,89.68Z"/><path class="cls-1" d="M19.49,31.88l.46-1c.28.12.3.36.39.54-.12.46-.53.39-.86.47Z"/><path class="cls-1" d="M34.37,15.07c.12-.31,0-.8.65-.85l-.65.86Z"/><path class="cls-1" d="M64.84,81.33c-.41.22-.61,1-1.38.44.43-.35.74-.85,1.39-.45Z"/></g></svg>