<svg xmlns="http://www.w3.org/2000/svg" viewBox="0 0 122.97 105.51"><defs><style>.cls-1{fill:#e91a83;}</style></defs><g id="OBJECTS"><path class="cls-1" d="M95.7,85a35.77,35.77,0,0,1-5.54,5.11,45.29,45.29,0,0,1-8.58,5.24A3,3,0,0,1,80,94.5c-.33.46.3.75-.09,1.17-.3.1-.76-.18-1.14.11,0,.27.33.2.37.48s-.32.25-.5.32a49.23,49.23,0,0,1-6.75,2.08c-.49.11-.92.18-1.29-.26l-.28.54a30.2,30.2,0,0,1-5.68.77,44.68,44.68,0,0,1-10.27-.46c-1.42-.27-2.86-.42-4.26-.82s-2.85-.76-4.22-1.31c-.39-.15-.75-.26-.86-.71a2.51,2.51,0,0,1-1.19,0,48.23,48.23,0,0,1-9.42-5.18.59.59,0,0,1-.13-.18c.06-.1.22-.14.11-.32s-.69,0-1-.29c.06-.94-1.1-.73-1.42-1.39-1.1-.2-1.66-1.14-2.39-1.82L28.29,86c-.86-.76-.93-1.11-.4-2.15.15-.28.15-.43-.13-.57s-.29.33-.41.5a1.27,1.27,0,0,1-.6.6,40.65,40.65,0,0,1-4.38-5.66c.29-.52,1.23-.5,1-1.3.38-.25.82,0,1.07-.36,0-.32.2-.71-.27-.82-.27.14,0,.44-.29.53s-.28-.33-.47-.44c-.84.22-.84.22-1.32,1.07a2.16,2.16,0,0,1,.1,1.18,1.92,1.92,0,0,1-.37-1.21,2.05,2.05,0,0,1-1.19-2.14c-.27-.15-.58-.21-.76-.57a48,48,0,0,1-2.59-6A2.42,2.42,0,0,0,17.75,67c-.5.11-1.09.31-1.14-.54,0-.29.52-.28.42-.64s-.57-.4-.91-.69a7.15,7.15,0,0,0-.56-2.6c-.24-.92-.35-1.88-.54-2.82-.07-.33-.13-.63.24-.81-.62-1-.86-2.93-.76-6.28.19-.14.38-.27.55-.42s0-.15.07-.21c0-.35-.4-.23-.57-.52.39-.42.07-.94.07-1.46a25.79,25.79,0,0,1,.4-3.92c0-.23.08-.47.1-.7a2.08,2.08,0,0,1,.72-1.69,7.72,7.72,0,0,1,.49-3.7c.28-.49,1.43,0,1.17-1.09-.31-.07-.51.35-.88,0,0-.27.25-.59.32-.94l.71-.19c.05-.38-.41-.52-.33-.88s.23-.27.39-.34c-.08-1,.9-3.13,2-5.21.64.14.81-.84,1.56-.54.06-.65.51-1.17,0-1.73.32-.38.18-.9.44-1.31a49.31,49.31,0,0,1,3.74-5.12c.22-.27.43-.61.87-.47.43-1.41,4-4.92,5.17-5.11.31-.21.13-.61.48-.88a47.1,47.1,0,0,1,11.8-6.93c1.18-.46,2.38-.91,3.57-1.35a8,8,0,0,1,2-.32c.54-.06.63.23.88.78.13.09.46-.06.76-.07.32-.4.12-.83.29-1.29a2.67,2.67,0,0,1,2.41-.24c.54-.72,1.31-.63,2.07-.51.22.41-.17.62-.15,1-.26-.29-.28-.73-.74-.64s-.06.49,0,.73l-.57.28c0,.07,0,.17,0,.2A1.91,1.91,0,0,1,55,9.54c0,.31.08.61.56.78,0-.83,1-1.26.79-2.06s.47-1.4-.18-2C57,6,57,6,57.68,6.38a1,1,0,0,1,.9-.39c.25,0,.59.12.68-.28h1.68l.15,1.42c.34,0,.39-.25.54-.33a1.84,1.84,0,0,0,1.44,0c-.4-.38-.85-.6-.93-1.11h1.92A1.8,1.8,0,0,0,65.21,6a26.55,26.55,0,0,1,3.2.36l.29.52c.86-.78,1.71,0,2.4,0,1,.47.3,2,1.57,2.1.62-.77.62-.77-.09-1.29a1,1,0,0,1,1.17-.19c.77.28,1.57.49,2.34.8s1.42.38,2.11.65c.92.36,1.82.77,2.74,1.13a1.28,1.28,0,0,1,.72.76c.62-.05,1.27-.17,1.45.71a2.11,2.11,0,0,1,1.2.43c0,.88.07.91,1.27.71.44.39.21.87.23,1.28-.3.24-.48-.13-.78,0a.5.5,0,0,0-.31.53c-.26.26-.71,0-1,.35.13.53.67.53,1.06.75.31-.17.17-.76.66-.71s.33.55.8.5c.54-.53.4-1.32.52-2.15a19.16,19.16,0,0,0,2.06,1.36c.74.36.94,1.24,1.82,1.51a3,3,0,0,1,1.77,1.74c.11.06.55,0,.84.31l-.6,1c-.17,0-.24,0-.61.26a2.33,2.33,0,0,1,1.33.88,1.63,1.63,0,0,0,.31-1.68c1,1,2,2,2.89,3s1.76,2.07,2.59,3.15a11.44,11.44,0,0,1,2.1,3.48c.39,1.23,1.86,1.83,1.91,3.28l-.43.31c.15.54.67.34,1.09.58.33,1.17,1.55,2.16,1,3.75a1.53,1.53,0,0,1,1,1.09,47.86,47.86,0,0,1,2.33,10.23,56.23,56.23,0,0,1,.24,7.89,6.54,6.54,0,0,0-.11,1.61l-1.58.22c.15.86.67.08.92.32.1.29,0,.59.15.9.58,1.08.24,1.56-1,1.49.22.63.22.63,1,.55,0,.4-.45.53-.55.86.39.57.39.57,0,2.06-.27.33-.85.24-1,.73h0c-.23-.05-.6-.15-.64.09-.08.49-.53.23-.75.46.09.49.82.52.7,1.07.24,0,.38-.14.53,0,.4,1.16.4,1.16-.23,2.26-.45-.16-.1-.46-.13-.69a1.5,1.5,0,0,0-1.57-.83c-.15-.4.31-.3.36-.53a1.29,1.29,0,0,0-.4-.76,2.21,2.21,0,0,0-1.45.21A13,13,0,0,0,104,67.14c.07.1.44.46.72,0,.15.64.17,1.32,1,1.32a10.43,10.43,0,0,1-.71,2c-.59,0-1.07,0-1.07-.7-.8-.06-.61,1.17-1.39,1-.18.17-.07.3,0,.34a.57.57,0,0,1,.23.81.7.7,0,0,1-.76.44c-.39-.13-.76.06-1.12,0l-.27-.55c-.29.08-.15.45-.45.57-.47.08-.63-.5-1-.55-.11-.23.2-.45-.12-.56a1.29,1.29,0,0,0-.21.07c-.22.11.08.78-.55.5-.07,0-.27.25-.42.39,0,.65.44.88,1,1l.58-.51c.23.08.51.07.49.49.92-.62,1.76-.13,2.66-.07l.37-.4.12.45h0a.49.49,0,0,0-.45.33c.06.33.41.46.55.77a2.72,2.72,0,0,1-.51,1,10.33,10.33,0,0,0-.33-1.08.37.37,0,0,0-.64-.17c-.24-.32-.56-.17-1-.18.41.56,0,1,0,1.49-.52,0-.59.38-.73.69.17.37.38,0,.67.19-.43.76-.48,1.66-.89,2.46,0,.31.35.42.4.7-.08.53-.58.59-.91.85s-.7.38-.89.74c-.32.12-.62,0-.87-.07-.13.16-.15.29,0,.36a2,2,0,0,1,.81.78,19.12,19.12,0,0,1-2.51,2.83c-.08-.22.26-.4,0-.71-.24.13-.55-.05-.82.21C95,84.78,95.28,85,95.7,85ZM18.06,64.81a.77.77,0,0,0,.12-.94.47.47,0,0,0-.58,0,1.25,1.25,0,0,0,.31.84c-.15.42-.75.64-.55,1.36C17.67,65.57,18.41,65.53,18.06,64.81ZM92.69,21.47a3.1,3.1,0,0,0-1-.59.48.48,0,0,0,.07.68l.75.06c.45.46.86,0,1.3,0a1.17,1.17,0,0,0-.4-.77C93.19,21.06,93.15,21.54,92.69,21.47ZM43,92.89a1.75,1.75,0,0,1,1.14.12,1.29,1.29,0,0,0-.4-.91,1.22,1.22,0,0,0-.71,0l-.18.64a1.69,1.69,0,0,0-.63.67l.37.92C42.8,93.75,43.55,93.51,43,92.89Zm11.61-82c-.31-.38.36-.49.23-.82-.73,0-.73,0-1,1.12.32.09.62.16.88-.13l.29.36a.69.69,0,0,0,.3-.7l-.27-.21A.85.85,0,0,0,54.63,10.91ZM30.14,79c.05.3-.33.7.2.89.28.1.43-.1.56-.31-.08-.34-.14-.7-.61-.72,0-.22,0-.48-.2-.64-.76.12-.76.12-1.14.89l-.38.09-.07,1.25.68.61.52-.27a4,4,0,0,0-.61-1.54A1.32,1.32,0,0,1,30.14,79Zm65-.23c.51.31-.28.81.27,1.22.12-.65.86-1,.55-1.74a.71.71,0,0,0-.94.36c-.17-.37-.65-.42-.82-.87a2.52,2.52,0,0,0-.13.4,2.9,2.9,0,0,0,0,.43,1.26,1.26,0,0,0,.76.38C94.9,78.92,95,78.8,95.09,78.74Zm-78-31.93a.69.69,0,0,0,.35-.46c-.27-.5-.67-.41-1.22-.26l.47.33c-.36.38-.53.78-.09,1.24l.36-.19c.24,0,.17.35.44.44.37-.15.8-.29.5-.88ZM97.33,75.13c.37.27.29.74.5,1.12a4.49,4.49,0,0,0,.7-2.59.88.88,0,0,0-.57-.18c-.26.38,0,.87-.23,1.26-.14-.65-.56-.42-1-.28C97.09,74.58,97.09,75,97.33,75.13ZM82.46,86.53C82,87.79,82,87.79,81,88c.43.5,1,.21,1.43.31-.33.87.41,1.71-.07,2.63a5.59,5.59,0,0,1,1.74-.24c0,.19,0,.4.14.57s.42-.11.71-.3c-.33-.07-.07-.52-.49-.53l-.22.12a16.9,16.9,0,0,1-1.23-2c0-.16-.27-.26-.42-.39.23-.25.64,0,.82-.26s0-.41-.09-.58,0-.39-.19-.52l-.56-.19a.73.73,0,0,0,.37-.44c-.15-.44-.51-.42-.88-.4.3-.22.64-.38.94-.6a6.81,6.81,0,0,1,2.66-1.66.67.67,0,0,0,.63-.68c0-.45.57-.83,1.17-.79,0,.22,0,.49.22.65s.52.15.74-.09c0-.51-.7-.27-.81-.69a.6.6,0,0,1,.25-.63,33.41,33.41,0,0,0,4-4.37c.2-.25.46-.21.67-.34A4.76,4.76,0,0,1,94,74.25c.92.27,0,.86.39,1.3a3.9,3.9,0,0,1,1.06-.84c.09-.51-.42-.57-.44-1a3.13,3.13,0,0,1,.89-2.6.76.76,0,0,0,.34-.57,6.7,6.7,0,0,1,.78-2c.13-.37.43-.43.77-.4a1.42,1.42,0,0,0,1.51.64c.14-.87-.35-1.59-.09-2.38l-.25,0L98.45,68,98,68c.1-.41-.29-.73-.21-1.22.69-.33.1-1.47,1.06-1.66-.28-.72-.25-.87.48-2.86.27-.07.24.31.58.31l.91-.36-1.39-.72a14,14,0,0,0,.46-2.06c0-.57-.1-1.24.66-1.59.22-.1,0-.48-.16-.69.15-.33.64-.18.82-.5-.27-.24-.63-.06-.87-.45A40.38,40.38,0,0,0,97.9,39.1a39.29,39.29,0,0,0-9.64-14.51c.27-.65-.09-1.23-.12-2-.51.43-.45.92-.51,1.4-.47-.39-.85-.74-1.26-1.05a1.46,1.46,0,0,1-.56-1.79c.1-.27.24-.5,0-.75a1.91,1.91,0,0,0-1,1.16c-1.8-1.12-3.43-2.43-5.3-3.36,0,0,0-.07,0-.11.2-.2.58,0,.75-.38-.6-.31-.48-.86-.31-1.4L79,16.05l-.81.6c0,.47.32.53.62.64a1.58,1.58,0,0,1-.76.33l-2.28-1,.72-.15a1.49,1.49,0,0,1-.09-1.16,6.1,6.1,0,0,0,.26-1.64c.13-.61-.14-1.13-.56-1.09a1.53,1.53,0,0,0-1.18.48,1.45,1.45,0,0,0-.16,1.24,3.64,3.64,0,0,1,0,1.91l-4.23-1.26c.1-.31-.1-.47-.38-.57a1.73,1.73,0,0,1-1.46.2,55.63,55.63,0,0,0-7.39-.69,16.42,16.42,0,0,1-2.9.1c-.29-.48-.68-.76-1.23-.55-.23.32.2.43,0,.74-1,.12-2,.23-3,.38-.53.07-1.09-.1-1.56.35-.29.28-.67.11-1-.14l-.08-.55a.8.8,0,0,0-.89,0,.48.48,0,0,0,.08.67c.22.06.51-.16.74.06,0,.16,0,.31-.22.37a6.84,6.84,0,0,1-1.84.48c-.28,0-.57-.08-.78.18-.49.64-1.15.51-1.83.3a1.08,1.08,0,0,1-.74.91,7.22,7.22,0,0,0-1,.38,44,44,0,0,0-10.41,7.17c-1.74,1.65-3.09,3.64-4.84,5.28-.72,1.73-2,3.15-2.77,4.84-.13.27-.21.61-.54.75-.69-.27-.27-1.1-.76-1.46-.62.88-.18,1.51.52,2-.1.4-.6.14-.64.6.29.31.2.67,0,1.11a35.92,35.92,0,0,0-2.34,7.73,36.39,36.39,0,0,0-.58,4.39A37.07,37.07,0,0,0,23,58c.26,1.43.07,2.93.67,4.31a5.63,5.63,0,0,1,.34.89c.17.65-.16,1.11-.81,1a1.8,1.8,0,0,0-1.17.29c.54.22.66.86,1.14,1.06.57,0,.7-.78,1.36-.61.17.85-.76,1.07-1,1.72.13.24.11.67.62.71.19-.39,0-1.14.91-1,.49,1.78,1.68,3.28,2.08,5.13a.64.64,0,0,0,.4.55c.33.11.43.44.55.73s-.35.35-.2.62c.8.14,1.19.62,1.3,1.59-.48-.34-.89-.59-1.33-.25a2.39,2.39,0,0,0,1.21,1,1.42,1.42,0,0,0,.1,1.66c.39-.25.67.1.93.31.37-.48-.21-1,.34-1.42l2.08,2.53-.26,1.33c-.25.39-.83,0-.87.59.14.39.63.33.8.79s.7.39,1.08,0c-.38-.64.19-1,.47-1.75l2.36,2.82c-.07.08-.74,0-.33.62.18.25.64,0,.76.35-.16.19-.43.09-.56.38.45.46-.15,1.39.7,1.79a1.59,1.59,0,0,0,.93-1.17c-.22-.37-.61-.69-.18-1.19l1.44,1.05a36.08,36.08,0,0,0,8,4.48,38.33,38.33,0,0,0,11.25,2.66,32.67,32.67,0,0,0,6.92,0,1.84,1.84,0,0,1,1.26.13,9.07,9.07,0,0,1,4.56-.67c.11-.71.75-.63,1.25-.7a3.9,3.9,0,0,0,1.1-.34,15.94,15.94,0,0,1,3.59-1.3c.7-.12,1.13-.75,1.84-.68a13.5,13.5,0,0,1,3.34-2ZM35.65,20.65c-.1.19-.31.41-.07.6a.48.48,0,0,0,.71-.09c.16-.25.56,0,.73-.4l-.36-.55c.47-.56.47-.56-.27-1.25l-1.12.79C35.12,20.17,35.33,20.43,35.65,20.65Zm27.13-8.4c0,.58.1,1.08.77,1.29l.22-1-.84-.4c0-.19,0-.4.15-.54.38,0,.34.49.66.53.33-.25.3-.7.57-1,.19.19.26.47.6.41l.3-.27c-.34-.89-1.07-1.41-1.57-1.1,0,.19.2.4.06.62a7.42,7.42,0,0,0-1.77.86Zm20.55,4.66c-.23-.4.15-.84-.1-1.27-.61-.21-.91.33-1.54.55.64.32.84,1,1.51.87a6.13,6.13,0,0,0-.88,1.27l1.56,1.48c-.18-.75,1.21-.74.75-1.57-.31,0-.56.24-.85,0C83.78,17.77,83.93,17.22,83.33,16.91ZM26.08,81.46l-.46.14c.42.38-.23,1,.46,1.34.48-.27.64-.76,1-1a.71.71,0,0,0-.62-.45c.12-.33.55,0,.71-.41-.34-.67.1-1.11.68-1.49a1.17,1.17,0,0,0-1-.4c-.14,0-.11.48-.44.45-.61-.39-1.46-.57-1.68-.27,0,.2-.1.47.1.72s.69-.15.81.26.46.28.79.39c-.43.09-.71.36-1.1.13-.22-.12-.34.1-.32.34C25.27,81.53,25.73,81.24,26.08,81.46ZM21.29,69.69a1.86,1.86,0,0,1,.16,1.48c-.08.32-.12.51.12.69a.6.6,0,0,0,.77,0,1.56,1.56,0,0,0,.59-1c.41-.18.85,0,1.28-.29-.33-.11-.64-.34-.88-.28-.5.13-.65,0-.71-.44.14-.49.85-.34.9-1l-1.09-.07c-.27.24-.08.56-.33.7A1,1,0,0,0,21.29,69.69ZM46.82,11.82a2.7,2.7,0,0,0-2.1-.32c-.29.29.18.54,0,.76s-.43.08-.52.31c.17.36.23.85.7.82s.08-.48.33-.6c.28.16.42.49.78.55l.18-.4c.2-.32.53.16.63-.32,0-.3-.5-.19-.51-.52Zm5-1.51c-.89.08-1.07.66-1.15,1.22,0,.29.3.16.34.34a1.13,1.13,0,0,0,0,1.1c.42-.3,1-.15,1.4-.35,0-.29-.35-.3-.3-.55s.49-.29.4-.65C52,11.06,52,11.06,51.84,10.31ZM20,65.22c-.13.79-.74,1.34-.67,2.14.1,0,.21.16.31.15.4,0,.75-.29,1.12-.24A1.47,1.47,0,0,0,20.85,66,3.4,3.4,0,0,1,20,65.22ZM96.26,78.87c1.29.34,1.29.33,1.84-1.11-.16-.21-.29-.46-.6-.47-.45.52-.45.52-1.24.74C96.11,78.3,96.35,78.56,96.26,78.87ZM32.83,85v1.17c-.31.12-.61.19-.63.64a2.63,2.63,0,0,1,1.13-.07,2.19,2.19,0,0,0,.41-2.34ZM23,75.35a.85.85,0,0,0,.47-1.3c-.36-.56.14-.78.29-1.14-.85-.59-1,.29-1.5.56C22.85,74,22.35,74.86,23,75.35ZM40.37,93.58c-.15-.65-.37-1.15-.1-1.67l-1.65-.31.06,1.06ZM29.65,82.31c-.71-.33-1,.23-1.37.62-.06.46-.05.88.6,1.06.12-.6.66-.72,1.11-.88A1.24,1.24,0,0,0,29.65,82.31ZM58.35,9.72c.66-.4,1.43-.58,1.39-1.51a.62.62,0,0,0-.59-.36l-.83.6A2.21,2.21,0,0,0,58.35,9.72ZM50,8.56c-.17.64-1.07.68-1,1.44.4.5.87.3,1.3.25C50.59,9.54,50.59,9.54,50,8.56Zm23.2,86.1c.36.18.72.24.92,0s.8-.3.94-.82,0-.58-.22-.65c-.7,0-.3,1-1,.83-.14-.09,0-.45-.36-.35C73,93.91,73.12,94.29,73.2,94.66ZM62,11.19c.36-.47.48-1,1.09-1.27l-.84-.6-.87.3C62,10,61.23,10.83,62,11.19ZM47.54,9.76c-.39-.88-1.25,0-1.65-.68a.91.91,0,0,0,.08,1c.48-.23.71.34,1.11.47A1.52,1.52,0,0,0,47.54,9.76Zm38,6.76a2.79,2.79,0,0,1-1.65-.78,1.38,1.38,0,0,0,.64,1.7C85,17.28,85,16.86,85.58,16.52ZM66,12.12c.52.2.86.05,1-.41s-.1-1-.93-1.22C66.49,11.15,65.84,11.51,66,12.12ZM99.61,67.93c-.08.24.3.35.34.6-.18.1-.5.08-.34.44.66.08,1.17-.2,1.19-.69l-.33-.66C100.26,67.85,100,67.5,99.61,67.93ZM20,36.06c-.49-.27-.06-.83-.51-1.13a1.25,1.25,0,0,0-.77,1.12C19.09,36.66,19.48,36.15,20,36.06ZM102.87,67.7c-.09.43-.43,1,.43,1.36.14-.56-.27-1.14.15-1.58-.41-.3-.4-1.1-1.17-.75C102.34,67.14,102.76,67.29,102.87,67.7ZM21.06,64.11c-1.06-.21-1.06-.21-1.55.61l1.33.21C20.85,64.65,21.23,64.48,21.06,64.11ZM56.52,96a2.93,2.93,0,0,1,.35-1.14c0-.07-.07-.2-.12-.32-.32.24-.74.06-1.07.37.29.28,0,.76.36,1.07ZM87.68,16.84a2.09,2.09,0,0,0,1.1-1c-.41-.16-.59-.47-.94-.82C87.86,15.67,87.39,16.11,87.68,16.84ZM67,7a3.07,3.07,0,0,0,0,1.57,1.25,1.25,0,0,0,.86-1C67.7,7.12,67.39,7.06,67,7ZM93,27.07l.28-.88a3.16,3.16,0,0,0-1-.33c0,.33,0,.67-.32.9A3.39,3.39,0,0,0,93,27.07ZM18.15,60.64c.06-.33.46-.66.05-1.15-.55.06-.82.46-1.15.9C17.41,60.5,17.66,60.83,18.15,60.64ZM36.66,91.55c.2-.33,0-.61,0-.85.28-.08.4-.17.29-.45a.55.55,0,0,0-.67,0c0,.4-.47.76-.21,1.23A.51.51,0,0,0,36.66,91.55ZM98.88,74.74c.7-.1.18.86.86.81.15-.55.6-1.09,0-1.7A2.29,2.29,0,0,1,98.88,74.74ZM72.37,15.31c.54-.2.22-.66.56-.73s.29-.36.23-.63A2.43,2.43,0,0,0,72,14C71.76,14.58,72.51,14.74,72.37,15.31ZM22.67,65.94c-.31.31-.86,0-1.23.63.56-.14.77.33,1.18.38l.61-.37C23.16,66.32,23,66.17,22.67,65.94ZM75.64,12a1.59,1.59,0,0,0-1.25-.29c0,.39-.51.75,0,1.14ZM18.74,39.66c-.06.6-.62.22-.81.66l.69.65c.22-.32.73-.17.78-.75Zm.86-1c.68-.54.68-.54.24-1.43-.2.13-.46-.14-.66.11s.13.43.29.58S19.38,38.34,19.6,38.63Zm80-8.53a1.07,1.07,0,0,0-1.2-.6c.07.42-.08.82.36,1.18C98.86,30.32,99.31,30.5,99.56,30.1ZM88.2,18.87a2.74,2.74,0,0,1,.37-1.73.5.5,0,0,0-.76,0C87.83,17.63,87.55,18.21,88.2,18.87ZM76.06,94.18c.66,0,.32.83.83,1,.16-.07.36-.18.31-.31-.11-.32,0-.71-.33-1S76.31,93.78,76.06,94.18ZM69.47,8.73c.11-.56.61-1.17-.22-1.67A1.36,1.36,0,0,0,69.47,8.73ZM30,81.7c-.48-.39-.92-.65-1.58-.14C29,81.91,29.33,82.38,30,81.7ZM23.57,30.41a2,2,0,0,0,.13-1.13c-.62-.27-.75.15-.9.63C23,30.07,23.1,30.34,23.57,30.41ZM90.8,23.72c.62-.35.25-.66,0-1a.89.89,0,0,0-.76.67C90.29,23.53,90.48,23.75,90.8,23.72ZM38.13,86.79c-.31-.37-.23-.85-.58-1.12l-.58.57C37.21,86.6,37.44,87,38.13,86.79ZM31.82,85c-.55,0-.55,0-.8.6a2.09,2.09,0,0,0,.83.22A.78.78,0,0,0,31.82,85Zm-.29-.29a2.59,2.59,0,0,0-.3-1.15c-.45.32-.41.71-.2,1.15ZM69.47,10.54c.26-.39,0-.79.18-1.25-.72.27-.89.64-.66,1.23Zm-.2,1.89c-.18-.4,0-.8,0-1.28C68.37,11.76,68.37,11.89,69.27,12.43ZM89.71,24.9c.55.27.92.18,1.41-.41C90.5,24.38,90.08,24.22,89.71,24.9ZM63.8,94a.6.6,0,0,0,.59.57c.22-.26.53-.5.1-1C64.28,93.66,64,93.67,63.8,94ZM17,61.66c0-.26.33-.42.23-.74s-.47-.39-.91-.14C16.76,60.93,16.09,61.57,17,61.66Zm2.36,10.5c.22-.13.41-.27.35-.57-.27-.16-.5-.47-1-.31C18.67,71.77,19,72,19.31,72.16ZM73,10.27c-.43-.38.19-.88-.46-1.19-.11.28-.39.45-.34.8S72.46,10.29,73,10.27Zm-2.83,1.16c.49-.57.49-.57-.27-.93C69.7,10.91,69.74,11.22,70.18,11.43Zm7.5.76c.42,0,.39-.38.51-.64-.28-.11-.33-.47-.65-.44A1.69,1.69,0,0,0,77.68,12.19Zm3.16-.38.23,1.26c.45-.46.27-.93.47-1.25C81.32,11.64,81.14,11.64,80.84,11.81Zm10.21,7.45c-.54-.12-1.14-.61-1.54.28C90,19.29,90.57,19.57,91.05,19.26Zm4.29,9.25c.26,0,.49.11.65-.21a.76.76,0,0,0-.65-.68A.85.85,0,0,0,95.34,28.51Zm8.42,31c-.07.41-.4.69-.58,1.09l.71.27A1.84,1.84,0,0,0,103.76,59.53ZM71.24,93.71c0-.6.69-.95-.07-1.4C71,92.7,70.62,93,71.24,93.71ZM22.82,40.51c0,1,.09,1.11.61.92v-.66ZM101.4,69.79c.4,0,.25-.31.4-.42s.44-.21.29-.52C101.23,69,101.23,69,101.4,69.79ZM71.08,94.67c.65.09.65.09,1.1-.26a.49.49,0,0,0-.55-.39ZM66.8,13.89c.58-.49.58-.84,0-1.18A1.2,1.2,0,0,0,66.8,13.89ZM40.23,15.47a.67.67,0,0,0-.09-.87c-.17.21-.56.1-.56.51S40,15.43,40.23,15.47Zm-9.87,9c.41,0,.58-.22.57-.58a.43.43,0,0,0-.68,0A.54.54,0,0,0,30.36,24.43ZM72,92c.12.43.58.49.83.77C72.89,91.86,72.89,91.86,72,92Zm6.55-.1c.19-.3.6-.06.78-.44-.25-.33-.52-.47-.89-.19A.66.66,0,0,0,78.59,91.88ZM44.84,91.4c-.64-.79-.69-.81-1.23-.4A2.88,2.88,0,0,0,44.84,91.4ZM40,86.88c-.31.11-.62-.25-.9.07.19.31.37.63.79.6C40.12,87.39,40.13,87.21,40,86.88Zm49.46-3.8c-.63-.45-.63-.45-.92.29C88.88,83.37,89.22,83.6,89.49,83.08Zm1.38-2.83c.82-.66.88-1,.43-1.34C91,79.26,91.17,79.69,90.87,80.25Zm9.94-16.09c.8,0,.91-.17.73-.91A2.22,2.22,0,0,0,100.81,64.16Zm-.91,2A3,3,0,0,0,99.18,65C99.09,65.82,99.09,65.82,99.9,66.12ZM24.45,74.9c0,.29,0,.45.08.6.27-.16.58.26.87-.07l-.25-.53ZM58.74,7.68A2.71,2.71,0,0,0,59.8,6.55C59,6.51,58.86,7,58.74,7.68Zm-1.36,4.39a.92.92,0,0,0,.61.3.65.65,0,0,0,0-.84A.82.82,0,0,0,57.38,12.07Zm4.5,1.08c0-.34.42-.46.19-.91L61,12.53C61.49,12.65,61.55,13,61.88,13.15Zm-43,30.43c-.59-.18-.59-.18-1.05,0C18.08,44,18.36,44,18.86,43.58Zm3.22,6.73c-.18-.22-.46-.24-.74-.37-.08.43,0,.73.4.84A.52.52,0,0,0,22.08,50.31ZM71,95l.61.88a.52.52,0,0,0,.37-.39C71.72,95.35,71.63,94.92,71,95Zm4.31-4.89c-.33.36-.31.63,0,.89.09.06.15,0,.25-.12S75.78,90.42,75.3,90.14Zm1.73-.7c.34-.14.73-.1.7-.64C77.29,88.69,76.93,88.61,77,89.44ZM100.25,70c0,.37-.4.71-.09,1.16C100.47,70.8,100.82,70.46,100.25,70ZM59.35,10.51a.94.94,0,0,0,.06,1.09C59.47,11.27,60,10.93,59.35,10.51ZM47.68,12c.14.6.32.82.78.61C48.47,12.07,48.11,12.1,47.68,12Zm-4.21.55c-.53-.13-.72.06-.81.72C43,13,43.34,13,43.47,12.5Zm37,2.12c-.4.49-.4.49.09.85A.91.91,0,0,0,80.51,14.62ZM69.81,94.08c.32.52.61.6,1.1.16A1.47,1.47,0,0,0,69.81,94.08ZM21.17,31.38a1.74,1.74,0,0,0,.24,1.07C21.7,32,21.71,31.7,21.17,31.38Zm-2,11.41c.07-.3-.11-.45-.38-.58a1.14,1.14,0,0,0-.25.63A.44.44,0,0,0,19.17,42.79Zm3.15,3.1c-.61-.27-.61-.27-.9.08.19.1.36.31.6.22S22.18,46,22.32,45.89ZM21,49.42c.7.22.7.22,1-.33Zm.8,2.67c-.35.09-.56.25-.58.64C21.79,52.85,22,52.64,21.77,52.09Zm.72,5.38c.12-.25.18-.49-.17-.66-.34.12-.25.48-.41.7A.51.51,0,0,0,22.49,57.47Zm82.08,4.38a.76.76,0,0,0-.58-.66c-.16.09-.27.18-.26.37A1.12,1.12,0,0,0,104.57,61.85ZM41.32,87.79a2.26,2.26,0,0,0-1,.68C40.88,88.61,41.18,88.49,41.32,87.79Zm-7.17-7c-.11.4-.57.61-.14,1,.1-.06.24-.1.28-.18A.8.8,0,0,0,34.15,80.8Zm69.85-12c.38-.42.39-.43.26-.71,0-.07-.18-.09-.3-.15A.84.84,0,0,0,104,68.78Z"/><path class="cls-1" d="M101.68,74.18c-.06.35.29.5.35.77s-.47.25-.59.51C101.12,75,101.69,74.63,101.68,74.18Z"/><path class="cls-1" d="M103.92,72.91l-.2-.64c.19-.3.48-.39.91-.7-.29.57-.35,1-.74,1.32Z"/><path class="cls-1" d="M101.58,75.61c.28,0,.54.3.83,0a.63.63,0,0,1-.31.69C101.77,76.21,101.81,75.81,101.58,75.61Z"/><path class="cls-1" d="M20.5,30c0-.18.11-.31.29-.41a.42.42,0,0,1,0,.54C20.75,30.15,20.58,30.14,20.5,30Z"/><path class="cls-1" d="M103.19,73.14l.73-.23,0,0c0,.23,0,.47-.27.58a.75.75,0,0,1-.44-.32Z"/><path class="cls-1" d="M36.67,76a10.78,10.78,0,0,1-2.47-3.7c-.05-.62.78-.77.59-1.38,0-.06-.11-.1-.18-.17-.37-.08-.47.32-.76.49-.07-.16-.21-.31-.18-.43a2.94,2.94,0,0,0-.3-1.77c-.2-.49-.47-1,.15-1.49.22-.17.14-.51,0-.78-.23,0-.22.17-.31.28s-.06,0-.07,0c-.21-.33.06-.86.62-1.2l-.23-.49c.31,0,.59.28.9,0-.09-.26-.43-.49-.24-.85a.82.82,0,0,0-1,.14c-.13-.3-.19-.86,0-.86.57,0,.31-.71.8-.74.22,0,.17-.54.49-.65-.18-.5-.75-.14-1.08-.61a17.41,17.41,0,0,1-.31-2.35c0-2.68,0-5.36,0-8a2,2,0,0,1,0-.45c.2-.65.74-.48.91-.82-.1-.69-.59,0-.83-.27A1.26,1.26,0,0,1,33.1,49a23,23,0,0,0,0-3.52c.05-1.16-.06-2.33,0-3.48.12-1.66-.06-3.31,0-5A13.93,13.93,0,0,1,42,24.9,15.62,15.62,0,0,1,47.15,24H57.7a4.14,4.14,0,0,1,.5,0c.38.18.11.4.17.57s.33.16.52.1,0-.44.21-.65c.4,0,.84-.17,1.15.23,0,.43-.47.05-.5.37.59.51.67.47,1.18-.57a2,2,0,0,1,1.15,0c.37.18.12.64.42.83.28-.16.09-.54.34-.74a2.6,2.6,0,0,1,1.27-.15c1.56,0,3.12-.07,4.68,0,1.37.07,2.74,0,4.11,0s2.72,0,4.08,0a12.15,12.15,0,0,1,5.68,1.69,7.32,7.32,0,0,0,1.84,1.07c0,.83-1,1.51-.17,2.28-.12.25-.6,0-.59.52.27.25.63-.11.92.09A6.64,6.64,0,0,0,85,27.4a9.8,9.8,0,0,1,2.73,3.07,13.16,13.16,0,0,1,2.18,7.59,42.69,42.69,0,0,1-.1,4.66c-.06.5.11,1.08.1,1.64,0,3.49,0,7,0,10.49,0,1.38,0,2.76,0,4.14,0,.5,0,1-.4,1.23a4.2,4.2,0,0,1,.08,3.55c.49.54.31,1.29.27,1.91-.24.54-.69.37-1,.54.13.55.81.61,1,1.18a5.05,5.05,0,0,1-2.07.51c.43.64,1.19,0,1.6.72-.12.38.35,1-.22,1.56-1.09.25-1.22.59-.55,1.48.46-.33.35-.94.68-1.33a4.13,4.13,0,0,1-1.73,3.38c-.12.3,0,.59-.21,1A11.93,11.93,0,0,1,82,79.37a13.36,13.36,0,0,1-6.21,1.34c-1.5-.1-3.07,0-4.61,0-8,.07-16.05,0-24.08,0A12.48,12.48,0,0,1,42.46,80c-.3-.4-.05-.86-.31-1.21-.34.17-.2.71-.72.79A9.37,9.37,0,0,1,40,78.73c-.56-.31-1.29-.53-1.54-1a6.57,6.57,0,0,0-.86-1.35c-.31.07-.68.26-.82-.27.47-.58.78-1.32,1.26-1.83,1.1-1.16,1.2-1.14,1.4-2.61,0-.19,0-.41.34-.57a8.79,8.79,0,0,0,7.57,4.3c-.24.63.27,1.17-.1,1.7-.35.19-.85.12-1.1.58l.24.29a15.86,15.86,0,0,0,2.36-1.11,1,1,0,0,0-.08-.78c0-.28-.59.26-.55-.3.22-.47.68-.42,1.11-.42,1.1,0,2.19,0,3.29,0,4.75,0,9.5,0,14.26,0a3.17,3.17,0,0,1,1.18.07c.42.24.39.75.83.81.31-.18,0-.63.43-.83a5.51,5.51,0,0,1,1.57,0c.09.23-.12.45.12.59.51.07.65-.51,1.09-.64H75.4a9.1,9.1,0,0,0,6-2c.16-.13.31-.43.6-.18-.35.28-.23.66-.33,1,.31.09.5.09.64-.08a.76.76,0,0,0-.16-.78c.23,0,.49.05.64-.21s-.25-.66-.07-1.12a10.48,10.48,0,0,0,1.77-4.41c.53-.13,1.12.2,1.36-.47-.43-.3-.94,0-1.29-.32a.57.57,0,0,1,.08-.67c.39.53.73.54,1.23,0-.3-.49-.68-.45-1.1-.16-.44-1-.39-1.4.19-1.72.38.31,0,.73.14,1.06.65.29.9-.25,1.26-.6-.41-.33.05-.84-.28-1.2-.43-.09-.74.46-1.38.17.33-1.18-.68-2.38,0-3.57.36-.19.47.23.76.08-.21-.74.68-1.52-.08-2.31l-.37.5h0c-.07-.42-.51-.66-.49-1.17.08-1.49.09-3,.13-4.48l.53,0,.43.68c.18-.39.75,0,.89-.71-.47.24-.79-.08-1.18-.12a1.08,1.08,0,0,0-.68-.5l.37-.48c-.79-.89-.41-1.93-.46-2.89a29.52,29.52,0,0,1,0-3.12,6.32,6.32,0,0,1,.35-2.73c-.44-.25-.36-.68-.36-1.06,0-1.16,0-2.32,0-3.48a9.37,9.37,0,0,0-.34-2.71A8.34,8.34,0,0,0,80.87,31a1.49,1.49,0,0,1-.78-1.1c-1.36.18-2.47-.49-3.65-.57-.16-.65.53-1,.19-1.49.23-.07.46,0,.64-.22l.09-.54a1.51,1.51,0,0,0,.07-1.46c-.45.25-1.05,0-1.34.57.21.23.65.31.62.75-.26.29-.37-.1-.58-.12-.35.23-.61.61-1.07.75A1.64,1.64,0,0,1,74,29.44c-1.14-.24-2.46.36-3.67-.38-1.19.26-2.38.68-3.57,0,.06-1-1.42-.73-1.24-1.89-.67,1.06-.69,1.26-.25,2h0a5.6,5.6,0,0,1-2.57-.07,1.56,1.56,0,0,0-.46-.9c-.26,0-.49-.07-.6.3a1.16,1.16,0,0,0,.92.74c-.52.31-1-.14-1.49-.06a25.38,25.38,0,0,1-4,.17c-3.32,0-6.63,0-9.95,0a7.86,7.86,0,0,0-4,1,8.84,8.84,0,0,0-4.57,8.26c.07,5.07,0,10.15,0,15.23,0,.59-.15,1.2-.09,1.75.16,1.32,0,2.64.1,4a1.57,1.57,0,0,1-.43,1.19c0,.05,0,.15,0,0,0,.44.3.28.41.51v6.5c-1.19.59-.09,1.42-.29,2,.23.43.73.15.85.56l-.75.66c-.41,0-.76-.17-1.16.07.3.4-.35.55-.26,1s.75.39.84.88c-.09.17-.27.15-.41.19a.6.6,0,0,0-.4.43l.27.38a.81.81,0,0,1,.1.57C36.69,75.13,36.69,75.13,36.67,76ZM69.42,26.28c-.14-.65-.54-.47-1-.35a1.12,1.12,0,0,0,.85.49c0,.46-.82.53-.58,1l.57.27a1.55,1.55,0,0,0-.62.67c.48.4.48.4,1.12-.08l-.35-.46C69.77,27.32,70,26.8,69.42,26.28Zm-6.14,1c.12-.28.33-.48.31-.85-.45-.15-.5-.69-.88-1.05-.15.22-.54.1-.56.3,0,.47.23.44.43.51-.47.34-.45.8-.44,1.42C62.54,27.24,62.93,27.35,63.28,27.29ZM84.72,70.18l1.57,1.76c.45-.7.47-.73.17-1s-.92-.7-1.21-1.14A.61.61,0,0,0,84.72,70.18ZM81.76,30c.71.72,1.19,0,1.67.12.36-.8-.32-1.08-.52-1.61-.32.39-.08.84-.31,1.24ZM36.11,57.56l-1,1.35c.27.6.73.21,1.28.23-.39-.57.09-.86.36-1.26ZM87,33.54c.21-.14.47-.15.63-.42a1.3,1.3,0,0,0-.44-.79,2.29,2.29,0,0,0-1.41.18C86.49,32.64,86.48,33.24,87,33.54ZM55.23,28.48a1.34,1.34,0,0,0-.61-.65c-.49.09-.8.33-.79.87l.92.32A.84.84,0,0,0,55.23,28.48ZM88.87,64.24l-1,1.22a2.15,2.15,0,0,1,1.34.21,1,1,0,0,0,.29-.64ZM36.73,73.6c-.39-.54-.8-.49-1.22-.09a.63.63,0,0,0,.39.83C36.08,74,36.59,74.06,36.73,73.6ZM80.45,28.49a.62.62,0,0,0-.81.59c.65.52,1,.52,1.19,0C80.71,28.89,80.7,28.62,80.45,28.49Zm-2.1,48.67c.15.36-.11.75.4,1,.17-.62.7-1,.58-1.68C78.82,76.5,78.79,77,78.35,77.16ZM38.11,59.36a2.23,2.23,0,0,1-.16-.92.63.63,0,0,0-.64-.68.24.24,0,0,0-.27.14c.1.25.46.29.52.61s-.37.62,0,.94A.6.6,0,0,0,38.11,59.36Zm50.34-2c-.23,0-.24.47-.58.28s-.44-.18-.54.23c.25.42,1,0,1.16.67,0-.4.36-.39.52-.67C88.74,57.79,88.64,57.52,88.45,57.35Zm1.36-3.05c-.31-.22-.44-.66-1.09-.56.38.44.11.94.38,1.35A1,1,0,0,0,89.81,54.3Zm-12-24.81c.87-.62.89-.67.51-1.51C78.37,28.54,77.59,28.79,77.84,29.49ZM50.19,75.82c.05.86.05.86.9.68C51,76.09,50.93,75.63,50.19,75.82ZM35,54.05c-.38-.24-.67-.56-1.1-.25a1,1,0,0,0,.28.61A.59.59,0,0,0,35,54.05ZM86.88,36.12a.61.61,0,0,0,.91-.28.54.54,0,0,0-.55-.39A.61.61,0,0,0,86.88,36.12Zm1.9,17c.22.26.34.43.6.32l.32-.65c-.15-.19-.29-.39-.64-.24Zm-54.25-4.8c-.31-.54-.64-.26-1-.27,0,.3-.16.58.16.8ZM41.2,74.69c-.45.31-.87.65-.57,1.32C41.21,75.72,41.1,75.16,41.2,74.69ZM45,76a1,1,0,0,0-.79.39c.28.47.62.24.92.24C45.16,76.35,45.16,76.16,45,76ZM83,26.59c-.8.13-.8.13-.39.73C82.84,27.19,82.91,26.94,83,26.59ZM34.89,36.07a.66.66,0,0,0,1,.29c.18-.08.08-.25,0-.39C35.59,35.86,35.33,36.06,34.89,36.07Zm2.7,27.62L38.34,65C38.49,64.34,38.46,63.92,37.59,63.69Zm44,13.88a1,1,0,0,0-.27,1.1C81.58,78.39,82,78.19,81.6,77.57Zm3.71-6.35a.52.52,0,0,0-.56.32,1,1,0,0,0,.28.61s.14,0,.28,0ZM35.43,60.35a.61.61,0,0,0-.58-.56.45.45,0,0,0,0,.62A.51.51,0,0,0,35.43,60.35Zm2,5c-.29-.52-.57-.53-.88,0A.68.68,0,0,0,37.38,65.37Zm-3.75.89c.17.39.36.57.7.29.08-.06.1-.18.15-.28A.77.77,0,0,0,33.63,66.26Z"/><path class="cls-1" d="M55.76,34.81a5.5,5.5,0,0,1,3.77-1c.18.5-.57.43-.43.86.34.19.64-.11.87,0,.39-.28.25-.66.41-.95a1.43,1.43,0,0,1,.34-.09,7.13,7.13,0,0,1,3.17.4c.25.1.47,0,.69,0a4.61,4.61,0,0,1,3,.81c-.6.73-.6.73-.44,1.69l1-.82c.21,0,.2.29.34.42.36.16.26-.81.81-.25l-.9,1.29c.25.25.25.84.73.85a2.28,2.28,0,0,0,1.57-.3,2.55,2.55,0,0,1,1-.6c0-.28-.3-.23-.27-.44,0,0,.13-.11.17-.09a1.75,1.75,0,0,1,1.25,1.59l-.49.23c-.12.26.29.23.23.5-.3.18-.72.19-1,.48-.18.73,1.1.49.82,1.29a1.09,1.09,0,0,0-.36.76c.48.18.69,0,.75-.37.2,0,.4,0,.57-.12.42-.45-.58-.9,0-1.34-.25-.54-.06-1.1-.15-1.75a1.68,1.68,0,0,1,1,.88c.16.46.73.35.85.91,0,.34-.67.21-.75.73.94.34.94,1.33,1.31,2.14-.52.5-1.32-.22-1.91.28.28.34.72,0,1.06.38.29.53-.74,1.4.4,1.84l.61-.3a.85.85,0,0,0,0-.59h0a.92.92,0,0,0,.59,0c.62-.61,0-1.51.56-2.25a11.35,11.35,0,0,1,1.26,2.1c-.44.44-.79.91-.45,1.46-.18.41-.69.31-.69.79a2.12,2.12,0,0,1,.75.79c.61-.53.61-1.28.84-2a18.06,18.06,0,0,1,1.53,7.43c-.08.4-.47.05-.61.35.26.67.76,1.32.37,2.17-.07.08-.36,0-.35.41.49.64,0,1.3-.17,2a14.74,14.74,0,0,1-1.66,4.24c-.2.34-.32.74-.73.94-.34-.17-.35-.59-.62-.84a2,2,0,0,0-1.13,0,3,3,0,0,1,.23,1.55l.84.54c-.49.56-.94,1.11-1.43,1.63-.31.34-.59.81-1.2.53-.25.68-.38,1.41-1.33,1.23-.31-.05,0,.48-.37.44,0-.26.06-.56-.18-.83-.2.23-.43.42-.37.75s.26.18.41.22c-.18.46-.6.59-1,.74-.42-.13-.26-.58-.5-.78-.45-.2-.75.1-1,.27-.29.46.2.77.11,1.32a18.83,18.83,0,0,1-13.91.89A2,2,0,0,0,56,68.9l1-.79-.71-.94a2.9,2.9,0,0,0-.42,1.59,1.25,1.25,0,0,1-.68-.14,2.15,2.15,0,0,0-1.68-.28l-.43-.2c.22-.48.92-.09,1.13-.57-.05-.24-.23-.23-.37-.25a.47.47,0,0,1-.35-.27c.07-.43.55-.21.74-.49l-.13-.31c.35-1,.13-1.55-.75-1.64.2.5.69.9.6,1.51-.44.26-1.07.29-1.11.95-.63,0-.77-.52-1.08-.82l-1,.19c-.23.23-.15.47-.11.7h0c-1-.6-1-.6-.53-2.2-.62.17-1.07.41-1.22,1-.91-.61-.95-.7-.7-1.46a2.06,2.06,0,0,0-.76-2.43c-.44.41.35.91-.11,1.31C46,63,46,63,45.36,61.89a18.78,18.78,0,0,1,8-26.42c.41-.21.81-.55,1.33-.4.22.42-.23.92.16,1.32a.52.52,0,0,0,.61-.1A5.25,5.25,0,0,1,55.76,34.81Zm-10,23.63c-.74,0-.87.11-.8,1a2.29,2.29,0,0,0,.95-.85c.15-.39.68-.79,0-1.23C45.68,57.72,45.8,58.09,45.75,58.44Zm13.2-20a1.41,1.41,0,0,0,.94.62,2.76,2.76,0,0,0,1.22-.85c-.19-.13-.44-.4-.59-.22-.43.5-1,.25-1.43.3l.62-.54c-.25-.38,0-.86-.25-1.21a.52.52,0,0,0-.67,0C58.77,37.14,58.51,37.8,59,38.42ZM67,68.9c.3-.06.64.09.9-.24a1.36,1.36,0,0,0-.4-1.46c-.29.11-.62.16-.79.57.21.26.15.62.17,1-.31-.23-.61-.08-.9,0-.07.34.14.45.37.6C66.53,69.11,66.87,69.18,67,68.9Zm5.37-4.45c-.45,0-.48-.47-.82-.61,0,.49-.71.65-.52,1.32.36.24.93.38,1,1,.43-.2.51-.47.38-.82s-.48-.06-.56-.36c.13-.28.55-.1.66-.41s.63-.79.14-1.19l-.7.53ZM62,37.08c.16-.77.68-1.53,0-2.31-.56.08-.91.42-.72.67s.42,0,.45.29c-.16.29-.53.05-.76.35.51.2.54.76.84,1.14s-.11.7-.13,1,.4.34.6.5a4.12,4.12,0,0,0-1.34.39,1.05,1.05,0,0,1-1.46.1c-1,.7-1.39.85-1.43.58s.38-.17.37-.5a1.61,1.61,0,0,0-1.1,0c-.45.2-.09.67-.34,1a1.46,1.46,0,0,1-1.29.22c-1,1.2-2.47,1.69-3.36,2.9-.31-.33-.63-.3-.84-.07s-.74.67-.69,1.19a2.82,2.82,0,0,1-.56,1.67c-1.84,3.25-1.81,6.7-1.07,10.22.89,1,.87,2.43,1.89,3.34.53.47.53,1.39,1.34,1.7.11,0,.11.36.16.55.49-.21.75.14,1.05.38A11.69,11.69,0,0,0,59,64.94a12.66,12.66,0,0,0,7.62-.88,1.87,1.87,0,0,1,1.79-.22c.23-1.33,1.44-1.61,2-2.29.46-.2.72.3,1,0s-.13-.43-.09-.6c.13-.45.65-.46.73-1a7,7,0,0,1,.8-1.84,10.43,10.43,0,0,0,1.33-4.85c0-.57.31-.93.83-1.31a1.81,1.81,0,0,1-.26-1.74c-.17-.54-.52-.14-.73-.46a12.92,12.92,0,0,0-1.53-3.89c-.18-.29,0-.49.11-.75a1.53,1.53,0,0,1-1.14-1c-.2-.45-.91-.58-1.12-1.14.27-.59.45-1.26,1.17-1.45,0-.78-.69-1-1-1.46.19-.57-.32-.94-.32-1.49-.32.2-.55.35-.62.64l.23.36c.19.76-.48.58-.56,1.12s.49.48.69.79c-.15.18-.34.2-.35.39.13.37.65.49.61,1-1-.67-2-1.34-2.92-2-.4-.28-1-.25-1.26-.74-1.21.13-2.28-.5-3.52-.55a.44.44,0,0,0-.08-.61,3.27,3.27,0,0,1,1.4.14c0-.53-.65-.92,0-1.33a1.88,1.88,0,0,1-1-.91C62.66,37.08,62.26,36.76,62,37.08ZM74.9,57.91l-.32.59c.17.31.16.73.46,1,.68-.19.83-.87,1.31-1.17a3.07,3.07,0,0,0-.11-1.24,2.85,2.85,0,0,0-2.11.09C74.15,57.75,74.69,57.48,74.9,57.91Zm1.61-3.15c-.33-.23-.84-.11-.78-.68a2.33,2.33,0,0,1,.36,0c.14,0,.26.2.47,0l.17-.51a2.35,2.35,0,0,0-2.16.35c.3.77.14,1.77,1.1,2.2C76.32,55.83,76.35,55.28,76.51,54.76ZM73.79,62.2c.71-.42.73-1.25,1.34-1.66-.32-.15-.47-.44-.81-.25s-.88.29-.92.9ZM56.58,38.1h-.91c-.15-.43-.18-.44-.66-.42,0,.35-.2.68,0,1.09l1.27.32A2.33,2.33,0,0,0,56.58,38.1ZM51,42.19a3.12,3.12,0,0,0,.55-2.44C50.69,40.22,50.63,40.52,51,42.19ZM45.2,56.58c.45.08.43-.34.62-.5s.46-.39.68-.59c-.11-.21-.22-.37-.46-.36s-.24.4-.64.55c-.12,0-.46-.27-.75.07Zm29.39-10.5c-.28-.32-.65-.56-.8-1-.41.2-.5.49-.38.75s.23.87.83.9Zm-25-1a.83.83,0,0,0-.9.12c.27.5.1,1.14.34,1.7C50,46.54,49.17,45.68,49.58,45.1Zm26.78,6.64c.43.17.65-.15.94-.37,0-.43.2-.92-.38-1.42,0,.45-.14.74-.49.92C76.35,50.91,76.57,51.44,76.36,51.74ZM51,65.65A1.1,1.1,0,0,0,51.24,64a.55.55,0,0,0-.63.15ZM58.72,69c-.08-.9-.08-.9-.94-.72l.09,1.28Zm-5.87-31.5c-.28-.25-.39-.51-.76-.59a2.81,2.81,0,0,0-.22,1.63C52.42,38.38,52.41,37.84,52.85,37.51ZM69.11,65.62c-.29-.33,0-.92-.68-1.06a1.05,1.05,0,0,0-.16,1.13A1,1,0,0,0,69.11,65.62ZM43.4,50l1,.24.22-.77a.85.85,0,0,0-.61-.28ZM52,42.81a.53.53,0,0,0-.82-.35c-.24.11-.45.31-.2.71A2.84,2.84,0,0,0,52,42.81ZM45.8,54.39a.57.57,0,0,0-.31-.65l-.84.28C44.92,54.59,45.33,54.51,45.8,54.39Zm3.44,6c.39,1,.64,1.1,1.17.64-.28-.21-.55-.42-.83-.61C49.53,60.41,49.43,60.43,49.24,60.42Zm7.14,5.22c-.73-.65-.92-.63-1.41.15A4.46,4.46,0,0,0,56.38,65.64ZM51.8,63c.08.4.24.61.61.57a.85.85,0,0,0,.3-.66A.82.82,0,0,0,51.8,63Zm-1.68-.73c-.7-.63-.7-.63-1.12-.21C49.32,62.21,49.6,62.55,50.12,62.24Zm16.15,3.48c-.19-.23-.2-.69-.82-.59l.38,1A.66.66,0,0,0,66.27,65.72ZM57,35.28c-.42.13-.49.47-.52.84.19.16.36.12.62,0C56.79,35.86,57.33,35.59,57,35.28ZM49.2,41.2c0,.3-.06.45-.06.59s.06.39.38.38C49.84,41.81,49.73,41.54,49.2,41.2Zm23,1.9c-.18-.22-.06-.6-.4-.7s-.36.19-.46.4A.58.58,0,0,0,72.15,43.1ZM49,59.46a1.33,1.33,0,0,0,1.4.17C50,59.23,49.61,59.19,49,59.46Zm3.39-19.88c.33-.22.57-.36.32-.77C52.27,38.89,52,39,52.35,39.58Zm-2.21,5c-.32-.6-.65-.29-1.07-.32C49.37,44.78,49.71,44.63,50.14,44.53Zm25,3.18c-.22-.53-.53-.64-1.09-.62A1.12,1.12,0,0,0,75.1,47.71Zm-29.4.21c-.18.36-.53.58-.15.89.11.08.21.06.34,0C46.24,48.47,45.88,48.26,45.7,47.92ZM74.35,63.19c-.5-.39-.5-.39-.85.11A1,1,0,0,0,74.35,63.19Zm-19,.82a2.58,2.58,0,0,0-.62,1C55.38,64.89,55.56,64.62,55.35,64Z"/><path class="cls-1" d="M77.79,33.89c-.3,0-.42-.21-.59-.45l.28-.75-.35-.32.3-.87a1.25,1.25,0,0,1,.35-.08,1.3,1.3,0,0,0,.93-.11c.68-.42,2.52.38,2.85,1.21.1.25.46.32.37.63l-.3.24.2.76c.2.26.55.1.74.29.75.85-.39,3.28-1.94,4.19-.24,0-.27-.41-.57-.27s.07.37-.15.58a4.3,4.3,0,0,1-2.84-.17,4.12,4.12,0,0,1-1.89-2,3.81,3.81,0,0,1,1.23-4.73c.18.66-.13,1.37.35,1.81-.4.68-1-.29-1.2.15s.12.67.15,1l-.33.38c.12.47.69.15.76.6.42-.39.41-.87.62-1.2s.68-.2,1-.29c.37.53-.55.52-.27.92.08.43.45.43.72.58.39,0,.56-.42.94-.53,0-.39-.32-.84.35-1l-1.14-.51a1.47,1.47,0,0,0-.08-1.35C77.7,32.86,78.08,33.44,77.79,33.89Zm2.06,4.2c.56-.19,1.11-.08,1.27-.69a.57.57,0,0,0-.59-.51C80.11,37.1,80,37.49,79.85,38.09Z"/><path class="cls-1" d="M69.66,35.76a1.19,1.19,0,0,1,.83.14c.4.43-.38.79,0,1.21-.21.08-.46,0-.68.3A5.36,5.36,0,0,1,69.66,35.76Z"/><path class="cls-1" d="M50.63,67.14c.28.17.51-.15.77-.09.26.3-.1.84.45,1.06-.61-.12-1.1-.31-1.23-1Z"/><path class="cls-1" d="M53,68.14l.43.2-.08.63c-.37-.15-.73-.09-1-.35C52.49,68.25,52.75,68.18,53,68.14Z"/><path class="cls-1" d="M75.86,40.46a.93.93,0,0,1,.5.56c-.1.19-.28.21-.46.26C75.59,41.06,75.58,40.81,75.86,40.46Z"/><path class="cls-1" d="M65.26,29.22c.07-.17.08-.38.23-.47a.32.32,0,0,1,.44.09c.16.19-.07.34-.08.53l-.58-.14Z"/><path class="cls-1" d="M85,58.27a.74.74,0,0,1-.43.9c-.08-.42-.11-.79.42-.91Z"/><path class="cls-1" d="M75.82,44.11c-.28-.25-.15-.54-.11-.88.55.28.05.6.12.87Z"/></g></svg>