<svg xmlns="http://www.w3.org/2000/svg" viewBox="0 0 122.97 105.51"><defs><style>.cls-1{fill:#e91a83;}</style></defs><g id="OBJECTS"><path class="cls-1" d="M103.32,38.75a2.36,2.36,0,0,1,.14-1.22c-.27-.34-.47,0-.77-.06a3,3,0,0,1-.07-1.3c.4-.26.47.28.95.13a.92.92,0,0,0,.4-.51c0-.22-.07-.31-.17-.34a1.2,1.2,0,0,1-.73-.37c-.18-.2-.08-.35.05-.51.16.06,0,.39.36.35.6-.66.24-1.44.15-2.23a2.79,2.79,0,0,1,.9,3.41c.22.23.54.07.86.28-.08.47.41.86.33,1.41a1,1,0,0,0-1.39.15h1.26c-.23.15-.54.19-.61.52.2.36.72.3.91.7-.44.23-1.07-.13-1.37.41-.24.32.14.53.08.77s-.48.33-.39.71.48.11.72.17h0l-.66.71c.09.47-.13.94,0,1.42-.64.31-.11,1-.51,1.45a.84.84,0,0,0,0,.88c.32,0,.24-.32.56-.38-.27.35.35.61-.07,1s.77.71-.1,1.06l.56.27c-.2.6-.45,1.24.07,1.7s.85-.51,1.52-.25c-.59.3-.28,1-.9,1.33s-.83.68-1.37.69a.4.4,0,0,0,.2.54,2.2,2.2,0,0,1,.33.35l.37-.44c.38-.33.59.24.88,0s.83-.58.9-1.17c0-.31.34-.41.62-.49h0a1.62,1.62,0,0,0,0,.82c.21.32.7.12.89.46,0,.51-.66.19-.67.64s.23.56.2.88l-.46,0c-.27.15,0,.56-.37.66s-.62,0-.48.64c.49-.44.82,0,1.21.23.37-.48.67-.9.24-1.43.28,0,.45-.16.64-.3v2.64c-.34.09-.19.38-.21.59a19.35,19.35,0,0,1-.23,2.74c-.07.31-.08.64-.38.76.24,1.8-.35,3.46-.7,5.16l-.48-.86c-.93-.13-1.3.54-1.81,1.09.29.5.82,1,.4,1.66a1.79,1.79,0,0,1,1,1.24c-.27.82-.39,1.76-1.37,2.09-.11.39.26.54.26.91-.38.69-.44,1.62-1.19,2.2.27.83-.8,1-.81,1.78s-.57,1.3-.9,1.92a2.63,2.63,0,0,1-.63.92c-.37.14-.58-.17-.89-.14-.2.22-.09.6-.36.79.55.82.25,1.49-1.14,2.57a1.55,1.55,0,0,0-1.35-.74c-.31.25.07.37.06.4-.09.39-.39.25-.45.38a1,1,0,0,0-.06.87c.15.31-.3.48-.09.78.82.22.65-.67,1-1l.4.16A12.65,12.65,0,0,1,97.46,83c-.21-.41-.37-.74-.88-.44-.17.37-.22.76.22,1-.34.87-1.11,1-1.85,1.31,0-.61.47-1.1.38-1.69h0a1,1,0,0,0,1-.13C96,82,95.09,82.12,94.2,82c.19-.46.47-.89.22-1.4-.16-.31-.46-.24-.81-.57.16.85-.44,1.23-.57,1.81l-.55-.2a3.56,3.56,0,0,0,.2,2.52c.49.25,1.06,0,1.43.5l-.07.48a1.75,1.75,0,0,0-1.31.06c.41.75,1.14.43,1.7.6-.1.6-.1.6-.69,1.07-.26,0-.24-.3-.42-.39-.52.3-.41.86-.53,1.32A12.59,12.59,0,0,1,91,89.33c-.21-.44-.28-.89-.64-1.17.62-.45-.54-1.06.2-1.49-1.1-.49-.87,1-1.67.93a4.77,4.77,0,0,0,0,1.45c.33.38.59-.11.88.16.12.39-.39.77,0,1.17l-.84.59c-.38,0-.48-.44-.86-.5-.21.36.21.82-.17,1.16a2.31,2.31,0,0,1-.94.62c-.12-.52.41-.47.51-.78-.79-.16-.24-1-.7-1.36.25-.16.63-.13.69-.52l-.6-.53c.26,0,.55-.17.43-.41-.23-.5.08-1,0-1.46h-1c0,.64.47,1.13.41,1.73-.8.25-.84,1.12-1.44,1.66.73.21.4.65.32,1h0c-.58-.1-.94.33-1.38.54,0,.22.23.21.35.29,0,1,0,1-.42,1.55-.64-.31-1.28-.79-2-.45-.42-.06-.34-.55-.88-.51-.36.15-.69.61-1.2.76.18.77.18.77.73,1.11-.29.44-.76.71-1,1.26-.88-.49-1.35,1.17-2.3.38a6.39,6.39,0,0,1,1.44-2.28c-.41-.44-.69-.07-.94-.21-.27.07-.09.46-.36.53-.31-.15-.23-.82.19-1.49l-.52-.23c-.08.07-.18.13-.17.17.15.91-1,1.66-.33,2.61-.32.26-.36.75-.81.86,0,.31.35.42.48.76a10.38,10.38,0,0,1-2.75.87c0-.43.45-1-.33-1.06,0-.11.13-.29.1-.31-.4-.29-.52-.88-1-1-.5.65-.51.85,0,1.18a1.31,1.31,0,0,0,.76.3,1.47,1.47,0,0,1-.62,1c-.43-.29.05-.62-.15-.91s-.77-.27-1.32-.17a1,1,0,0,1,.38,1.53c-4.48,1-6.87,1.19-7.68.66a5.05,5.05,0,0,1-4.12,0c-.37.18-.69.6-1.18.25,0-.32.33-.44.37-.75s-.11-.34-.39-.46a1.75,1.75,0,0,1-1.24,1,4.34,4.34,0,0,1-1.72,0c-.34-.4-.1-.85-.3-1.22s-.65-.14-.87-.15-.23.2-.14.22a.55.55,0,0,1,.44.81c-.33.23-.67.15-1.12,0-.22,0,.17-.46-.26-.57a4.66,4.66,0,0,1-3.2-.14c-1-.27-1.91-.57-2.88-.79s-1.82-.69-1.94-1.82c-.91-.08-.91-.08-.93.78a46.54,46.54,0,0,1-9.87-5.28,49.56,49.56,0,0,1-8.29-7.43,59.3,59.3,0,0,1-6.35-9.15c.53-.35,1-.88,1.63-.33.34.27-.27.59,0,.86.07,0,.18.09.21.06.24-.2.46-.41.67-.6.08-.34-.26-.39-.37-.61.17-.39.36-.84-.15-1.13s-1,.09-1.5.42a6.37,6.37,0,0,0,.6-1.12c-.24-.59-.24-.59-1.09-1.24l-.75.24a.21.21,0,0,0,.2.25c.52.1.45.57.41.86s-.35.53-.83.12a10.25,10.25,0,0,1-1.21-2.7,1.49,1.49,0,0,1,.59-.84c-.32-.68-1.28-.81-1.42-1.66a2.63,2.63,0,0,0,.7-1.7c-1.59.09-1-1.35-1.49-2.07a1.73,1.73,0,0,0,.59-1l-1.13-.62c.07-.43.53-.54.76-.87-.31-.35-.72-.06-1.06-.11A3.18,3.18,0,0,1,15,59.19c.49-.37,1.14-.62,1.3-1.34a3.68,3.68,0,0,0-1.41-.42c-.16-.36.28-.46.26-.74s-.36-.07-.52-.19a.81.81,0,0,1-.07-.22,61.75,61.75,0,0,1,0-7.07,46.52,46.52,0,0,1,3.67-14.94A47.28,47.28,0,0,1,31.56,16.51a17.29,17.29,0,0,0,1.83-1.39,10.22,10.22,0,0,1,1.94-1.4c.66-.45,1.34-.87,2-1.28s1.38-.81,2.09-1.18,1.42-.74,2.14-1.08,1.46-.65,2.2-.95,1.48-.58,2.24-.84,1.51-.5,2.28-.73,1.53-.44,2.31-.63,1.55-.37,2.34-.49A38,38,0,0,1,57.7,6a1.78,1.78,0,0,0,1.15-.25h5A2.45,2.45,0,0,0,65.17,6,45.36,45.36,0,0,1,80.64,9.89c.35.15.9.19.82.91a1.81,1.81,0,0,1,1.85.42c.14.18-.07.18-.17.35.13.29.52.34.77.61l.49-.3c1,.2,1.65,1.11,2.54,1.57s1.11,1.6,2.09,2l.26-.28c1.87.72,7.43,6.09,9.4,9.06-.06.19-.41.08-.39.36,1.07.26,1.42.61,2.25,2.32-.41.26-.35-.54-.83-.27a2.18,2.18,0,0,0,.33,1c-.34.16-.69-.43-1.11,0,0,.36.31.65.49,1,0,.21-.38.17-.47.43l.44.22c0,.26-.4.42-.17.74s.67.05,1,.13c-.6.4-.13,1.44-1,1.63-.06.4.5.19.29.8,0,0-.35-.09-.58,0s0,.47-.06.7a.73.73,0,0,1-.69,0c.18-.32.32-.73,0-.93-.51-.33-.36-.84-.52-1.27-.41.34-.41.34-.1,2.63,1-.33,1.19.93,2.14,1,.88-1.15.42-2.76,1.28-3.93l.86.29c.31-.23.34-.68.77-.78.17.12.4.23,0,.48s-.36.51-.76.46-.4.33-.54.58a4,4,0,0,1,.84,2c-.2-.29-.28-.71-.9-.57.43,1-.69,1.47-.73,2.38.13.34.68.49.62,1-.44,0-.51-.36-.64-.57-.46-.14-.84-.15-1.12.25a.77.77,0,0,0-.09,1c.24.34-.19.79.19,1.15.75-.12,1.08-.81,1.58-1.26.18.11.23.39.19.4-.71.13-.72.88-1.22,1.28a5.7,5.7,0,0,1-1.34-.7.62.62,0,0,0-.51.35c0,.54.8,1.14.09,1.75a29.74,29.74,0,0,1-1-2.84.55.55,0,0,1,0-.47c.4-.65.08-1.21-.21-1.86l-.53,1c-.3-.64-.57-1.21-.83-1.78H96c.77-.2.87-.36.92-1.06s-.08-1-.72-.94c-.29,0-.31-.34-.58-.34l-.25.52a1.47,1.47,0,0,1-1.31-1.08c0-.42.34-.9-.14-1.3.59-1.21.56-1.31-.57-1.84-.12.3-.42.44-.64.64a.81.81,0,0,0,.43.44c-.19.18-.36.3-.58,0-.7-.88-1.42-1.74-2.12-2.61a35.76,35.76,0,0,0-5.6-5.19,40.11,40.11,0,0,0-4-2.63c-.41-.25-.86-.43-1-.93a4.52,4.52,0,0,1-3.24-1.62l-.28.25c-1.36-.45-2.7-.95-4.08-1.36s-2.7-.69-4-1c-.17-.25.16-.64-.25-.85-.39,0-.52.23-.57.65l-.72-.58c-.29-.11-.24.26-.49.31l-.6-.37a1.6,1.6,0,0,1-1.51.41,38.38,38.38,0,0,0-5,0,37,37,0,0,0-15.9,4.48A38.65,38.65,0,0,0,23.36,45a33.65,33.65,0,0,0-.79,7.56v1.64c-.46.11-.58-.27-.84-.41l-1,.68L21,55.5c-.16.45-.61.66-1,1a1.69,1.69,0,0,0,.5,1.78,1.88,1.88,0,0,0,1.38-1.29c.4-.08.58.19.9.32a39.68,39.68,0,0,0,1.53,7l-1.08.5c-.19.26.05.57-.18.74.3.49.63.48,1.59,0,.16.1.13.27.18.41-.14.3-.44.12-.68.28s-.07.73-.28,1c.27.26.57.15.83.18-.06.32-.52.29-.58.63l.32.3c.24-.34.94-.4.43-1.05-.17-.28-.41-.56.12-.75a1,1,0,0,1,.21.25,17.52,17.52,0,0,0,1.48,3.31,1.08,1.08,0,0,1,0,1.29c.18.44.45,0,.74.25.27.69.9,1.3,1.31,2.07-.09.23-.35,0-.51.21,0,.3.22.65-.23,1a1.22,1.22,0,0,0-.45,1c.1.41-.07.77,0,1.1A2,2,0,0,1,27,78.51c.08.25.1.54.42.64.93-.58,1.17-1.61,1.6-2.68l-.18-.55c.07-.17.18-.19.3-.14.38.14.5-.09.58-.5l.93,1.15a4.81,4.81,0,0,0,.33,2.2c.49-.06.41-.59.77-.73a15.56,15.56,0,0,1,2,2.16c.51.8,1.73.94,1.67,2,.83.39,1.65.58,1.87,1.4,1.5.56,2.57,1.73,3.9,2.47s2.65,1.48,4,2.16a14.67,14.67,0,0,1-.34,2.73c-.09.29-.1.28-.8.6,0,.23.16.35.22.51,0,.38-.62.26-.55.65s.64-.07.6.45L43.7,93c-.19-.36-.25-.9-.79-1-.12.54-.12.54.23,1.08l-.33.12s0,.07-.05.12c0,.4.47.38.58.81.64-.58,1.53-.3,2.27-.84-.63-.75.13-1.59-.19-2.37.31-.25.7,0,.94-.32,0-.46-.27-.6-.77-.72.54,0,.62-.38.75-.7-.05-.22-.23-.37-.54-.54a1.69,1.69,0,0,1,.46,0,37.26,37.26,0,0,0,8,2.41c.4.07.39.09,1,.71l.3-.46,2.84.33c.56.29.24.82.65,1,.58-.07.21-.56.34-.84a.93.93,0,0,1,.69-.07c.68.11,1.45-.3,2,.4.25-.27.49-.55.9-.3a2,2,0,0,0,.37,1.2c-.45,0-.56.36-.58.75.4.19.81.21,1-.21.33-.59.1-1.14-.43-1.7,1-.22,1.76-.53,2.53.07l.63-.47a2.25,2.25,0,0,0,.34,1.66c.76-.51.75-1.62,1.63-2a6.53,6.53,0,0,1,2.17-.34c0,.28-.38.13-.34.4.07.51.42.46.78.37.46.64.76,1.44,1.71,1.63a1.4,1.4,0,0,0-.17,1.65c.54-.13.45-.66.66-1s.58-.5.23-1c-.18-.25.77-.29.37-.85a2.53,2.53,0,0,0-1.1.43c-.39-.59-.25-1.47-1.12-1.91,1.92-1.06,4.09-1.21,5.78-2.39l.86.27a1,1,0,0,1,.14.69c-.31,0-.43-.5-.88-.28-.12.44.19.75.49,1.17.53-.29,1,0,1.53.18l.31-.57c.33-.11.46.1.57.41.3-.63.86-.51,1.3-.7l1.54.65c.42.75-.81.93-.43,1.68.51,0,1-.34,1.55-.13-.1-.69-.17-1.22-.24-1.71-.56-.69-1.59-.58-2.07-1.38a6.12,6.12,0,0,1-2.89.49c0-.52-.48-.68-.64-1.11.21-.37.64-.41,1-.64.47.2.75.85,1.47.6a3.94,3.94,0,0,1-.23-1.23L84.72,84c.07.59.63.55,1.07,1-.05-.48.08-.75-.17-1a1.67,1.67,0,0,0-.8-.09,5.13,5.13,0,0,1,1.65-.83c.23.33.13.62.18.89l-.15.79c.26-.15.38.24.69,0l.06-.55.61-.25a2.76,2.76,0,0,1-.28,2c.9-.17,1.06.45,1.38.89l1.76-1c-.11-.3-.52-.11-.55-.48.28-.5,1-.28,1.34-.81a1,1,0,0,0-.63-1.21c-.4.32.21.88-.32,1.16-.46-.35-.4-1.07-.91-1.38a.34.34,0,0,0,.16-.41l-.89-.32c-.27.4.1.8-.08,1.17-.25.1-.35-.08-.45-.24-.16-.57-.07-1.16-.22-1.75s.25-.89.76-1.19c.14.29.21.68.57.77s.62.09,1,.14c.16-.1.19-.31.27-.51-.22-.39-1,0-1-.68.47-.35.31.3.28.29a.8.8,0,0,0,.84-.32,1.85,1.85,0,0,0,.24-.38c.47,0,.28.4.58.37.23-.26.12-.57.11-.9a2.28,2.28,0,0,1-.9-.94,39.07,39.07,0,0,0,2.81-3.56c.27.87-.93,1.44-.2,2.2-.34.21-.71,0-1,.25-.25.49.39.42.42.73s-.07.71-.1,1.08-.57.29-.58.69a1,1,0,0,0,.58.53,2.24,2.24,0,0,0,1.09-2.33,5,5,0,0,1,.27-2.07,2.47,2.47,0,0,0,.19-.56c0-.84-.36-1.8.66-2.37,0-.91.69-1.47,1-2.31.11.73.11.73-.3,1.27l.32.71c.59-.06,1.17,0,1.11.87-.19-.29-.38-.61-.85-.31.1.35.21.72-.11,1-.46-.25-.79.06-1.21.21a3.59,3.59,0,0,1-.25,2c-.34,1,.22,1.45.82,2.07.27-.37.48-.67.63-.89,0-.36-.36-.44-.28-.73l.52-.25c-.57-.58-.57-.58-.6-1.7l.49-.55c.35.43-.31.79-.06,1.22.49.37.85,1,1.69.85-.23.62-.7.94-.76,1.49,0,.21.42.27.1.73l-.73.6a3.35,3.35,0,0,0-2.07-.91,1.21,1.21,0,0,0-.41.83,4.05,4.05,0,0,1,.78.7c.24.33.44.63.84.6.52-.22.23-.9.73-1.06a.74.74,0,0,0,.85.38c.19,0,.1-.55.48-.56l.3.63c.21-.6.65-.47,1.12-.32-.12-.85-.74-1.5-.24-2.21A2.86,2.86,0,0,1,98.32,76a2.74,2.74,0,0,0,.39-1,1.45,1.45,0,0,0-1.46-1l.08-.54a.85.85,0,0,0,.39-1.1,3.3,3.3,0,0,1-.15-1.72A1.8,1.8,0,0,0,96.86,69a3.07,3.07,0,0,1,.51-1.17c.42.34.46.8.64,1.18.24.06.23-.13.28-.28a1.9,1.9,0,0,1-.09,2.46l.41.18-.34.82.58.23c-.09.38-.73.71-.09,1.18.43.28,1.17,0,1.5.75.11.25.59,0,.92.09.17.27,0,.89.71.66.26-.3-.35-.27-.21-.48-.1-.5.54-.36.49-.9-.63-.52.6-1.58-.4-2.28a1.93,1.93,0,0,0-.29,2.09c-.66.23-.29-.52-.77-.51a3.7,3.7,0,0,0-1.24.46,8.57,8.57,0,0,1,.64-2.29c-.14-.26-.49-.29-.6-.62a1.53,1.53,0,0,1,.16-.26c.29-.34.78,0,1.09-.31,0-.26-.45-.25-.31-.57a.5.5,0,0,0,.59.12l-.21-.85a1.09,1.09,0,0,0-.76.32c-.42-.5-.42-1.17-.71-1.73.5-.56,0-1.38.49-1.94-.51-.81-1,.14-1.48,0-.19-.2,0-.41.09-.62A37.66,37.66,0,0,0,100,57.56a7.71,7.71,0,0,1,.28-1.15.6.6,0,0,0,.25.44l.91-.11c0-.51.89-.56.55-1.32-.49,0-1.1-.49-1.44.35-.26,0-.37-.11-.34-.34.06-.7.15-1.39.22-2,.34-.39.46.23.7.1.52-.18.52-.67.83-1.13-.58,0-.93-.49-1.57-.28-.3-1.68-.13-3.4-.54-5.13l.45.1c.29.41,1,.88,1.24.75a.7.7,0,0,0-.06-.77,3.06,3.06,0,0,0-1-.12l.33-.51c1-.37,1.36.36,1.66,1.09.49-.09.41-.51.67-.69l-.44-.7c-.13-.47.32-.45.28-.75l-.3-.13c0-.68.64-1.11.83-1.72-.42-.64-.89-1.28-.17-2-.24-.32-.48-.56-.94-.27a2.65,2.65,0,0,1,.45-1.59c-.1-.41-.58-.37-.65-.75a.77.77,0,0,1,.5-.55c.32.08.25.49.52.61.36.38.84.15,1.21.36.13-.3.12-.48,0-.63A2.09,2.09,0,0,1,103.32,38.75ZM18.22,61.94a.71.71,0,0,0,.47.36c.11-.28.48-.47.28-.85-.43-.24-.44.18-.62.33-.32-.34-.79-.22-1.18-.32-.18,0-.38.23-.31.52s.38.23.67.36C17.59,61.94,17.89,61.9,18.22,61.94ZM34.29,87.85c.4.75.4.75,1,.36,0-.25-.31-.22-.3-.44s.61-.23.48-.66c-.24-.17-.53-.07-.79-.14a.37.37,0,0,0-.45-.12L33.69,88A.52.52,0,0,0,34.29,87.85ZM93.82,25.56c-.34.07-.06-.61-.52-.4s-.09.57,0,.86a2,2,0,0,0-.64.75c.3.1,0,.56.43.71a1.83,1.83,0,0,1,.53-.93A.94.94,0,0,0,94,25.7c.14,0,.32,0,.43-.29l-.34-1.13-.16,0ZM62.62,98.18c.45.15.22.93.86.9.11-.87.11-.87-.72-1,.15-.14.48-.12.41-.55s-.89-.55-.64-1.23c.36-.07.49.38.72.38.52-.15.85-.33.57-.89l-.65-.17c.11-.6.88-.76,1-1.41A1.16,1.16,0,0,0,63,94.07c-.21.29,0,.44,0,.63-.84.23-.87.31-.64,1.42l-1,1.33Zm43.45-39.29a.56.56,0,0,0,0,.91c.34.31.56.2.62-.25l.55-.08c.11-.43-.3-.67-.23-1,.26-.15.65-.1.77-.51-.23-.65,0-1.6-1.1-1.75-.28.37-.27.88-.64,1-.14.53.37.62.46,1C106,58.21,106.09,58.58,106.07,58.89ZM97.66,26.66c.28.22-.14.61.2.84.55-.23.38-.74.55-1.1-.3-.15-.45,0-.62.1-.46-.54.21-1,.1-1.52a1.9,1.9,0,0,0-1.32-.41.13.13,0,0,1-.12-.17c.09-.27.86-.09.43-.7-.67,0-1,.53-1.34.92.13.41.54.4.72.65-.14.07-.37.09-.41.2a1.81,1.81,0,0,0,0,1.83,3.8,3.8,0,0,1,.53,1.91.7.7,0,0,0,1-.1c-.16-.25-.06-.52,0-.77-.2-.24-.57,0-.75-.31.18-.29.72-.14.77-.58.06-.19-.3-.16-.15-.45ZM38.33,90.89c.92-.91,1.36-1.61,1.21-1.87s-.67-.14-.8-.36c0-.38.35-.28.33-.58-.36-.23-.84,0-1.22-.28-.15.41-.61.33-.91.67a2.69,2.69,0,0,1-.2,1.75,1.51,1.51,0,0,0,.38,1.62c.26-.41-.16-.88,0-1.24C37.67,90.34,38,90.66,38.33,90.89ZM59.6,95.45c-.83-.25-1.39-1.08-2.36-.76,0,.91.79,1.5.63,2.44.39-.37.69-.66,1.12-.24l-.28,1.19A1.2,1.2,0,0,0,59.78,98,6.29,6.29,0,0,1,59.6,95.45ZM49.22,97.06a4.81,4.81,0,0,0,2.18-1.14l.17-1.12c-.36-.18-.63.27-.94,0s.38-.81-.26-1C49.21,94.63,49.32,95.86,49.22,97.06ZM22.83,61.75c-.87-.26-.34-1.25-1.15-1.54-.19.74.37,1.83-1,1.92.48.62-.1,1.38.42,1.92.57-.1.75-.61,1.09-.9S22.33,62.26,22.83,61.75Zm57.42,30.7A1.41,1.41,0,0,1,81,90.93c-.89-.64-1-.66-1.64-.29a2.46,2.46,0,0,0-.56,1.87.78.78,0,0,0,.59.52ZM106.89,56c-.15-1.23-.94-1.95-1.09-3.2l-.33,1.06-.84-.27c-.47-.29-.23-.77-.65-1a3.25,3.25,0,0,0,0,1.2c.35.7,1,.65,1.48.77.32.41-.19.67,0,1s.37-.23.61-.17ZM83.55,85.78a4.73,4.73,0,0,0,.52,1.4.87.87,0,0,0-.46.5c.36.33.63.85,1.32.55l.55-.83c-.94-.36-.58-1.48-1.24-2A1.15,1.15,0,0,0,83.55,85.78Zm17.5-26.53c.59-.11,1-.44,1.43-.23l.21-.83c.59-.29.75.14,1,.46-.17.17-.44.25-.31.56a.73.73,0,0,0,.82-1.06c-.47-.59-1.48-.2-1.77-1.07A5.13,5.13,0,0,0,101.05,59.25ZM65.62,95l.3-.13c1-.35,1.09-.76.31-1.39-.26-.21-.28-.7-.78-.67a2.73,2.73,0,0,0-.83.86Zm37.54-29.59c.59-1.23.44-1.85-.6-2.51-.5.27-.14.77-.27,1.16C102,64.83,102.24,65,103.16,65.41Zm-33,29.85c0-.69,1.1-1,.58-1.9a.52.52,0,0,0-.56,0c-.12.17.2.38,0,.53s-.22-.43-.52-.35a1.26,1.26,0,0,0-.71.39,1.24,1.24,0,0,0,.07,1c.35,0,.43-.37.72-.39.1.22-.24.41,0,.64S70,95.26,70.2,95.26Zm5.69-4.72c.44-.43.44-.43.39-1-.25.35-.77,0-1,.59-.15.34-.6.6-.62,1.1s.46.56.67.86l.58-.55ZM17.47,58.75a.69.69,0,0,0-.87.38c-.13.57.26,1.12.06,1.71.27.11.47.44.83.26.1-.27-.29-.38-.13-.78.07-.24.65-.22.72-.69ZM106.52,63c.58-1.53.58-1.55-.48-2.1-.59.14-.67.65-.81,1.13C105.73,62.25,106,62.76,106.52,63ZM19.7,56.62l-1.08-.22c-.43.16-.25.64-.52.83.2.67.57,1,1.38.72C19.5,57.56,19.86,57.23,19.7,56.62Zm7,24.09c-.33-.19-.55-.44-.95-.33-.06.38-.41.61-.64,1,.57.27.54.85.69,1.47.4-.32.63-.49.53-1C26.3,81.56,26.58,81.16,26.74,80.71ZM25,77.81c-.36-.11-.41-.65-.82-.78-.33.21,0,.49-.14.69s-.85.06-.86.67c.46.24,1.13-.14,1.52.58C24.81,78.56,25.12,78.36,25,77.81ZM105.5,68.1a2.58,2.58,0,0,1-.61-1.46c-.4.42-.62.76-.29,1.2-.16.26-.52.29-.59.65l.82.57Zm-85.61-7c.3-.62.93-1.07.93-1.88-.5.54-1.52-.17-1.85.82C19.84,60.12,19.84,60.12,19.89,61.08ZM37.78,87.25c.6-.33,1.2-.23,1.69-.63-.3-.49-.79-.21-1.08-.43s-.26-.58-.61-.72A3.65,3.65,0,0,0,37.78,87.25Zm63.09-23.9A4,4,0,0,1,101.93,62c-.63-.29-1.14-.59-1.61.07C100.27,62.6,100.83,62.84,100.87,63.35Zm-31,28.18L68.68,92a2.22,2.22,0,0,0,.16,1.41C69.12,92.62,70.17,92.49,69.89,91.53ZM25.52,76.42a2.41,2.41,0,0,1,.18-2.21c-.17-.28-.32-.39-.59-.34-.6.65.16,1.49-.35,2.15C25,76.19,25.13,76.45,25.52,76.42ZM77.09,91.07c.46.21.77.56,1.19.19a1,1,0,0,0-.37-1.08C77.11,90.06,77.35,90.73,77.09,91.07ZM17.61,54.37c-.46,0-.76-.36-1.21-.36-.07.38-.59.54-.5,1l.82.13C16.88,54.81,17.31,54.76,17.61,54.37ZM34.9,83.29l.31.95c-.23.21-.58.25-.49.67l.84.17a11,11,0,0,1,.2-1.77A.85.85,0,0,0,34.9,83.29Zm65.63-16.86c-.38,0-.6.11-.59.45a2.36,2.36,0,0,0,.73,1.36C101.13,67.47,100.69,67,100.53,66.43ZM40.37,94a1.88,1.88,0,0,1,.22-1.1c-.27-.28-.43-.66-.85-.5-.24.34.08.56.09.82s-.2.52-.06.78a1.61,1.61,0,0,0,.25.07A2.85,2.85,0,0,0,40.37,94ZM87.1,14.78a.8.8,0,0,0-.12-1c-.26-.08-.5.19-.75,0C86.22,14.73,86.22,14.73,87.1,14.78Zm-25.79,80c.09.49-.45,1,.31,1.41.61-.37.45-.88.27-1.41Zm9-84.28c.42-.68.42-.68-.58-1.09a.9.9,0,0,0-.28.61A1.1,1.1,0,0,0,70.32,10.46Zm31.16,65.33c-.36,0-.7-.18-.88.24a.92.92,0,0,0,.82.72A.76.76,0,0,0,101.48,75.79ZM30,81c-.38-.57-1.07-.14-1.4-.58-.24.2-.34.36-.15.7C29,80.85,29.49,81.56,30,81ZM90.9,20.5c-.64-.3-.77.08-1,.42s-.19.66.33.83A3.17,3.17,0,0,1,90.9,20.5ZM25.11,72.18c.27.78.72,1.15,1,.89.13-.13.1-.29.06-.55C25.82,72.61,25.57,72.16,25.11,72.18Zm76-7.3c0-.47-.29-.63-.58-.83-.24.12-.41.26-.38.56C100.35,65,100.65,65.16,101.08,64.88ZM95.86,22.79c-.25.24-.67.4-.41,1,.34-.31.77-.26,1.13-.46C96.49,22.9,96.19,22.85,95.86,22.79ZM18.41,64.26c.64-.43.31-.94.22-1.68C18.15,63.25,17.92,63.7,18.41,64.26ZM53.59,94.42,53,93.58c-.27.36-.6.67-.28,1.13C53,94.85,53.22,94.56,53.59,94.42Zm32.35-80c-.65.82-.65.82-.1,1.38A1.66,1.66,0,0,0,85.94,14.41Zm-3.26,1.32c.33-.13.33-.13.66-.51-.25-.29-.6-.23-.89-.34A.56.56,0,0,0,82.68,15.73Zm8.47,5.62a1,1,0,0,0-.38.79c.29.13.48.54,1,.26C91.34,22.16,91.67,21.56,91.15,21.35ZM19,65.69c0,.46-.5.82.08,1.19a.85.85,0,0,0,.6-.6Zm.59-14.6c-.41,1-.41,1,0,1.44C19.88,52.13,19.82,51.74,19.6,51.09ZM54.08,95.2c.42.1.72.08.88-.34-.21-.17-.32-.44-.6-.52A1.08,1.08,0,0,0,54.08,95.2Zm-8.91-.35c-.37-.49-.66-.47-.93,0a.85.85,0,0,0,.65.57ZM70.36,14.16c.27.25.44.41.7.36s.38-.51.48-.94C71,13.67,70.86,14.18,70.36,14.16Zm21,4c-.62,0-1-.15-1.35.2.06.24.13.43.41.49C90.59,18.58,90.9,18.5,91.37,18.16Zm-3.83,5.27c.4-.48.4-.48-.07-1.06A.64.64,0,0,0,87.54,23.43Zm2.66,0c.12-.71.12-.71-.38-1C89.75,22.81,89.66,23.2,90.2,23.41ZM50.64,93.23a1.74,1.74,0,0,0-.37-.9c-.08.46-.37.76-.27,1.17C50.31,93.61,50.48,93.5,50.64,93.23Zm-1.55-3.15c-.42.57-.11.91,0,1.29C49.85,91,49.38,90.61,49.09,90.08ZM16.43,57c.73,0,.73,0,.81-.67A.83.83,0,0,0,16.43,57Zm88.39,6.09a1.11,1.11,0,0,0,0-1.21C104.3,62.27,104.29,62.6,104.82,63.09ZM23.43,72.45c.45-.35.54-.63.27-1-.29-.07-.44.1-.59.35Zm46.37-65a.94.94,0,0,0-.61.57c.16.14.07.49.43.48.1-.29.19-.58.28-.87C69.91,7.58,69.87,7.54,69.8,7.43Zm12.82,4.26c-.59,0-.77.25-.67.74C82.42,12.42,82.61,12.23,82.62,11.69ZM93.08,20a1,1,0,0,0,.51-.84C92.8,19.07,92.84,19.4,93.08,20Zm8.28,30.53a.49.49,0,0,0,.66,0c-.2-.21,0-.57-.34-.78C101.5,49.93,101.26,50.13,101.36,50.51ZM18.07,52.18a.93.93,0,0,0-.69-.35c-.12.44.14.64.31.88A.57.57,0,0,0,18.07,52.18ZM47.61,92c.29,0,.53-.07.64-.34-.15-.2-.09-.57-.54-.56A1.44,1.44,0,0,0,47.61,92Zm-31-39.44c-.54,0-.64,0-.7.12a.51.51,0,0,0,.61.5A.48.48,0,0,0,16.58,52.6ZM90.76,81.88a1.16,1.16,0,0,0-1.18,0C90,82.15,90.3,82.56,90.76,81.88Zm-60.19-.25a.52.52,0,0,0,.06.59,2.17,2.17,0,0,0,.81-.61A.8.8,0,0,0,30.57,81.63Zm-.22-1.23c-.18.51-.06.77.4.87l.26-.33A1.07,1.07,0,0,0,30.35,80.4Zm-3.53-6.09c-.11.26-.48.08-.54.44l.57.53C27,75,27.34,74.78,26.82,74.31Zm-3.05-8.06c-.5-.23-.78,0-1.16.39C23.15,66.74,23.55,66.82,23.77,66.25ZM96.05,30.06c.38.3.54.05.68-.24a.47.47,0,0,0-.34-.32A.57.57,0,0,0,96.05,30.06ZM55.35,93c.18-.08.37-.14.32-.4s-.35-.45-.65-.16C55,92.77,55.14,92.91,55.35,93ZM35.5,91.3a1.59,1.59,0,0,0-.3-.83,1.15,1.15,0,0,0-.23.92C35.19,91.41,35.35,91.46,35.5,91.3Zm8.26-.6c.31-.18.3-.41.15-.69s-.35-.11-.57,0C43.49,90.21,43.43,90.54,43.76,90.7ZM84.56,89c-.31-.27-.49-.58-1-.39C83.8,88.92,83.93,89.34,84.56,89Zm6.93-2-.23,0-.19,1.22C91.72,87.75,91.5,87.34,91.49,87ZM33.18,83.61c.26.14.47.24.7-.12-.28,0,0-.45-.42-.43A.48.48,0,0,0,33.18,83.61Zm-4.76-4c.33-.21.57-.35.3-.79C28.37,79,28,79,28.42,79.65ZM23.8,75.46c.08-.39-.16-.6-.34-.85-.21.13-.35.21-.32.4S23.42,75.48,23.8,75.46Zm-2.25-7.85c.41-.33.41-.33,0-.71C21.38,67.14,21.28,67.37,21.55,67.61Z"/><path class="cls-1" d="M81.74,94.92c.32-.47.92-.42,1.21-.86.23.21.28.4,0,.55S82.22,95.09,81.74,94.92Z"/><path class="cls-1" d="M95.33,83.23c-.53,0-1.13.24-1.33-.59.64-.18.87.48,1.33.58Z"/><path class="cls-1" d="M85.5,91.62l.31.14c.15.26-.09.33-.21.48-.25-.17.07-.44-.11-.61Z"/><path class="cls-1" d="M41.87,61.54c0-.37-.23-.51-.55-.42a7.22,7.22,0,0,0-1,.4,2,2,0,0,1-.45-1.42c.19-.4.7-.65.81-1.27a7.28,7.28,0,0,0-1.55-1.59c0-.52.79-.32.73-.87,0-.37-.26-.45-.63-.47s-.18-.57-.52-.79l-.53,0h0c-.19-.66-.19-.66-1.15-.9a11.66,11.66,0,0,1-1.41-5c-.14-1.71.39-2.15,2.2-1.83-.09-.63-.6-1-.71-1.6.06-.3.45-.13.56-.36a1.18,1.18,0,0,0-.31-1.29c-.54.15-.29.44-.13.7,0,.11-.09.14-.17.07A3.68,3.68,0,0,1,36,42.36a12.37,12.37,0,0,1,1-7.54c.34-.41.93-.38,1.17-.85.06-.25-.3-.22-.3-.44.65-.5.92-.55,1.42-.15a5.47,5.47,0,0,1,.75.77,32.19,32.19,0,0,0,18.1,10.5,8.15,8.15,0,0,0,2.68.45.89.89,0,0,0,.64-.21c.15-1.06,0-2.22.2-3.36a17.34,17.34,0,0,1,1.16-3.26,11.82,11.82,0,0,1,1.85-2.88,11.34,11.34,0,0,1,2.61-2.27,12.83,12.83,0,0,1,3.24-1.53A12.34,12.34,0,0,1,73.9,31a14.48,14.48,0,0,1,3.41.3,12.31,12.31,0,0,1,3.36,1.22,14,14,0,0,1,2.8,2c1.53-.06,2.81-1,4.37-1.09a5.13,5.13,0,0,1,2.62-1.46c1-.25,1.58.55,1.31,1.53a6.37,6.37,0,0,1-.68,1.64c-.24.31-.58,0-.72.45.53.55-.77,1.06-.11,1.72-.16.15-.35.24-.36.5.2.26.48.14.73.1.31-.22.12-.61.32-.9a2.75,2.75,0,0,1,.93-.44c.68.21.39,1,.81,1.34h0a2.67,2.67,0,0,1-1,2.4c-.18,0-.21-.34-.47-.25,0,0-.15.13-.14.16.12.3.22.61,0,.89s-.59,1-1.14.93-.25.43-.51.53-.12-.52-.49-.59-.55.3-.72.61c.13.34.43.42.84.48-.48.49-.81,1-1.51.63-.21.63-.71,1.13-.74,1.81.11.39.54.31.78.57A35,35,0,0,1,73.9,72.64c-.39.29-.75.62-1.29.44a1.15,1.15,0,0,0-.61-.91c0,.53-.18,1,.47,1,.06.38-.18.59-.46.76a29,29,0,0,1-4.31,2.36L66.64,76c0-.49-.4-1-.13-1.73a1,1,0,0,0-.61,1.22c.08.52.24,1.18,1.15,1.13a16,16,0,0,1-2.69,1.07c-.87.27-1.75.53-2.64.75s-1.86.44-2.8.6a16.89,16.89,0,0,1-2.74.3,20.14,20.14,0,0,0-2.39.18c-.51-.35-.3-.76-.54-1l-.77.2c0,.44.55.12.5.62-.61-.16-1.23.61-1.89-.07,0,0-.2.06-.31.08a12,12,0,0,1-3.68-.27,1.13,1.13,0,0,1-.79-.57c-.28.12-.47.41-.88.31a37.08,37.08,0,0,1-8.22-2.86q-.27-.66-.51-1.29c-.44.13-.53.4-.33.9-.84-.48-1.54-.85-2.21-1.27-1-.65-1-1.31-.21-2.15,2-.22,4,0,5.86-.11.32.11.21.46.43.59.29-.15.11-.55.38-.7.85-.4,1.85-.07,2.67-.57l.25.29c.4.06.14-.56.4-.5.56-.11.73.47,1.18.39s.43-.52.45-.92l1.69-.73c.43.19.26.64.54.92.46-.22.31-.54.13-.92A1.54,1.54,0,0,0,49,69.41l-1-1.09c-.85.33-1.44-.23-2-.51-.36-.3-.11-.78-.46-1-.1-.09-.23-.15-.32-.06-.34.36-.62.24-.93-.09s.32-.8-.28-1L43.74,65c.13-.27-.08-.64.22-.87.23,0,.43.29.7,0-.1-.31.2-.64,0-1.06-.36,0-.69-.41-1.07-.24-.26.38.21.52.14.77l-.67.78.21.32h0c-.3-.16-.52.14-.82.14a2.62,2.62,0,0,1-1.09-2c-.29,0-.5-.13-.58-.32-.17-.39.19-.55.23-.81.24-.13.53.25.75-.09.12.67.56.45,1,.37l-.6-.92Zm21.7-21c.11.29-.36.53-.08.85s.47-.07.62-.31c-.13-.22-.13-.52-.39-.67l-.4-.85c-.27.12-.6.07-.82.34A1.38,1.38,0,0,0,63.57,40.57Zm-9,31.08.13-.37a1,1,0,0,0-1.07.11c.17.43-.43.7-.33,1.23.76.18.69-.67,1.12-.83.14.69-.56,1.06-.64,1.67a.41.41,0,0,0,.07.35.76.76,0,0,0,.88-.07c-.05-.35-.3-.69,0-1.12A.76.76,0,0,0,54.62,71.65Zm7.52,1.08a1,1,0,0,0,.67.87c.23-.12.41-.25.36-.56-.2-.31-.68-.12-.89-.44,0-.67.41-1.29.2-1.87l1.66-1.36c-1-.29-1.58.44-2.37.43l.09.42c-.18.08-.4-.06-.58.14-.4.94.74,1.57.4,2.58ZM51.32,77.28c-.19.34-.36.67.11,1a1.07,1.07,0,0,0,.47-.84c-.11-.23-.28-.21-.42-.25.66-1.22.53-2.58.72-3.86L51,73c-.06.36,0,.76-.25,1.07l.65.28a1.76,1.76,0,0,0-.46,1.06c-.26.16-.56.06-.69.34a1,1,0,0,0,0,.69c.19.26.54.08.77.28S51.07,77.15,51.32,77.28ZM55,67.39c-.1.76-.14,1.4-.19,2s.83,1,.67,1.79c.44.13.71.49,1.14.42.17-.33-.13-.69.1-1,.2,0,.41.33.55.1.14-.78-.86-.21-.8-.81s-1-.28-.74-1l1.63-.34c.11-.43-.17-.61-.3-.86-.49.2-1,.22-1.36.63A2.89,2.89,0,0,0,55,67.39Zm32.06-27.8c.61-1.73.51-2.14-.57-2.62a1.16,1.16,0,0,1-1.27.5c0,.78.92.67,1,1.27-.05.23-.46.36-.23.74Zm-19.79,33c.24-.25.57-.42.67-.83-.45-.39-.06-1-.34-1.6-.33.45-.7-.06-1.07.19-.38.74-.38.74.34,1.39,0,.35-.4.35-.55.59.15.54.39,1,1,1.11a.52.52,0,0,0,0-.85ZM59.67,75.3a1.22,1.22,0,0,1-1.13,1.19c.34.67,1.06.8,1.54,1.22.21.18.52-.06.66-.35l-.34-1.15a2,2,0,0,0,.3-.84A1.53,1.53,0,0,0,59.67,75.3ZM88.19,40.78a2.2,2.2,0,0,0,2-1.45c-.13-.19-.12-.47-.42-.53-.56-.13-.68.43-1,.67-.23-.11-.4-.25-.62-.14C87.6,39.79,88.48,40.24,88.19,40.78ZM44.12,57.94c-.06-.7.54-.71.59-1.16a1.16,1.16,0,0,0-.78-.46,2.08,2.08,0,0,0-.79.71c-.25-.21-.49-.44-.86-.32-.09.52.24.9.14,1.3C43,58.23,43.33,57.33,44.12,57.94ZM42.29,74.48c.63.77.63.77.61,1.52A1.31,1.31,0,0,0,44,75.93c-.18-.4.13-.81,0-1.22L42.5,73.58C42.25,73.87,42.56,74.22,42.29,74.48Zm14.14,3.68c0-.87,1.16-.58,1.38-1.38-.45,0-.56-.42-.75-.73A8.16,8.16,0,0,0,56,77a8.1,8.1,0,0,0-.69,1.18A1.67,1.67,0,0,0,56.43,78.16Zm27.83-32c.44.5.78,1,1.52,1,.32-.46-.11-.75-.17-1.1.09-.12.32,0,.38-.32a1,1,0,0,0-.78-.72C84.67,45.27,84.66,45.84,84.26,46.14ZM44.65,77.35a6.42,6.42,0,0,1,.81.48c.22.19.32.58.73.23.16-.14.42.41.65-.07-.49-.65-.75-1.59-1.85-1.75C44.82,76.65,45.31,77.14,44.65,77.35ZM84.77,48c0,1.44,0,1.44.79,2.17.61-.65.24-1.43.44-2.21A1.4,1.4,0,0,1,84.77,48Zm-8.89-8.08c.23-.46-.08-.78-.35-1.1a2.81,2.81,0,0,0,.76-.86.54.54,0,0,0-.78.13,4.88,4.88,0,0,0-1,2.26ZM68.72,73.55c.27.37,0,.87.29,1.25.21,0,.37.31.7.09-.35-.48.14-.84.21-1.33-.27-.29-.06-.92-.78-1.11C69.24,72.94,68.84,73.17,68.72,73.55ZM79,43.76c.19.83.45,1.14.89,1l.58-.84c-.18-.2-.17-.49-.4-.58C79.59,43.27,79.3,43.54,79,43.76ZM64.07,37.85c-.57.92-.46,1.11.78,1.37C65.22,38.44,65,38.08,64.07,37.85Zm15.49-.7c-.2-.33-.46-.34-.72-.49a1.7,1.7,0,0,1-1,1.07c.14.27.16.48.34.58l.77-.24ZM83,42.67c.19-.38.55-.59.64-1-.22-.28-.12-.75-.63-1C82.83,41.37,82.45,42,83,42.67ZM40.43,47.21c-.89.56-1,.87-.43,1.19l.84-.28A1,1,0,0,0,40.43,47.21ZM63.87,71.83c.92.31.31,1.29.88,1.77C65.24,72.48,65,71.84,63.87,71.83ZM37.7,41.4c.14-.52,0-.8-.46-.92a1,1,0,0,0-.63.92A1.26,1.26,0,0,0,37.7,41.4ZM76,48.2c-.33-.07-.64-.16-.87.16.45.67,1,.94,1.44.68ZM46.87,50.68c0-.3.42-.47.12-.79a.55.55,0,0,0-.54,0c0,.44-.28.88,0,1.35.38.16.67.1.84-.29C47.23,50.76,47,50.81,46.87,50.68Zm35.2-.87c.1-1-.09-1.34-1-1.46C81.39,48.87,81.28,49.55,82.07,49.81ZM81.13,53c.47-.16.32-.61.48-1-.46-.1-.83-.19-1.17.1C80.48,52.63,80.79,52.81,81.13,53Zm1.24-7.42a1,1,0,0,0,.54,1l.67-1C83.08,45.13,82.75,45.57,82.37,45.6ZM90.7,32.84c-.35-.42-.72-.37-1.2-.11a2.41,2.41,0,0,0,1.06,1.15A1.76,1.76,0,0,1,90.7,32.84Zm-16.08,5.5c0-.39.68-.37.5-1-.46.21-1-.29-1.49.32C74.06,37.78,74.2,38.13,74.62,38.34ZM48.45,73.6a1.4,1.4,0,0,0,.18,1c.29,0,.56.26.88.1C49.57,73.88,48.75,74,48.45,73.6Zm2.16-8.35a.61.61,0,0,0-.6,0l-.17.89c.27,0,.54.11.79-.09A.84.84,0,0,0,50.61,65.25ZM48.39,54.44c-.17.31-.44.52-.28.87a.75.75,0,0,0,.86,0C48.94,54.77,48.94,54.77,48.39,54.44ZM46.22,67.05c.52.06,1,.32,1.32,0,.08-.43-.24-.29-.35-.41s-.25-.29-.5-.18Zm8.08-1.5a1.27,1.27,0,0,0-1.2.81l.69.33C53.8,66.23,54.32,66.11,54.3,65.55Zm-7.78-2.5a2.55,2.55,0,0,0,.81-.85L47,61.87a2.07,2.07,0,0,0-.86.82A.63.63,0,0,0,46.52,63.05Zm3.09,14.62a.89.89,0,0,0,.31-.61c-.29-.13-.34-.53-.7-.56-.3.12-.35.38-.39.75C49.22,77.16,49.38,77.46,49.61,77.67Zm36-24.43a1.11,1.11,0,0,0-.56.92c.34,0,.08.62.52.51C85.87,54.16,85.87,54.16,85.62,53.24ZM72.16,71.47a1.87,1.87,0,0,0,.18-1.87A1.51,1.51,0,0,0,72.16,71.47ZM53.26,76l1-.22c-.33-.3.15-.7-.22-1C53.51,75,53.44,75.44,53.26,76ZM72.08,43c.57-.74.57-.74,0-1.29C71.57,42.14,72.2,42.59,72.08,43Zm-16.67,34c.43-.55.1-.91,0-1.26a.63.63,0,0,0-.56.08ZM43.54,53.64c.55.21.85,0,.92-.55C43.81,52.76,43.67,53.16,43.54,53.64Zm34.8,7.57.61.89c.13-.57.29-1.05-.27-1.39C78.45,60.83,78.44,61.05,78.34,61.21ZM63.65,67.05c-.29-.46-.59-.56-1-.25a1.14,1.14,0,0,0,.39.81Zm-7.51,7.32c.1-.3.18-.51,0-.72a.81.81,0,0,0-.79.07A1,1,0,0,0,56.14,74.37ZM78.86,45.58c-.09.32-.62.34-.55.82.32.2.58.23.77-.15S79.29,45.75,78.86,45.58Zm-30,32.07a.76.76,0,0,0-.48.71c.15.26.31.34.54.28A.74.74,0,0,0,48.84,77.65Zm11.92-3.84c0-.25,0-.39-.27-.44l-.93.35C60,74.32,60.39,73.8,60.76,73.81Zm-4.29,1.4c.3.39.58.49.93.22.05-.2.09-.39-.1-.54C57.05,75,56.75,75,56.47,75.21ZM87.7,37.59c.56-.77.56-.77.22-1.62ZM67.18,40.42a.45.45,0,0,0-.08-.65c-.22,0-.51-.11-.57.3C66.66,40.36,66.91,40.4,67.18,40.42Zm9.43,6a.92.92,0,0,0,.7-.53c-.08-.21-.13-.44-.38-.57A3,3,0,0,0,76.61,46.46Zm-1.42-.81c.38.17.33.6.67.85l.21-.9A.87.87,0,0,0,75.19,45.65Zm11.06,3.59c.06.18.14.35.38.34s.45-.29.47-.6C86.72,48.74,86.45,48.88,86.25,49.24ZM43.12,60.74c.15-.41.59-.62.27-1-.31-.08-.45.1-.6.34ZM65.07,74.3c-.57.1-.79.29-.59.78C64.92,75,65.12,74.85,65.07,74.3Zm-4.61-2.74c-.48.64-.48.64.07,1A1.43,1.43,0,0,0,60.46,71.56ZM48,76.78c-.77,0-.94.14-.82.47l.26.2A1,1,0,0,0,48,76.78ZM65.49,37.06c-.59-.4-.59-.4-.85,0A.65.65,0,0,0,65.49,37.06ZM83.4,37a.63.63,0,0,0,.62.56c.07-.22.14-.43-.08-.62A.53.53,0,0,0,83.4,37Zm-16.09.19c-.31.19-.61.4-.51.91C67.3,37.93,67.35,37.58,67.31,37.17ZM36.12,41.79c.08.26,0,.6.49.66a.74.74,0,0,0,0-.76C36.42,41.67,36.27,41.63,36.12,41.79Zm.93,2.05c.69-.22.69-.22.29-.65A.5.5,0,0,0,37.05,43.84Zm5.33,4.34a.66.66,0,0,0,.24-1.08C42.66,47.46,42.12,47.68,42.38,48.18ZM45,60c-.17.66.07.79.59.63C45.55,60.28,45.35,60.11,45,60ZM56.6,72.69c-.42.5-.42.5,0,.84A.78.78,0,0,0,56.6,72.69Zm-5.94-1.07c.05.34.18.5.5.52.09-.16.38-.23.23-.55A.71.71,0,0,0,50.66,71.62Zm17.1,4.5c.29-.4.36-.65-.06-.84C67.39,75.56,67.4,75.79,67.76,76.12Zm-6.08,0c.6-.19.6-.19.39-1Z"/><path class="cls-1" d="M99.72,45.75c-.37-1.51-.75-3-1.13-4.53.22-.28.48-.17.8-.07,0,.39.1.83.56.92.47,1.08-.19,2.06-.12,2.8s.63.65.83,1.05A1.87,1.87,0,0,0,99.72,45.75Z"/><path class="cls-1" d="M88.39,83.26c.1.16.2.34.45.24.71.08.1.82.68,1-.39.13-.66.18-.8,0a1.22,1.22,0,0,0-.86-.5l-.61.25,0-.24C87.28,83.16,87.9,83.33,88.39,83.26Z"/><path class="cls-1" d="M101.27,42.39c.19-.63-.53-1-.79-1.45a.35.35,0,0,1,.62-.09c.32.69,1,1.13,1.22,1.86,0,.06,0,.14-.07.21Z"/><path class="cls-1" d="M101.58,29v.34c.13.28.59-.28.63.35-.27.31-.81.28-1.06.7-.29-.32-.46-.65-.82-.82.31-.44.8-.46,1.24-.58Z"/><path class="cls-1" d="M104.93,41.22l.4-.26c-.08-.3-.29-.61.11-.94l.65.62c-.81.08-.51.79-.63,1.24-.5-.05,0-.69-.52-.65Z"/><path class="cls-1" d="M43.74,65l.22.65c-.05.14-.05.31-.24.42-.36,0-.55-.35-.76-.61s.36-.42.29-.73h0C43.42,64.83,43.52,65,43.74,65Z"/><path class="cls-1" d="M22.1,55.43l.45-.53.22,1.59A1.41,1.41,0,0,1,22.1,55.43Z"/><path class="cls-1" d="M38.22,55.15c0,.38.4.64.31,1.06a1.48,1.48,0,0,1-.82-1c.12-.32.35,0,.5-.08Z"/><path class="cls-1" d="M28.4,75.29a2.88,2.88,0,0,0,.39-.81c.33,0,.25.32.34.49C29,75.28,28.7,75.27,28.4,75.29Z"/><path class="cls-1" d="M101.57,29c0-.38-.54-.51-.37-.93.42.41.42.41.38.94Z"/><path class="cls-1" d="M96,34.52h-.23a1.17,1.17,0,0,1-.37-.77A.87.87,0,0,1,96,34.52Z"/><path class="cls-1" d="M92.69,37.86c.31-.23.28-.6.36-1,0,.65,0,.65-.35,1Z"/><path class="cls-1" d="M107.33,49.86c.08-.24-.24-.24-.25-.42.18-.3.35-.22.53,0s-.15.32-.27.45Z"/><path class="cls-1" d="M23.68,65.23c.14-.37.31-.39.51-.09C24,65.42,23.84,65.05,23.68,65.23Z"/></g></svg>