<svg xmlns="http://www.w3.org/2000/svg" viewBox="0 0 122.97 105.51"><defs><style>.cls-1{fill:#e91a83;}</style></defs><g id="OBJECTS"><path class="cls-1" d="M93.23,87.08c-.12.64-.78.24-1.06.56-.2,1-.21.93-1.34,1.14a.69.69,0,0,0-.58,1c-1.19.81-2.1,2-3.55,2.37l-.42-.54c0-.21,0-.46-.23-.64a1,1,0,0,1-.74.15c-.12-.4.47-1-.29-1.26-.16.43,0,.93-.33,1.26-.3,0-.52.15-.65.57.6-.13.51.69,1.11.72.23-.49-.14-.79-.32-1.14h.35c.22.34.71.15.95.47-.49,1.47-1.31,2.17-2.52,2.12a2.71,2.71,0,0,1-1.48,1.08c-.34-.31-.25-.89-.65-1.17a2.53,2.53,0,0,1,.13-1.08c-.29-.34-.56-.43-.94-.18,0,.54,0,1.14.67,1.4,0,1.29-.81,1.89-2,2.34a46.23,46.23,0,0,1-14.24,3.34,1.63,1.63,0,0,0-1,.24h-5a1.85,1.85,0,0,0-1-.24,44.15,44.15,0,0,1-12.6-2.67A46.36,46.36,0,0,1,35.73,92c-.38-.25-.87-.43-.75-1.11a2.24,2.24,0,0,1-1.73-.63,48,48,0,0,1-8.33-8.09c-.28-.35-.73-.63-.68-1.2,0-.11-.15-.26-.27-.36a11.65,11.65,0,0,1-2.73-3.86,2.86,2.86,0,0,0-.23-.52A19.17,19.17,0,0,1,18.1,70.3c0-.25.42-.19.33-.47l-.72-.45c0-.34-.37-.58-.29-1,.67.57.67.57,1.43,0-.69.1-.73-.59-1.17-.73-.26.1-.48.24-.73,0-.37-1.16-1-2.34-.31-3.55-.16-.44-.57-.21-.7-.38a19.12,19.12,0,0,1-.9-4.2c.23,0,.35.27.57.13s.16-.48-.13-.61-.6-.09-.36-.53c-.6-1-.27-2.19-.42-3.28.14,0,.23.22.41.14s.13-.24.19-.37c.08.14,0,.35.28.4.45-.29.41-.69.25-1.14-.47-.12-.82-.72-1.39-.26V50.1a2.57,2.57,0,0,0,.27-1.49,29.17,29.17,0,0,1,.64-4.47c0,.23-.07.47.18.63a.76.76,0,0,0,.53-.6.92.92,0,0,0-.63-.1A7,7,0,0,1,15.77,42c.2-.28.53-.18.7-.27a.52.52,0,0,0,.12-.59c-.18-.17-.39.11-.59-.12a43.47,43.47,0,0,1,4.14-10.52,2.64,2.64,0,0,0,.21,1.93c.36.23.79.36,1,.94a6.53,6.53,0,0,0,.52-1.73l-.36-.32-1.21-.93a2.64,2.64,0,0,1,.64-1.19c0,.53-.17,1,.37,1.19.35-.14,0-.49.19-.74l1.31-.34c0,.19,0,.4.15.58.37-.33.91-.5,1.07-1.07-.53-.27-.77.14-1.09.34-.46-.38-.95-.59-1.5-.08-.12-.93-.1-1,.92-1.36l-.27-.36c.12-.8.78-.19,1.12-.38.25-.43-.11-.69-.22-1.12a47.65,47.65,0,0,1,9.83-10.32c.37-.13.6.1.87.14s.23.44.57.35c.56-.65-.25-.68-.5-1,.53-1,1.68-1.18,2.45-1.85a12.81,12.81,0,0,1,2.66-1.56c.93-.48,1.81-1,2.76-1.49s1.89-.83,2.78-1.22c.29.14.32.49.64.4s.1-.41.2-.67c.73-.21,1.41-.87,2.27-.32.44-.23.64-.75,1.25-.84.09.42-.4.9.05,1.27a.51.51,0,0,0,.55.07c.25-.15-.12-.37.14-.56.42-.07.6.43,1,.59.24,0,.36-.17.49-.38l-.54-.77c-.32,0-.66.27-1,0-.05-.17-.06-.36.12-.4.8-.18,1.61-.34,2.44-.51l.75.54c.18.4.32.81-.1,1.15l.6.81c.16-.07.37-.18.32-.32a12.89,12.89,0,0,1-.19-1.73l-.64-.69c.77-.32,1,1,1.78.55.23-.33-.17-.5-.18-.81L55.92,6c.51-.07.72.9,1.5.19A.3.3,0,0,1,57.16,6a.75.75,0,0,1,.76-.15c.26.26,0,.64.3,1,.33-.2.07-.7.41-.94a27.33,27.33,0,0,1,5.86,0c-.18.4-.77.45-.76,1,.47.17,1,0,1.57.51L65.06,6c1.14-.17,1.23-.13,2.09.86.16-.24.52-.46.11-.77a.85.85,0,0,1,.76.16,1.14,1.14,0,0,1,.07.95,1.54,1.54,0,0,0,0,1.34c-.34.22-.18.64-.45,1,.4-.08.58.48,1,.11.15-.45-.49-.59-.39-1,.69-.12.48-.66.42-1s-.31-.82-.09-1.27a1,1,0,0,1,1,.09c0,.24-.33.38-.15.63.75.1.75.1,1.55-.4A38.56,38.56,0,0,1,77.8,8.6c.37.24-.06,1,.64,1,0,.14-.17.26,0,.44.36,0,.79.2,1.17-.33l-1-.24c0-.15,0-.32.14-.5a29.27,29.27,0,0,1,4.1,1.82,4.65,4.65,0,0,0,1,.56,1.29,1.29,0,0,1,.9,1.2c.44.3.5-.17.77-.28a51.1,51.1,0,0,1,6.83,4.94c.31.42-.1.62.22.94.16.11.27-.29.64-.2,1.1,1.23,2.45,2.37,3.6,3.73a55.84,55.84,0,0,1,3.68,4.72c.35.52.87,1,.22,1.68a4.65,4.65,0,0,1,2.12,2.13c-.18.61-.82,1.13-.36,1.8.54.16.48-.5.92-.52.38.6.95,1.16.75,2-.12.54.48.72.48,1.18-.17-.09-.33-.25-.62-.11.21.43-.3,1.15.61,1.31.21-.33.09-.7.14-1,.25,0,.32.17.4.37A45,45,0,0,1,108,45.62a18.42,18.42,0,0,1,.32,2.85,35.62,35.62,0,0,1,.14,4.22c-.22.33-.53-.06-.66.22,0,.46.43.29.68.66a34.3,34.3,0,0,1-1,8.74c-.25.33-.69.08-.89.46,0,.44.46.58.62,1-.12.34-.11.79-.36,1.08-.52.08-.36-.42-.62-.52-.42.56-.36,1.47-1.32,1.7.43.28,1.11.36,1.06.85s.38,1.12-.25,1.53c-.39.28-.75-.08-1.15-.1-.68.54-1.16,1.34-2,1.65-.22.41,0,.83-.28,1.1.18.31.44.05.63.26-.15.51-.81.42-1,.81-.3.22,0,.54,0,.63-.37.5-.61,0-.94.15a4,4,0,0,1-1.89,2.63c-.27.13-.39.57-.58.86-1.33-.51-1.55-.82-1.34-1.88a3,3,0,0,1,1-.43.38.38,0,0,0,.21-.65l1.09-.64c-.62-.35-.62-.35-1.73,0-.68.37-.68.37-.62,1.12-.32-.36-.16-1.08-.9-1-.29.43,0,1.12-.58,1.34,0,.42.38.33.56.5.24.36-.08.9.23,1.22s-.09.93.48,1c0,.41-.37.42-.54.59-.16.39.4.35.38.65,0,.12,0,.26-.15.29-.43.09-.62.3-.45.72s.65.1,1,.26l.51,1.07c.53-.06.93.29,1.39.49l0,0c-.19.32-.42,0-.62,0-.25.26,0,.42.15.6A2.58,2.58,0,0,1,96.89,83c-.67-.25-.47-1.05-.92-1.43l-.81.11c-.08-.3.13-.7-.37-.94-.41.47-.19.79.22,1.07a19.19,19.19,0,0,1-.07,2.4c-.55.32-1,0-1.31-.33-.44.26-.17.7-.37,1l-.47-.21c-.64.51,0,1.45-.64,1.87.13.31.28.49.55.53A.75.75,0,0,0,93.23,87.08ZM101,67.7c.47.35.88.34,1.4-.42-.57.21-.94,0-1.28.26-.1-.34.47-.5.31-.89-.5,0-.68.45-1,.56a1,1,0,0,0,.31.63ZM24.35,34.1c.14.12.12.38.39.43a1.4,1.4,0,0,0,.69-.34c-.09-.36-.31-.71.07-1.16-.86.21-.53-.62-.83-.86a.55.55,0,0,0-.4.31c-.06.37.33.62.28,1l-.33.47c-.27.08-.59-.37-.87.19.15.25.12.67.6.8ZM21.9,60.46c.69-.17.33-.6.24-1-.28-.58.57-.87.42-1.52l-1.41.58c.24.44-.22.72-.19,1.09a2.39,2.39,0,0,0,.59,1ZM36.6,19.21c.43-.34.78-.79,1.4-.84,0-.37.13-.7-.27-.93l-1.37,1.07.12-.49c-.4-.28-.44.19-.65.27s-.2-.36-.45-.29-.26.18-.24.38c.3.48.85.5,1.31.69-.29.29-.82-.23-1.09.45.55.31-.24.79.06,1.29C36.07,20.43,36.65,20.06,36.6,19.21Zm26.17-8.89c.15,0,.32,0,.4-.22.1-.4-.45-.54-.39-1,.53-.33.4-1,.59-1.5s-.6-1-.31-1.64a.64.64,0,0,0-.8.26c.08.46.19,1-.52,1.25.56.87.49,1.87.87,2.72-.58.23-.17.91-.59,1.26l.9.13c.29.22.07.6.37.76a1.43,1.43,0,0,0,.4-.63,5.11,5.11,0,0,1-.32-1.16Zm-18,4.56c.27,0,.56.07.79-.12.06-.42-.46-.39-.52-.69a1,1,0,0,0-.23-1,1.81,1.81,0,0,1-1.26-.37l.49-.43c-.64-.09-.29-1.17-1.09-1a1,1,0,0,0,.21,1.34,1.92,1.92,0,0,1-1.77-.61c-.09.23-.45.11-.48.27,0,.85.76,1.19,1,1.83l-.56.45c-.07.27.15.36.25.49s-.42.43-.15.86a1.89,1.89,0,0,0,1.33.4,7,7,0,0,1-.38-1.07c-.07-.38,0-.73.55-.67.17,0,.27.06.38-.11.37-.53.83-.24,1.29-.11l0,.49A1,1,0,0,0,44.54,16C45.14,15.65,45,15.28,44.77,14.88Zm3.91-1.8c-.16.22-.48,0-.63.19s0,.66-.21.92-.57,0-.69.32c.08.18.09.38.27.5s.16-.27.33-.3a2.21,2.21,0,0,1-.24,1.63c-1.47.84-3,1.26-4.38,2.1-1.11.69-2.29,1.3-3.35,2.07a18.79,18.79,0,0,0-3.09,2.3s-.07,0-.1.06c-.24-.06-.52,0-.73-.26l.1-.78a.48.48,0,0,0-.57,0c.15.59-.16,1.24.11,1.55l-1.64,2.1a3.34,3.34,0,0,1-1.52-.09c.69,1,.06,1.57-.45,2.19-.69.83-1.35,1.69-2,2.55a3.27,3.27,0,0,1-1.22,1.18c0,1.1-.79,1.75-1.22,2.61l-.67-.38-.54.58a1.73,1.73,0,0,1,.61,1c-.72.43-.54,1.32-.93,2s-.45,1.54-1.17,2.08c.25.24.13.5,0,.77-.2.57-.38,1.14-.55,1.71a42,42,0,0,0-1.62,10.39,1.83,1.83,0,0,1-.4,1.36c.12.09.3.14.26.35l-.57.7a3,3,0,0,1,.89,1.64,20.14,20.14,0,0,0,.45,3.44c.29.91.41,1.87.64,2.8s.48,1.84.79,2.75A39.11,39.11,0,0,0,42.17,86.38a38.64,38.64,0,0,0,19.33,5.2A39.13,39.13,0,0,0,71.87,90.2c1.06-.28,2-1,3.19-.78a10.78,10.78,0,0,1,2.51-1.33,41.16,41.16,0,0,0,6.53-3.77A49.55,49.55,0,0,0,90.23,79c-.3.66,0,1.5-.68,2,.17.23.18.46.42.54l.26-.63c.33,0,.58.46,1,.09-.19-.46.34-1-.23-1.52.48-1-.25-.63-.68-.59.12-.15.24-.32.37-.47A40,40,0,0,0,96.83,69c.13-.29.2-.62.5-.8a.73.73,0,0,0,.34-.6,3.69,3.69,0,0,1,.48-1.8,39.4,39.4,0,0,0,2.22-11,39,39,0,0,0-1.2-11.87,46.9,46.9,0,0,0-3.72-9.21,45.85,45.85,0,0,0-8-10.08,5.94,5.94,0,0,0-1.19-1.07,9.8,9.8,0,0,1-2.41-1.87,1,1,0,0,0-.47-.32c-1.43-.44-2.39-1.66-3.81-2.08v-1c.55.37.69-.34,1.2-.36a2.36,2.36,0,0,1-.23-2.12c-.43.16-.79.09-1,.38-.06.37.41.37.4.7s0,.74-.53.86c-.18.05,0,.26.05.39-.41,0-.71.33-1.09.42L74.4,16c-.2-.28-.05-.62-.3-.82-.26.09-.13.46-.48.56-.89-.23-1.84-.5-2.81-.73a29.19,29.19,0,0,0-2.92-.63c-1-.13-2-.33-3-.41a16.78,16.78,0,0,0-2.92-.1c-1,.09-1.93-.34-2.89,0-.26-.07-.37-.45-.75-.33L58,14H56.27c.2-.19.71,0,.64-.55a.83.83,0,0,0-1.25.55c-.42-.9-1.09-.19-1.71-.25a2.24,2.24,0,0,1,.25-2c.36-.6.13-1.33.67-1.88l-.69-.34a1.81,1.81,0,0,0-.91,1.36c-.42-.34-.69-.24-.86.19a2,2,0,0,1,.8,2.23c-.3.15-.57-.29-.93.06.47.34.72.87,1.34,1-.3.19-.52.4-.85.26l-.48-.79c-.28.09-.53.15-.76-.1s-.41-.13-.56.15a1.36,1.36,0,0,1,.44.87h0c-.64-.29-.68.73-1.23.61-.37-.37.24-.69-.05-1a.57.57,0,0,0-.82.25,1,1,0,0,1,.17,1.08c-.32.06-.6.37-1.14.1a17.85,17.85,0,0,0,.5-2.6c.68,0,.62-.6.86-1.12-.61.08-1.11-.09-1.58.15C48.2,12.66,48.54,12.8,48.68,13.08Zm-27.26,22c-.43.08-.89.12-1.13.55.53.59,1.25.15,1.88.53a8.81,8.81,0,0,1,.23-2.22c-1-.56-1.15-.55-2.65.22C20.57,34.18,20.78,34.9,21.42,35.08Zm35-26.93c.47.64,1.26,1,1.08,1.9.63-.1.54-.46.48-.82.26-.15.65-.1.79-.53l-.54-1.33c-.36.12-.51-.32-.86-.42C57,7.27,57.32,8.19,56.46,8.15ZM100.74,69.6c0-.26.37-.24.21-.51a1.09,1.09,0,0,0-.78,0c0,.39-.35.59-.53.85s.33.5.37.76-.35.21-.31.52l.91.77c.34-.2.33-.65.72-.69.11-.33-.34-.43-.25-.85-.06-.21.47,0,.4-.37ZM19.25,43.52c0-.4,0-.63-.34-.62a1.2,1.2,0,0,0-.36,1.37.91.91,0,0,0,1,.73c.35,0,.52.39.83.53.14-.38.14-.38-.41-1.73,0-.2.41-.06.31-.41A1.35,1.35,0,0,0,19.25,43.52Zm45.37-36c-.08.38.16.58.34.8.31,0,.39-.41.7-.41,0,.22-.26.41-.06.64l.31.1c0,.41-.48.54-.57,1a2.62,2.62,0,0,1,1.38.88c.32-1.23-.32-2.15-.54-3.12A3.11,3.11,0,0,0,64.62,7.49Zm-44.1,49c-.91.32-1.59-.39-2.4-.09V58l.83.23c.22-.17.33-.32.27-.57A1.26,1.26,0,0,0,20.52,56.47Zm-3.46,3v.37c.74-.57,1,.77,1.63.29.19-.3-.12-.52,0-.63.51-.61.17-.95-.26-1.26a1.35,1.35,0,0,0-1,.33ZM94.82,80.4c.63.18.81,1.24,1.77.8-.3-.54.41-1,.14-1.49C95.84,79.27,95.41,80,94.82,80.4ZM86,88.67c-1.23-.79-1.83-1.07-2.16-1,.32.62.25,1.39.72,2C85.2,89.54,85.46,88.94,86,88.67Zm-.14-4.41c.05,1-.83,1.16-1,1.79l.29.56c.31-.28.73-.11,1.09-.58C86.13,85.58,86.83,84.94,85.85,84.26ZM61.22,8.1c-.93.15-1.15.36-.89.92a2.68,2.68,0,0,1,.28,1.63C61.79,9.91,60.89,8.93,61.22,8.1ZM57.9,11.37c-.37-.1-.37-.49-.67-.54,0,1.07.24,1.41,1.44,1.73a1.86,1.86,0,0,1,0-1.46c0-.08-.07-.2-.1-.28C58.16,10.83,58.12,11.17,57.9,11.37ZM93.68,82.85c.18-.44.69-.49.91-.95L94,81.08C93.06,81.92,93.05,82,93.68,82.85Zm-75-34.39c.53-.2.76-.43.86-.81a1.36,1.36,0,0,0-.56-1C18.45,47.2,18.62,47.77,18.67,48.46Zm8.46-19.37c.35-.16.59.33.91.07.09-.25-.19-.49,0-.77s.51-.42.25-.86C27.41,27.66,27.49,28.5,27.13,29.09ZM61,7.4c0-1-.45-.79-.9-.73.11.6-.46.76-.76,1.12C60.1,8.19,60.37,7.23,61,7.4ZM38.77,16.28c-.2-.54.73-.38.23-1L37.59,16c.41.37.71.65,1.18.51C38.94,16.3,38.74,16.23,38.77,16.28Zm43.86-.87a5.52,5.52,0,0,1,.38.72c.08.27.13.53.53.52.26-.73-.33-1.19-.44-1.78C82.7,14.92,82.78,15.25,82.63,15.41Zm.43,2.5c.08-.48.18-.84-.11-1.17a.57.57,0,0,0-.62.6C82.31,17.77,82.68,17.78,83.06,17.91ZM59,9.19c-.79.62-.79.62-.29,1.28C59.38,10.23,59,9.74,59,9.19Zm6.86,84.23.55.6.58-.3-.59-1.11C66.22,93,66.13,93.26,65.85,93.42ZM49.6,11.78c.56-.27,1-.29,1.12-.82a1.54,1.54,0,0,0-.46-.68C50.22,10.78,49.81,11.07,49.6,11.78ZM31.13,19.92c-.1.67-.35,1.19.43,1.64A1.31,1.31,0,0,0,31.13,19.92ZM46.55,14.4a.93.93,0,0,0-.14,1.1c.16.23.36.44.68.14C47.14,15.14,46.46,15,46.55,14.4Zm24-4.31.21.22a2.12,2.12,0,0,1,1-.89c-.28-.19-.48-.4-.86-.35Zm-18.2,2.69c0-.46-.27-.67-.69-.62a.54.54,0,0,0-.52.61c.26.16.39-.15.55-.11S52,13.06,52.37,12.78Zm21.39.44c.34.69.52.81.86.55-.09-.28-.07-.61-.28-.85C74.1,12.85,74,13,73.76,13.22Zm-52,48.43a.7.7,0,0,0,0,.92c.38,0,.57-.16.63-.54C22.25,61.82,22.12,61.57,21.76,61.65ZM55.5,8.31a.67.67,0,0,0,.68-.08c-.35-.35-.34-1-1.21-1.13A3.6,3.6,0,0,1,55.5,8.31Zm51.73,39.2a.84.84,0,0,0-.6.61l.28.5a.94.94,0,0,0,.62-.51A1.07,1.07,0,0,0,107.23,47.51ZM92.33,79.76l-.81.41c.08.25.12.48.34.62C92.41,80.47,92.41,80.47,92.33,79.76ZM25.64,30.89a.79.79,0,0,0,0-.86c-.27,0-.53,0-.66.36A.53.53,0,0,0,25.64,30.89ZM84.87,87.1c.57.75.57.75,1.17.38C85.65,87.26,85.39,86.88,84.87,87.1Zm-4,1.21a1.1,1.1,0,0,0-.33-1.41A1.33,1.33,0,0,0,80.84,88.31ZM90.3,86.5a3.17,3.17,0,0,1-.07-1.45c-.61.24-.45.7-.64,1C89.77,86.26,89.89,86.51,90.3,86.5Zm-70.81-32c.39-.24.33-.56.12-1-.18.24-.48.14-.56.44C19.17,54.06,19.17,54.33,19.49,54.45Zm-3.32,4.06c.47-.75.47-.75.13-1.23C16,57.61,16.06,58,16.17,58.51Zm87.88,5.34a1.53,1.53,0,0,0,.27.85.57.57,0,0,0,.34-.82A.47.47,0,0,0,104.05,63.85Zm-.66,4.56a.54.54,0,0,0-.86.31c-.11.26.1.43.36.54Zm-84.12,2a.75.75,0,0,0-.75,0c-.09.41,0,.66.38.77A1.17,1.17,0,0,0,19.27,70.44ZM50.86,9.58c.73.19.86.08.92-.73A2.23,2.23,0,0,0,50.86,9.58Zm38.47,6.74c.38,0,.71.75,1.21,0C90.09,16.27,89.78,15.87,89.33,16.32Zm-47.42.06a1.45,1.45,0,0,0-1.27,0C41.07,17.15,41.5,16.5,41.91,16.38Zm-3,4.09c-.12-.61-.62-.35-1.08-.7C38.09,20.59,38.39,20.75,38.94,20.47ZM24.08,26.39c.57-.4.59-.75.35-1.2C23.88,25.45,24,25.83,24.08,26.39ZM19,33.18c.35.43.65.57,1.07.08C19.7,33,19.46,32.63,19,33.18ZM88.74,18.69c.52-.47.21-.74-.15-1.06a.76.76,0,0,0-.15.78C88.47,18.5,88.6,18.57,88.74,18.69Zm-24.45-10c-.31.21-.82.2-.93.87C63.88,9.36,64.31,9.32,64.29,8.68Zm-27.54,7c.3.21.56.3.74-.08.07-.15,0-.3-.13-.46C37.19,15.27,36.84,15.17,36.75,15.64Zm40.55-3.8a.67.67,0,0,0-.75-.27c.13.3,0,.65.25.88C77.2,12.38,77.14,12,77.3,11.84Zm-8.25-.17c-.65-.73-.65-.73-1.22-.22Zm35.12,24.51c-.38.23-.79.08-1.17.41l.88.28A.55.55,0,0,0,104.17,36.18ZM38.68,14.51c-.23-.43-.5-.57-.89-.33a.9.9,0,0,0,.29.62Zm-16.27,18c.12-.87.12-.87-.28-1.26A1.22,1.22,0,0,0,22.41,32.53ZM16.2,47.14c.38-.94.38-.94-.08-1.29A2.1,2.1,0,0,0,16.2,47.14ZM98,31.26c.32.17.6.3.75-.13a.33.33,0,0,0-.14-.4C98.34,30.83,98,30.8,98,31.26Zm7.41,34.42c0-.77,0-.77-.67-.48C104.72,65.56,105.05,65.53,105.36,65.68ZM98.84,70.5a6,6,0,0,0-.75.22c-.16.09-.34.21-.26.45C98.37,71.15,98.37,71.15,98.84,70.5ZM16.45,40.62c.74.05.74.05.95-.61C17,40,16.79,40.45,16.45,40.62ZM88.17,90.89c0-.31.36-.61.06-1C87.65,90.21,87.78,90.54,88.17,90.89ZM98.6,28.27c-.33-.06-.54.05-.59.41.15.21.27.41.59.26Zm-77,13.31c.07-.29-.1-.44-.38-.57a1.11,1.11,0,0,0-.25.62A.44.44,0,0,0,21.63,41.58ZM37.81,16.52c-.14.33-.22.56.1.71s.42-.12.48-.44Zm-15.11,12c.59-.35.19-.65.15-.95C22.5,27.79,22.49,28.09,22.7,28.49ZM85.52,13c.14.25.24.54.62.54a.45.45,0,0,0,0-.62A.55.55,0,0,0,85.52,13Z"/><path class="cls-1" d="M93.23,87.08a.75.75,0,0,1-.53,0c.22-.51.18-1.19,1-1.37.22.28.48.59.93.35l0,0a1.39,1.39,0,0,0-.61.52A.8.8,0,0,1,93.23,87.08Z"/><path class="cls-1" d="M94.59,86.08a10,10,0,0,1,1.16-1.77c0-.23-.25-.45-.14-.73.12,0,.26,0,.3.07s.15.51.23.77a14.39,14.39,0,0,1-1.53,1.68Z"/><path class="cls-1" d="M98.94,81.09c0-.71,0-.71-.45-1.06.41-.35.75-.78,1.25,0a3.26,3.26,0,0,1-.82,1.07Z"/><path class="cls-1" d="M105.54,68.89a1.24,1.24,0,0,1-.38,1c-.48.12-.44-.57-.75-.5A1.68,1.68,0,0,0,105.54,68.89Z"/><path class="cls-1" d="M97.8,79.47c.09-.29.2-.43.41-.45C98.32,79.44,98.32,79.44,97.8,79.47Z"/><path class="cls-1" d="M21.9,60.46c.05-.33-.34-.77.24-1C22.23,59.86,22.59,60.29,21.9,60.46Z"/><path class="cls-1" d="M29.87,39.23a2.48,2.48,0,0,1,1.07-2.64c0-.2-.2-.22-.29-.35,0-.52.49-.4.81-.62a10.23,10.23,0,0,0,.19-1.09c0-.13-.14-.28,0-.44a7.74,7.74,0,0,1,2.8-2.56c.7.26.84-.83,1.51-.63A7.38,7.38,0,0,1,39.74,30c4.34-.26,8.69-.51,13-.52,1.86,0,3.72-.07,5.57-.06a4.38,4.38,0,0,1,2.31.38c.13.12-.06.56.29.71a.25.25,0,0,0,.33,0,1.93,1.93,0,0,0,.44-.34,1.92,1.92,0,0,1,1.65-.8c1.11.08,2.23,0,3.31,0A4.45,4.45,0,0,1,68,30.87c.52-.07.31-.81,1.15-.69l-.66-.36a3.12,3.12,0,0,1,1.71-.31c2.08,0,4.16.09,6.23.21a.76.76,0,0,1,.56.16c-.41.63.19.85.44,1.3.26-.57.23-.95-.28-1.18a5,5,0,0,1,2.56-.12,21,21,0,0,0,2.86.11,12.15,12.15,0,0,1,5.75,1.33,8.56,8.56,0,0,1,3.75,3.73,18.63,18.63,0,0,1,1.73,6.19,141.87,141.87,0,0,1,.46,18.44A50.66,50.66,0,0,1,93.36,69c-.15.72-.55,1.32-.66,2.06a6.18,6.18,0,0,1-.92,2.07,8.31,8.31,0,0,1-1.42,1.76,9.12,9.12,0,0,1-5.43,2.56c-2.58.32-5.18.37-7.77.49-8,.35-15.9.32-23.86.22a7.28,7.28,0,0,1-3.07-.3c-.32-.15-.58.21-.9.13-1.24-.3-2.5,0-3.74,0s-2.47-.18-3.7-.24a31.48,31.48,0,0,1-4.11-.44,12.71,12.71,0,0,1-2.16-.58,1.14,1.14,0,0,1-.32-.73c0-.31.43-.23.44-.51-.38-.36-.91-.26-1.29-.51-.31.42.33.55.17.87s-.44.18-.64,0a9.77,9.77,0,0,1-2.51-2.65c-1.7-2.63-2-5.56-2.33-8.53-.19-2.11-.31-4.22-.4-6.34,0-.67-.34-1.43.29-2a3.54,3.54,0,0,1-.35-1.7c-.06-3,.1-6,.25-8.95.07-.4.49-.42.6-.62-.76-1.95-.29-3.78.2-5.61.06.59.37.51.73.26.22.16,0,.52.25.65s.32-.54.71-.42c.29.32.61.24,1,.08a2.63,2.63,0,0,0,0-1.36l-.84-.67c-.54.36,0,.79-.22,1.06.27.26.64,0,.78.38s-.3.34-.56.36l-.36-.4-.59.17c0-.15,0-.31-.21-.4A.84.84,0,0,1,29.87,39.23ZM39.8,64.81c.18.37-.65.36-.32.8.7-.28.7-.28.48-.94a2,2,0,0,0-.31-1.24C39.64,64.05,39.16,64.47,39.8,64.81Zm40-24.37c-.12-.22.25-.41,0-.65-.27,0-.52-.25-.84-.11,0,.48.39.65.66.89-.39.2-.64.44-.26.92C80,41.31,80.23,41,79.8,40.44ZM43.56,53.53c.36-.37.22-.77.12-1.26-.28.38-.75.41-.88.84.13.27.46.09.62.28l-.33.1a.76.76,0,0,0,.35.73c.32,0,.78.22,1.07-.4C44.16,53.66,43.62,54.21,43.56,53.53Zm-7.12,20a1.33,1.33,0,0,0-.83.4c.19.18.14.52.45.67.56-.07.78-.36.54-.94.35-.31.23-.63.08-1-.33.14-.54.29-.6.6ZM68.29,37.21c.26,0,.5-.11.38-.43s-.34-.43-.64-.21c-.12-.18-.06-.32,0-.53.14-.44.44-.93,0-1.38A1,1,0,0,1,68.2,34a1.82,1.82,0,0,0-.12-2.21c.07-.2.37-.31.21-.69-.75,0-.78.95-1.41,1.18L66,32.22c0,.38,0,.69,0,1,0,.5.25,1,.66,1s.47.46.75.61c0,.19.21.45.14.56a2.24,2.24,0,0,0-.09,1.79c-.16.85-.06,1,.77.84ZM37.17,68.76l-.34.31c-.43,0,0-.89-.79-.66l.27,1.31c.26,0,.45,0,.56.16.18.43-.13,1.05.65,1.31a5.08,5.08,0,0,0-.21-2.29,1.28,1.28,0,0,0,1-.62,4.24,4.24,0,0,0-.68-.21c-.27,0-.09-.63-.52-.42C36.72,68.05,37.21,68.38,37.17,68.76Zm10.71-8.27c.4-.22.84.15,1.33-.14-.14-.49.75-.6.49-1.27-.4-.25-1.06-.28-1.11-1A5,5,0,0,0,50,57.16c-.51-.29-1,0-1.39,0-.15.25-.07.53-.11.8l-.49.45c.65.29,0,1.1.72,1.3-.36.31-.79,0-1.08.33l.14.31a.65.65,0,0,0-.63.43.86.86,0,0,0,.71.55Zm12.64-.76c.61.9.61.9,1.52.72-.29-.29-.54-.57-.83-.81a2.78,2.78,0,0,0-.63-.29l6.54-3.45c.23.21.11.61.5.62.27-.33.24-.78.43-1.11,1.24-.9,2.84-1.14,3.93-2.31-1-.9-2.43-1-3-2.2-.29-.09-.5.23-.72,0a9,9,0,0,0-1.91-1c-.83-.49-1.68-.92-2.53-1.38a21.63,21.63,0,0,1-2.4-1.34A15.21,15.21,0,0,0,59,46a2.81,2.81,0,0,1-1.06-1.05c-1.14.22-1.8-.75-2.81-1l-.47.24c-.3-.1-.42-.48-.78-.52l-.51.29c.26.48-.06,1.21.64,1.37.48,0,.22-.8.92-.55.1,2.52,0,5.1-.07,7.68-.05-.48-.36-.71-.83-.94a3.36,3.36,0,0,0,.21,2c.55-.18.21-.69.48-.92.48.86.18,1.77.21,2.64-.31.35-.85.46-.78,1.05.17.25.63,0,.81.42-.18,1.76.06,3.6-.08,5.47.93.13,1.62-.62,2.46-.53a1.38,1.38,0,0,1,1.68-1A1.39,1.39,0,0,1,60.52,59.73Zm-17.71-25-.17.51c-.09-.26-.08-.44-.42-.44a1.41,1.41,0,0,1-1.35,1c.4,1.22-.92.84-1.32,1.5.52.13.89.48,1.48.35l.3-.81c.77-.32,1.44-.6,2.13-.14.08-.56-.29-.84-.34-1.2s.4-.16.26-.47Zm-.49,2.38-1,.33c.41.47,0,.92,0,1.38.05.8-.08.81.86,1.09.32-.41-.12-.82,0-1.28.38-.19.75-.43.76-.9Zm-9.11-2.37c.28.51-.32,1,.09,1.47.47-.1,1,.43,1.52-.13.13-.53.33-1.11-.24-1.64A2.78,2.78,0,0,1,33.21,34.74Zm3.69,4.51c.49-.61.44-1.55,1.42-2.08-.65,0-.65-.61-1.1-.78-.68.24-.48,1-1,1.42C37.09,38.08,36.08,38.93,36.9,39.25ZM58,41.5c.12.27,0,.63.25.86a4.88,4.88,0,0,1,.76-.91c.07-.07.06-.22.07-.29-.12-.34-.45-.09-.6-.27.09-.21.26-.43-.06-.64s-.84.24-1.3.34c.16.49.29.92.43,1.34C57.94,42.05,57.9,41.71,58,41.5ZM38.55,63.38c0,.52-.36.92,0,1.3a.93.93,0,0,0,.54-.27c-.19-.58,0-1.26-.53-1.82l-.82-.19c0,.63-.67.65-.91,1.09A2.33,2.33,0,0,0,38.55,63.38ZM73.73,35.14c.11-.33-.26-.4-.26-.62s-.13-.43-.5-.47c0,.62-.73.76-.92,1.45.84-.18.65.8,1.34,1A1.74,1.74,0,0,1,73.73,35.14ZM42.58,65A3.13,3.13,0,0,0,42,67.12c0,.47.39.65.92.45-.25-.37.13-.71.06-1s-.36-.23-.38-.42c.07-.36.53-.48.54-.91Zm24-22.28c.76-.43.25-1,.5-1.38l-.8-.38c-.29.25-.73.13-1,.52C65.46,42.15,66.41,42,66.56,42.69ZM49.18,61.85h1.69a1.23,1.23,0,0,0-.4-1.47C49.73,60.63,49.86,61.65,49.18,61.85ZM31.52,42.51c.22.4,0,.91.46,1.3.3.21.83,0,1.24.39a8.63,8.63,0,0,1-.81-1.73A1,1,0,0,0,31.52,42.51Zm31.76-7.78c-.33.35-.83.39-1,.82a1.21,1.21,0,0,0,1.25,1.05C62.89,36,64.16,35.43,63.28,34.73Zm-7.16,2.16L55.22,38a3.12,3.12,0,0,0,1.38.29c.26,0,.67.13.79-.31a.29.29,0,0,0-.06-.32c-.28-.3-.69.13-1-.15ZM50.53,55.5c.52-.27.12-.59.35-.82s.66-.07.8-.53l-.34-.63c-.33.07-.14.47-.42.54s-.38-.42-.74-.2A8.49,8.49,0,0,0,50.53,55.5Zm-1.1,8.08-1.08-.22a.49.49,0,0,0-.32.5c.15.43.63.51.88.83A2.29,2.29,0,0,0,49.43,63.58ZM31.32,50.1c.33.06.57.1.78-.05-.61-1.44-.61-1.44-1.37-1.2C30.82,49.35,31.45,49.56,31.32,50.1ZM50.48,53c-.26-.51.69-1-.12-1.37-.63.3-.63.3-1,1.12ZM38.14,40.91a2,2,0,0,1-.54.87.56.56,0,0,0,.46.91l.6-.83C38.46,41.59,38.63,41.15,38.14,40.91Zm33.21-9c-.12-.26-.12-.61-.62-.68,0,.73-.64,1.37,0,2.09C71.14,32.87,71.15,32.32,71.35,31.86ZM45.89,37.72c-.08-.91-1.07-.43-1.36-1a.82.82,0,0,0,0,.9C44.94,37.79,45.36,38.15,45.89,37.72Zm-.08,29.91c-.6-.11-1-.06-1.18.56.37.19.81.28,1,.73l.69-.4c-.07-.32-.44-.16-.54-.4Zm-6-17.88c-.13-.68-.18-1.2-.63-1.58a1.3,1.3,0,0,0-.95.65C38.94,48.85,39.19,49.43,39.86,49.75Zm5.55,10.64c-.59.54-.59.54-.18,1.19a2.17,2.17,0,0,0,.85-.3C46,60.94,45.89,60.57,45.41,60.39ZM36.28,40.61c.46.36.91.61,1.44.26,0-.56-.39-.11-.6-.33s-.06-.65-.52-.7A.61.61,0,0,0,36.28,40.61Zm20.85,29c.38-.13.4-.41.46-.66-.34-.31-.64-.74-1.2-.39A1.13,1.13,0,0,0,57.13,69.58ZM38,34.75c-.49.14-.91.2-.74.89.49-.25.58.35.93.56C38.55,35.61,38.23,35.24,38,34.75Zm9.09,26.54c-.09.9.28,1.16.78,1.34.41-.27.61-.56.3-1C47.83,61.6,47.43,61.87,47.09,61.29ZM60,44.31c-.34.48-.93.54-1.19,1,.85.36.85.36,1.53-.68ZM44.21,59.57c0,.36.15.53.52.66.11-.58.9-.11,1.11-.68A1.44,1.44,0,0,0,44.21,59.57Zm1.26,13c.49.75.06,1.16-.09,1.57a.46.46,0,0,0,.46.23c.22,0,.35-.15.51-.4C46,73.66,46.43,73,45.47,72.58ZM45.38,32c0,.33-.11.62.17.82.72-.35.72-.35.75-1,0-.05-.08-.1-.13-.16C45.87,31.61,45.67,31.8,45.38,32ZM71.94,49.32c.6-1,.57-1.2-.24-1.58C71.68,48.28,71.48,48.85,71.94,49.32Zm.49-18.25c.42-.45-.16-.64-.27-.92.12-.15.3-.2.26-.41a1.19,1.19,0,0,0-1,0C71.71,30.24,71.89,30.8,72.43,31.07ZM34.1,41.27c.29.51.32,1.1,1,1.42L34.81,41Zm30.42,3.56c.24.3.25.73.66.92.15,0,.27-.13.38-.41-.52-.16-.29-.78-.62-1.23Zm-13.63-.59c-.31-.56-.72-.48-1.15-.28a.57.57,0,0,0,.12.62A2.24,2.24,0,0,0,50.89,44.24ZM76,35.16c.36-.46.59-.93,0-1.38C75.29,34.25,75.75,34.71,76,35.16ZM42.54,76.38c.36.08.36.74,1,.54a2.53,2.53,0,0,0-.39-1.14C42.66,75.81,42.7,76.17,42.54,76.38ZM57.59,43.5c.16.6.54.7,1,.78C58.5,43.37,58.5,43.37,57.59,43.5ZM49,63.33c.36-.12.56-.54,1-.59-.53-.73-.87-.21-1.21-.06C48.72,63,48.7,63.15,49,63.33ZM38.87,66.61c.09-1.12-.06-1.27-1-.93Zm12.36,2.52.22,1.12c.59-.22.26-1,1-1A1.44,1.44,0,0,0,51.23,69.13Zm23.61.35c-.3.4-.1.63.16.74s.69.24.94-.24C75.59,69.67,75.12,69.79,74.84,69.48ZM56.63,65.89a.49.49,0,0,0-.06-.63.54.54,0,0,0-.8.35A.59.59,0,0,0,56.63,65.89Zm4.67-3.48c-.12-.33-.18-.59-.45-.71a.81.81,0,0,0,0,1.33ZM35.67,45.78c.48-.32.52-.59.06-.92l-.91.28Zm-.21-3.61c.21-.18.51-.28.55-.7-.21-.11-.27-.44-.73-.39C35.52,41.42,34.74,41.8,35.46,42.17Zm45.4-2.77c-.8.84-.8.84-.3,1.39A2.25,2.25,0,0,0,80.86,39.4ZM53.78,60c-.61.08-.9.41-1,1.25C53.29,60.79,54,60.84,53.78,60Zm9.79-14.81c-.47,1.15-.47,1.15,0,1.52A1.84,1.84,0,0,0,63.57,45.22Zm-.3-6.62c.42,0,.87.2,1-.53-.41.15-.76-.06-1.09-.12A.61.61,0,0,0,63.27,38.6Zm2,8.92a.61.61,0,0,0-.67,0l-.19.83C65,48.19,65,48.19,65.28,47.52ZM51.56,72.66c.79.35.79.35,1.17-.2A1,1,0,0,0,51.56,72.66Zm1.51-3.91c.06-.27.07-.46-.12-.64a1,1,0,0,0-.78.35C52.34,68.87,52.63,68.94,53.07,68.75ZM63.64,37.08c.37.11.6.53,1,.11l-.54-.81C63.78,36.53,63.81,36.8,63.64,37.08Zm17.14-1.39c.36.07.64.06.65-.35A.34.34,0,0,0,81,35C80.58,35.07,80.61,35.33,80.78,35.69ZM32.86,44.77a.87.87,0,0,0-.55-.64c-.21.13-.4.26-.33.56C32.22,45,32.51,44.9,32.86,44.77ZM48.59,51c-.05.73-.05.73.63,1C49.5,51.3,48.74,51.31,48.59,51Zm32.08,6.48c-.29-.43-.58-.58-1-.08C80,57.57,80.25,58,80.67,57.43Zm-17.4,5.1c.86-.4.86-.4.59-.94A1.59,1.59,0,0,0,63.27,62.53ZM47,63.36c-.4,0-1,.66-1,.86a.59.59,0,0,0,.47,0C46.73,64,46.68,63.59,47,63.36Zm8,.73c-.23-.33-.45-.7-1-.4A.68.68,0,0,0,55,64.09ZM81.12,65.2a.62.62,0,0,0-.28-.89.61.61,0,0,0-.33.63A.51.51,0,0,0,81.12,65.2ZM57.4,66.46l-1-.23a1.1,1.1,0,0,0,.41.87A1.09,1.09,0,0,0,57.4,66.46Zm-6.13,0c.56.71.84.82,1,.5l-.2-.5Zm-.28,1c.37,0,.26.67.8.56a.48.48,0,0,0,0-.68A.76.76,0,0,0,51,67.52Zm-.9,4.37c-.09-.32,0-.74-.38-1C49.45,71.55,49.45,71.55,50.09,71.89Zm25,2.25c-.63,0-.63,0-.8.65C74.91,75,75,74.59,75.14,74.14Zm-31.39.67a3,3,0,0,0-1.22.36c.31.21.5.43.81.38S43.58,75.15,43.75,74.81ZM46,61.72c-.92,0-1,.4-.8,1.07ZM67.31,44.18a.73.73,0,0,0,.56.6.43.43,0,0,0,.29-.35C68,44.08,67.69,43.94,67.31,44.18ZM51.67,65.31c.32.82.45.85.95.27C52.25,65.63,52,65.31,51.67,65.31ZM59.3,68a1.1,1.1,0,0,0,.18-1.3C59.16,67.4,59.16,67.4,59.3,68Zm12-28.25c-.17-.81-.17-.81-.71-.8A1,1,0,0,0,71.28,39.76Zm-19,36.54c-.18.07-.35.14-.34.43.18.13.27.42.6.42C52.77,76.77,52.62,76.5,52.27,76.3ZM43.2,54.35c-.27.39-.35.64.08.81C43.44,54.77,43.44,54.77,43.2,54.35Zm-1.62,2.8c.31-.39.39-.64-.07-.82C41.22,56.59,41.22,56.82,41.58,57.15ZM39.5,58c.42-.5.42-.5,0-.84A.76.76,0,0,0,39.5,58ZM54,57.84c.12.25.15.49.38.62a1.1,1.1,0,0,0,.31-.58.52.52,0,0,0-.35-.31Zm-12.93.58a.47.47,0,0,0,.63,0,.77.77,0,0,0-.32-.59C41.2,58,41,58.09,41.11,58.42Zm3.67.28c.52-.29.53-.56,0-.87A.67.67,0,0,0,44.78,58.7Zm17.11.39c-.19.43-.34.69.12.87C62.31,59.69,62.29,59.46,61.89,59.09Zm-4.56-22c0-.71,0-.71-.59-.82A1.84,1.84,0,0,0,57.33,37.09ZM84,62c.07-.29-.1-.44-.34-.55a.76.76,0,0,0-.29.6A.44.44,0,0,0,84,62Zm3.38,1.18c-.54-.25-.8-.07-1,.29,0,.11,0,.21.17.29ZM80,66.33c.08-.33-.11-.47-.32-.59a.45.45,0,0,0-.34.3.47.47,0,0,0,.26.35C79.66,66.46,79.77,66.44,80,66.33Zm-6.6-34.08c-.11.52-.49.8-.23,1.27C73.63,33.21,73.6,32.84,73.35,32.25Zm-12.1,35c.11.16.17.37.39.33.5-.24.19-.52.08-.78,0-.09-.12-.1-.22,0Zm-21.91.32A.65.65,0,0,0,38.7,67C38.58,67.59,38.79,67.75,39.34,67.57ZM51.06,37.88c-.62.29-.23.59,0,.91a.68.68,0,0,0,.32-.68ZM91.42,70.8a2.43,2.43,0,0,0,1-.75C91.8,69.91,91.55,70.11,91.42,70.8ZM35.19,72.31c0,.54.08.85.62,1.07A1.07,1.07,0,0,0,35.19,72.31Zm18.05,1c-.48.19-.6.49-.86.78C53,74,53,74,53.24,73.3Zm13-32.64c.79.05.79.05.93-.64Zm-32.39,5c-.31.4-.39.65.08.83C34.22,46.26,34.22,46,33.86,45.69Zm13.7-10.82c0,.33.12.49.4.52.12-.19.33-.34.2-.61A.47.47,0,0,0,47.56,34.87ZM40.17,49.94c.44-.64.44-.64-.23-1Z"/><path class="cls-1" d="M51.41,14.82c.23.08.24-.23.44-.25l.21.27c-.24.24-.45.24-.66,0Z"/><path class="cls-1" d="M21.07,31.69v.47L20.75,32c0-.13-.25-.21-.07-.39S20.94,31.67,21.07,31.69Z"/><path class="cls-1" d="M66.54,32.76c.25.18.62-.15.91.33C67.08,33,66.75,33.12,66.54,32.76Z"/></g></svg>